<mxfile host="app.diagrams.net" agent="Mozilla/5.0 (Windows NT 10.0; Win64; x64) AppleWebKit/537.36 (KHTML, like Gecko) Chrome/132.0.0.0 Safari/537.36" version="26.0.10">
  <diagram name="PÃ¡gina-1" id="n4GKNsxwRTQK6JXiqO13">
    <mxGraphModel dx="1463" dy="2738" grid="1" gridSize="10" guides="1" tooltips="1" connect="1" arrows="1" fold="1" page="1" pageScale="1" pageWidth="827" pageHeight="1169" math="0" shadow="0">
      <root>
        <mxCell id="0" />
        <mxCell id="1" parent="0" />
        <mxCell id="hAuHUI22cmVRYy7zVz07-39" value="" style="whiteSpace=wrap;html=1;aspect=fixed;" vertex="1" parent="1">
          <mxGeometry x="-350" y="-1330" width="2550" height="2550" as="geometry" />
        </mxCell>
        <mxCell id="hAuHUI22cmVRYy7zVz07-14" value="" style="whiteSpace=wrap;html=1;aspect=fixed;" vertex="1" parent="1">
          <mxGeometry x="-235" y="-260" width="970" height="970" as="geometry" />
        </mxCell>
        <mxCell id="hAuHUI22cmVRYy7zVz07-1" value="" style="whiteSpace=wrap;html=1;aspect=fixed;" vertex="1" parent="1">
          <mxGeometry y="10" width="520" height="520" as="geometry" />
        </mxCell>
        <mxCell id="hAuHUI22cmVRYy7zVz07-7" value="Jardineria" style="text;html=1;align=center;verticalAlign=middle;whiteSpace=wrap;rounded=0;" vertex="1" parent="1">
          <mxGeometry x="170" y="50" width="60" height="30" as="geometry" />
        </mxCell>
        <mxCell id="hAuHUI22cmVRYy7zVz07-9" value="" style="shape=image;verticalLabelPosition=bottom;labelBackgroundColor=default;verticalAlign=top;aspect=fixed;imageAspect=0;image=data:image/png,iVBORw0KGgoAAAANSUhEUgAAAd8AAACXCAIAAADbHsa6AAAABmJLR0QA/wD/AP+gvaeTAAAgAElEQVR4nO2deVhTx/rH52QFwg4RJAEE2ZFdFBVXcKkVbeuCrUvrrdeqra31WrW1V62tbbXVq9ZWUeuCWtuqBZWgVVwBca+oiIDsyhqWQPac5ffH9J5fbhICBBDQ+Tw+PidzZt4zyct5M5kz834xiqIAAoFAIHoYjO7uAAKBQCAMgKIzAoFA9ERQdEYgEIieCIrOCAQC0RNB0RmBQCB6Iig6IxAIRE8ERWcEAoHoiaDojEAgED0RFJ0RCASiJ8Lq7g4gEIiuRS6X37hxo6GpmYFhDAwwMKy7e/TSQVIUSQGKAnY21lFRg83MzNrSCmv7Tm7k4x6Lab5HvAzcvHmzoqoa51jJWdZqpjmBoQFZ98CkcA6hMNdI2BqpoK9zZGRkq03aGp2Rj3s4Jvge8cLz57nzCpWmnuemYXC7uy+Iv2GTSnt5uQWXM25srPGabYrOyMe9iLb7HvFik3X9erW4oZbXj0RjqR4Gg8L5smKXPo6DBg0yVq1VQ1nXryvUeK2lBwrNvQINw6yW5yFXqW/evNndfUF0G3K5vKamtt5ciEJzD4TEWA0WbpVV1Uql0ki1Vjz3t4/R12+vAvoeqypWKpVoDvrl5NatW2qOlYb5P97/eY2m1Yb2zpzoKSXW9nyuuUWX9Q4B1Ayuhm1548aNkSNHtlSnlZiLfNxLaYvvES8wdY0SOc9Vp9An1JbBABh8ng9nNDEAqL//JymKooClLTPnVkZgZDRf4P68O/2SIWPbMBufGqnQSnRGPu69tOp7xAsME8M0THOdwhkL+0wOYAEASAoQJPyfIkiAUwAnAE5SahxcypMf3lKqHBCub/PM4Z2n92/v5x+8Ysdv+mcf3c74YcX8OZ9sGPrK1JZ6VVaQ8/WC1+Pmffjq3A869v7An0d3O7l6hkb34ocrGqY5ZnTlWyvRuSt83HEkdbWrpg8fMfnNN5eubVfDF8CjbadV3yNeYJgMjMB0nyphFNUsx8tq5BqCYjIZNjx2ZYNSg1MONuaV9QqVhvISWBMavCWbmanH+C6u0xd/avg0RVEU+d/xmmFsHZ3eeO+T/kER7X9Dupzc+5+wEeN62r0sb6huKM0zeMrO3dfCzkm7hMRYLEZHonMX+LhToCiSosj2tuqZHm07net7xIuOrvdJiiIooNSQKjXBYjHNOCyFilThlKWGlKlItUrTrFBo1GqDtg58s6KuqoJnbXP93EmPgND0lN+uJB+RS5s9A0PHzZzv5h0Iq9U+K9v2yTxxRfnA0RMnv7v0WVH+kS1rRr0266+rf/qERQVGDv8r/TzP2rZ/YHjJ4wd/7NoornrmExI5cspbHgGhAAAdsxyO2aHvVw+Kjcu9nVlZ8iR0+LjX/vkvDMMOfLOCosiC+7dP798eN+/D+9cunj6wvam+tv+AiLc+/sLSxq5LP1YjmFs7FJXlqWUSnXIOz6Zv0FCdwlZXy7VlJ7dBH1NKDSlX4goVodJQChUpU5EqDSlTkXKF2oiPSx4/2Pj+jIyU3xPWfPDv2WNP799GksTTwscb359x4/zJXf9efPGPRABAecGj75bMXPpq2Lq3J2Sk/A7bPrqV/vWC19e9PeHO5VQdg7cvigAA1eXFG9+fkZl6DJZvWTr7s5mjD3yzovjRPQCAtkdbukQPx9zaoaEsrzr3ps6/hrI8M2sHncpILxKhA0kQBAk0OKnCKbUGVxOUSkOp1LgKp1RqUq1RK1U4gRt+quTs1p/JZJpZ8PoI3avLi49s/jfGYIQNH3s/8+KBr1fQ1f78dQ+GMQgcP3Nk119XzynlsuJH937dtv5+1iUmk6lSyosf3WsUV8uaGrf+a+6zojwP/+A7V87+sOqfKqVC36xSIS98ePf3HRtkTRKlQvbn0d1PHtwGAPQR9gMAmFvw7J36PivK3/n5YqVM6h8x7EHWpR2r/vlcPkvDYEyWS/Aw/XKX4GEMZrsXVpiSZ6MjPlbImosf3ft1+3qlXNpUXytK/PHqqV91XChrlmxeOrs072Hw0BiFrPnw5s/vZaRp1Kqd/36//EmuraPTyZ//o2NQUlcDAFArFcWP7jXUVhn0vbZHDV7ChI/iOdO5vke8bBAECSchCRLg5N/zkDgBNATA6RKcMNh2wqz3WByuk6tnzLR3SJKYseTzRV/9NHxSvJWdfW1FGV1t+KT4Dzf9vOLH3zCM8fDGVVjYR+j+ReKfI6fMoqvdvpSqlMumLf70n2u3zf3ka7/wIY3i6pbMho0Y/69tRxZ9tRMA8PD6FQDAxDmLMYwh9PIfNnH6tTPHKYr8x+rv31y6bvC4KSWP71cU53fRB9gW7Nz9LeydtUssHQV27v4mmDLlltb2MYa1z8eQoa9MfevjL2oryv49K/bWhdPC/n4AgD5C9/lrtvJd3C7+kaiUS99cum7klLfqqp6tfnP0leTDXDNzjUo5619fDp8Uf+7XPX8kfGfEPvT92yu/HTLhjVsXUv5KP9corp44Z3HKgR+gRw1eolfMeNi5+9fk3ZXXV9ElJvse8bJB4jhBsgkK3rmUhqLwv+9Z+gCQeOtzkvZOgtLHD079vFWtUnC45to72tx9gwAAto5Otnynopy78Alh8NAYvoubtoW6qmcAAIGnDwAgMmZSZMwkAIBKqTBo1s07AADAs7IBAGhUuguE66qeAgA2vj+DLhFXPnXx8Gn/x9M5YBjmGjEmP+0o7D+GYYKwkaY9ATJp7IzjBAmgjwnSFB97+IcAAPgubnZ9+sJhL9ByYe2zUgCAZ2AYAMDBWWBtz695Vpp75xoAwDs4EgAQMsxwGKX++2tex/cL1m13EvbTrmnwEiZ8FM8f6Hva2R3xPeJlgyRwDQE0BNAQhAYncRyoCYATpBoncYLECUpDUEQbonPa7z/fOH9y0jtL/pNyF95lNDXPSgAAKqWiqb4WjroAAGZ6y2r7uvcHAMiamwAAJY8fXE463NxY15JZTO/RlzY8azsAwMdbEr/65SL85xcxpA0fRhfCc3SxEXrDY1tXH56ji2l2TJvZ6KiPS/MfAgBUSoWkrsbSxh4W0i6EJTVPSwAACllzc0Odla29vZMLAKC++hkAQFJfS5vicM0AAHCau7mhDhYa9L12BwxewoSPolvoLN8jXjZwDaEhgUKNq1UqpUqtUCrVKpVarVIolGqNCtfgGoIijP7qhagUCgCAu++AguybRTl/Aa2xc6bo2JWTRw5/v5rAcb8IA7NwkMBBwzEM+/OXhAdZlw599+mp/dvMLa2NmNUHY2B1VU+ryop8wwYDADJEv4sryw9888mm92fgmtY3ZHQ1gtCRGIOJMZguISNMNmLKzIa2j3EGBn2swTUKBVOtURFt8PHtiyIPv+B7GWkkQfiF637RhUbHphzYnnroR4qi/rr6J0WRIdFjQ4aO+XXbF8l7tkjqxZeTDtGV+wjdAQBZZ0+YW1qe+3UvLKR9j6tVyXs3N9RWR8fFAy2PGryECR9FdyEIHSl5VggA6IjvES8bOE7gOMFlEhSTBBjANWoWgwBMCteoWQwSYzMIElBE69F56CtTb5w/ufmjWU7Cfr5hUY/vZokry+Gpfv4hJ3ZuUqsUXkER4SPHVxQXGLRgbc+PnT7v/O/7Ht/N4pqZz/vsexaLrW9WIq5uqQ9R416/dSHlxM5v3/9md3V5ybUzx29dSOGaW8z615cWltamfT6dCNfSpo9vODww2YhJ0bnDPu7nF3x02xdKuaz/gPCxM+dXljzRPivw9J3xwecndn67d/1SAEDEqFdipr3N4ZqPmfr2xRMHD367MvrV6aV5D2FlK1uH6FenZ6Ye/237V0MmvAEXbBj0Pfhfj+pfwoSPorvoFN8jXjZwjYbNZjg7WiqVXJykCIrRh2uG4wROYVwLjCABxmBTZIsLVbeK7sIDZzfPb49dbaiptHcS0Gcd+7ruupQPAMBxjUzSaOPABwB4BUXAQoibdyD9cuqiVa/MXtQoru7j6gFvT4Nm6fp8gbu2qTmfbHjr4y9wjRoAEDfvw0nvfFDzrMzBWQBN9QScAgZ30EIrOepSUlKeWfrqFDJV3DHhTjKFWqnUQB9rSAB9TFB/+zjnYfGFU/+JGv+6q9f/PLDKvXNt2/J35q74etDYKdLGeltHJ9ACGrWq9lmpjUMfnrUtXdjcWEdRlLWdo05lpVwKAGZmwdMulDdLtH0PIXAc16jh/nKDl+gt4GolAIDFMZZGQyDNmzRp0vPqEaKrqKio+Oijj7KyssLCwk6fPt2WJgbv3IZK0tKCScDH+hRFkYCiKJKCxxh8bKOQq66l/aR/5yK6AuN3qCljZ3G9IvVaeas+Nm6ExWIbCc0AADaHq//g1cpWd1UvxMzCUr/QwsrGwkp3aMlksZgslpFL9BaMx2XEi4SVldXXX3+dlJSUkZHRETs4WZ55KaO2tQfgfIG7/nM8xPPHpJmNDvjYsa9w4pzFQvS1jEC0GSsrKysrq46vzLG25wdGRreaX8HM3MLant/BayE6jinRuSM+5ru4Tf7HUhMuikAgOgjX3AJlJetFmBKdkY8RCASiqzFlvTMCgUAguhoUnREIBKInglLnIBAvJgKp4WSziN5C69EZ+RiB6F4ePHgwfvx4qVSqVqtdXFzWr18/f/58403u3Lmzdm37tCkQz58vvvjC9PXOyMe9GuO+R/QWgoKCKioqursXiOcNmndGIBCIngiKzgjES4Ss5BNZ0UIClxtP4YDoCZgYnZGPEYhehyx/FIe4xmY+UN33bqwrxNuQytkIn3766Z49e1JTU6dMmdLetnw+//HjxwCA3NxcDMN27dpFn+rTp8/AgQOtra15PB6DwbC2tra2tl6+fDk8O23aNLlcDo/r6uqmT59ON8zKynrrrbemTZt25coVAMDRo0d3797dkTfY7ZgSnZGPEYheh7JqtxnfD5ibYZwBZmxLaeFHTU1NHR9djRkzZt++fR2xYGVltXbt2pqaGrrk9OnTTU1Nt2/fdnBwaGpqampq+v777wEAycnJISEhFhYWAIBDhw7Fx8dnZWXBJrW1tbNnz/7HP/6xbNmyOXPmlJeXT58+PSEhoampqSN9617aHZ2RjxGI3gjGMKfIRiYTMGU3AI4rZE0SiYT833yhGzZs6NevX2ho6KFDf6dQ37RpU79+/aKjo+kxyjfffOPj4xMTE1NQUAAAuHPnzoYNGwAA3377rY+Pz8SJE1euXHnmzBmDbQ3i5OQ0b948euRkhM2bN8+cORMeV1dXh4SE0KeSk5ODg4NjY2OHDh06evToa9eusVis2NjYI0eOtP0j6mm0OzojHyMQvRFunzmy6lJSJaOkzc3K5gd1b+ukVSooKDh27FhOTo5IJPryyy8VCkVBQcHhw4fT0tIuXrx4+PDhnJycO3fuHDp0KCUlZcuWLZcvXwYASCSSwsLCvLy8EydO3LhxY/369QkJCTU1NfptjfRt7dq1mZmZ0GBLUBT16NEjT09P+HL58uWLFy+mz+bn5wcEBMBjb2/vv/76CwDg5+d39uxZEz6rHkK7ozPyMQLx/Fm3bh3WZtatW2fYiuU7GJOrkNY/rB7s7OJvY2PDYPx/BDh16tT06dN5PJ5AILh69SqDwUhOTo6Pj/fy8uJwONOnT//1119FIlF8fLyPj09ISMjYsf8vJ3Ty5Mk5c+bY2dkNHDgwNjYWAKDf1si7Mzc3//HHHxctWqRWq1uqU1paam9vz2QyDZ5tbm52cvo7I7GdnZ1MJgMA+Pr6FhYWGrluD8ekp4LIxwhEL4TD4QAMEIAl4Sxyd3fXyUpaVFRka/u3DIW1tTWLxSorK+vTpw8swXGcJMnKykq6xNr6/wWicnNzzc3N4bG9vT0AQL+t8b5NmDAhJCQEzj0apKamhsVqcX9GeHh4WVkZPK6trQ0KCgIAcLlcHo/XUpOejynRGfkYgXgOkCSZmpo6d+5cog1af20B3qcMSmFna2llZaVzI8TFxZ09e5YgCJlMFhYWplAo4uLiRCIRQRBKpTI1NXXixIlTpkwRiUQ4jiuVyrS0NLptcHCwSCQiSbKpqencuXPQmk7bVru3devWHTt2SKVSg2e9vLyKi4tbWoMQGRl5/vx5giAkEklycnJERAQAoLCwEN7CvRRTojPyMQLRpUil0p9++snf3/+zzz4bPXo0RVHr1q2j2kyLMxsAAAAojEEZ2iQcExOjUqkCAgKGDBmybNkyS0vL0aNHSyQSf39/Pz8/Ho8XFRUVExMjkUj8/PzCwsL8/PzotgsXLnR2dg4LC4uJiXFxceFwOPptW33Xzs7Oa9asUSgUBs/a29v7+vqWlJQYPBsaGjp48OCgoCA/P7/x48fDO/fJkye9+85t1c36hYqq/fizEZJ0q8zMzMbGRp2zarV67NixPj4+QUFBu3btgiWjRo3y9vZ2d3efMmUKjuNqtTo6Orp///5+fn4TJ07cvXu3SCSaPHmyXC5/7733goODBw4cOGTIkF9++UW/rfa1HB0dc3Nz4VSyl5cXXb5z504AQEVFBTzl6Oio3So4OLigoIB++eTJE4FAAI9JkvznP//p7+/v7Oy8YsUKWLhhw4atW7ca/6B6Ju26pRE9gZycnAULFtjZ2c2ZM+f27dsm22nJ9c053qUZI+/evdvc3GywQmVlpc5dVlRUBG8lCEmSBQUFcrlcu05paWlubq5Go6Eoaty4cX/99ZfBth3khx9+2Lhxo5EKVVVVdXV19MuYmJiamprOunpXYPwONSU6U8jHvQQUnXsLJEmeOnUqNjaWz+evXbu2srKygwZbcn1jY2NhYWFFRYVKpergJbR5+vSpl5fXhg0bRo8eHR0drVarO9E4DRz5tbHnFy9e/Pbbb7uiG52I8TvUxAyihOAWblbnbG7O4XAMVnB2dtYp8fDw0H6JYZiXl5dOHSaTGRcXN2/evLS0NI1GExgYaLBtB3nvvfdeffXVpUuXttR5+sEgAODSpUtjx47l85HMGqILycjI+Pjjj5csWXLixAntJzGdjo2NjY2NrhRyxxEIBOnp6ZcvX16xYsXIkSPZbHanXwIAwGaz9+3bp1KpWrpztXFzcxs6dGhXdOO5YWJ0Rj5GIDpIfX09fPQNAIiOjs7Pz9de+9TrcHZ2prcRdB1CobCNNfv379+lPXkO9Li/BujjCRMm0Is3ugKhUGhlZdWWmv379+dyuV3XE8RLSG5u7oIFC/r37//kyRNYgmFYrw7NiK4A/UEgEM8JgiCOHTsWHR39yiuvBAYGlpaW6k/uIRA0SLkKgehyZDLZ3r17f/jhBw8Pj5UrV7766qtopIxoFRSdEYguRCqVbtmyJSEhISoqat++fSNGjOjuHiF6DSg6IxBdCJvNVqvVGRkZnbvuCPEygH5eIRCdCVy5TG9p43K5X331FQrNCBNA0RmB6Byam5u3b9/u6+u7bds2iUTS3d1B9HpQdEYgOkpOTs7cuXP79etXWFh45syZCxcuaCcNRzxPxGJxVVVVV1huampSqVSmtYV7j9vbCkVnw7xIPkZ0ERRFnT59Ojo6esKECREREUVFRdu2bevhi+Tqm5r2nzlT29Cg0Wg61/KhQ4c+/PBDExquWLHinXfeoV/evXvX2tqazoUkFos5HM7nn38OXyqVSgzDHBwcHBwcHB0d/fz8fv75Z3iquLg4KipqyJAh48ePHzlyZGpqKgCgqKhIZ9+clZUVPe/UduMAgH/84x90skDjcnf6JefOnduzZ0+7PxrTtoHXSST7UlNr6us7fUN9YmLikiVLTGj4ySefvP322/TLO3fuWFlZ0Xk8amtr2Wz26tWr4Uvoe3t7e3t7ewcHB19f371798JTRUVFgwcP9vLyCg4OHjFihEgkoiiqsLDQ2tpa+3KWlpbFxcXtNU5R1NSpU2UyGTwWi8XTpk2jT127du3NN9+cOnXq5cuXDZb88ssvCQkJbf9MUJ6NroMkyWHDhvn6+u7cuZN2aM/BoOvFjY2Hr17N0Gi+F4kKSko6N9WGyXdudna2ra0t3ZlPP/1U+0bevn37sGHD+vXrR5Ik9d+bi76vz5w5g2FYfX09juN+fn5btmyB5Tdv3nRxcZHJZMbv3DYapygqKSlp/fr19DuNiYmhU6fV1NR4enqeP38+MzPT1dW1rKxMv0Sj0YSHh0skEp333vlZkJCPqR7m45ZA0blLefDgAUEQ3d0Lw+i7XtzYeOTq1VskeZEkj2s0n50+nVdcrH3zXr169f3334+Pj3d1dZ0xY4ZSqaQoauPGje7u7sOGDYPDgqtXr7777rvTp0/39PT86quvli9f7urq+sorrzQ1NSUmJk6aNGnYsGF+fn4bN26ESdCysrKWLFkya9asdevWHTlyJCAgwNfXVz8HWVBQEBwGURTl7e2dlpZGn4qIiLh+/bqnp2d6ejqld3MpFAoLC4vi4uKUlJSAgAB4A0Lgs1njd24bjVMUBbfaw/Lvvvtu2bJl9J27e/fu1157DR7PnTv3119/1S+hKGrFihU//fRTq27Spt0zG3USyZ/37/tGR6uZzH7jxu1/8KCkokJbiyQ9Pf2DDz6YOXOmm5tbfHw8/BWvow2Ynp4+f/78GTNm9O/ff8OGDZ988ombm9vEiRObm5sBAMXFxdHR0f7+/ps2bYI/Ja5fv/7hhx/Onj37iy+++OWXXwIDA/38/DZt2qTdseDgYFdXVzpb9PHjx+fMmUOfPXjw4ObNmxkMRmZmpv6bGjVqlLm5uUQiOXv2LIPBWLp0KSyPjIzctWtXbW2t8c+kjcZBOyUNkchhj+LevXvvvPPO5s2b6ZIBAwb0lk0ldRLJ2fv3faKj5QBIAWhiMq3Hj/9PTk6x1s3b3Nx84MCBlStX3rlzJy8vLyMjQ183rrm5ed++fcuXLz937tyaNWvMzMzy8/M1Gg2Udrt8+fKPP/544cKFpKSk9PR0AIBMJtu5c+fo0aPnzZu3Zs2akydPnjx58tixY0lJSdrdmz179rFjxwAA9+/fl8lko0ePhuU5OTlNTU2DBw+Oj4/X/rP/448/jh07dvjw4XfeeSc2NrZfv365ubmhoaHaMiBxcXHu7u4AALlcPkULes6k7capdsrddZYAXvvWO0Mf++r4+Ny5pQB4uLjApELQx+np6UKhcOzYsRkZGW5ubtDHbm5usbGxw4YNgz6+fv26g4ODj4/PZ599lp+fD9P2AwAuX76ckZHB5/OnTp06aNCgUaNGQR/v2rVr7NixY8aMgdn9Z8+e7e3t/frrr9Pdgz6eOHGicR9HR0fTbuBwOCqVKiUlBbrh+PHj+j4GABQVFUEf0+Ut+diIcX0fFxYW/vbbb/ClvkcJgtApiY+P9/PzS05OXrRoUbschzAZjUZz9OjR7du3S6XSZcuWvfnmm93dI1NIysjwHz++GYBmAOoAqKGoZgA4QUG/3bixaNQoOgXjiBEjwsLCAABRUVHFxcV3796FunEAAKgbN2TIkIiIiEGDBgEA7O3t58+fb2ZmFhQUVF5ezufzx40bBwccs2bNOn369KhRowAAAwcOfPfdd/ft2+fh4ZGRkQEA8Pb2vnjxovad+9Zbb4WEhGg0muPHj7/11lv0d97BgwdDQkLOnTvH5/MTEhK2bdsGyzMzM1ksllqtzs7OHj58OACAy+VCnTl9OByO9oT4+fPn22u8Vbk7+j61s7Orrq7WaDQ6JcAkAbz2RWfkY/plL/IxwjTEYvGOHTsSEhIGDBiwdu3aXr39+vVhww5duOAaE9PEZNZQVBOOy6qrwcWL0W5u2lokFhYW8IDJZFIUVVZWFhwcDEto3Tg4IAUAYBim88CNFpnjcDj0EMfR0REAUF5ezuVy4Th91KhRPj4+2g2FQmFISEhaWtrx48ePHj0KCwmCOHLkyNixY+GwmsfjnT17dty4cQCAzZs3wyxpjx8/DgoK2rZtm6+v7+rVqzUaDZ3YcsqUKR999FG/fv1YLFZMTAx9LXgDtst4q3J3+fn58JiWu9MvMUEAr31/ba8PG3brwoV6goChuQnHpVVV4OLFaAcH4z7W1wbsoI+hZsrUqVO1G2r7ePbs2bAQuoHH4x07duzRo0fQDfDU5s2bt2/fvmvXrqSkpP379ysUCl9f34sXL2o/zp4yZcrFixcBANDHNNo+bqPx9koaIpHD7uLBgwdz58719vaurKw8c+bM+fPn4+Liem9oBgDYWFrG+fv/9eefNTjeTBCy6moiLW0cn+/g4GAkWWN7deOuXLmiUqlwHBeJRDqV33jjjaampvnz5y9YsKC0tBQONbSZPXv2+vXrmUwmPd13/vx5gUBw4MCBPXv27NmzZ/HixYcPH9Zp5efnx+FwGhsbR40a5e7uDkWRAADnzp3Lz8+nfz3r0y7j7ZW76ywBvPb9wSEf69ArfIxoL9u2bevbt292dnZCQkJoaGh3d6cTYLFYrs7OcwMDS86da66spC5cmNCnj1AodHV1NZLsv73agPb29lFRUf7+/iqVCv5epAkKCho4cGB4ePiAAQOys7MnT56s03bq1Kn37t2jB1UAgIMHD86aNYt+OX369JSUlKamJv2L3rhxg8PhHD16dO/evZ6ensHBwUuWLDlw4ID2FKUO7TLeXknDThM5NPLE0OAjRZVKlVdcvDAl5cPS0g/3709JSbl3715dXR2tUyUSiaZOnQqPFy9evHv3bn1tQO06fD6/oaGBoqiPP/548+bNiYmJw4YNCw0N9fLyGj9+PFyxl5aWNmnSJFj/448/DgkJCQwMfPXVV3WEryiKamxsNDMz01asmTlzprYq4JMnT8zNzWFY124uFAqTkpIoinrw4EFQUJCHh0dQUJCPj8/169epllfUtdd4uyQNOy5yiNZstBEcx8vKyrq7F52JQderVKrHxcVfHT9+4cKF7Oxs7dvWCO3SjVOpVE+fPm3prEQiKSoqaqMp0ygtLS0tLe10s+2Vu9MvMSiA1/kr6pCPTaaLfNwSKDq3SmNj45YtWxcGIkMAABk3SURBVDw9PT/44IPu7ktn0pLrVSpVTU1NWVkZXD/6nHvVe2mXpKE+LYkcdr6uIIfD8XBxWcDjKZVKS0tLa2vrlp50adOuRDAcDkcgELR01trauku11wAAbm5uXWG2XZKG+iVI5LATefDgwXfffScSiWbPnn3+/Hl6Lc2LDYfDQX8/JtAuuTt9TBPAMzGDKPKxaXSLjxHaEATxxx9/bNu2rby8fNmyZTt27Ojqb3rEi0HbJQ31MU3kEOV3ft48fx8jaFJSUlavXk0QxNKlS2fPnm1mZtbdPUIgWgRFZ8RLBI/H27Rp07hx44w8zUcgeggoOiNeZG7fvn3x4sUVK1bAl0YWR75gREREpKSkdHcvEK0AF9u1BIrOiBcQgiCSkpK2bdtWWloKF2O8hINle3v77u4CohXq6+uNnEXRGfFCUVFRsX379oMHDw4cOHDt2rVjxozp1Xv8EC8z6A8X8YJw//79uXPnBgYGNjQ0nD179vTp07GxsSg0I3ov6G8X8SKQlJQUGxsrFAofPnyYkJCAhKP0sbOzGzp0KMxXYxxXV9ehQ4eiL7ZuB81sIHorBEHQ26AmTJhQUlJCp99CdISXcI6+s8jLy8MwzNvbu1M+wxczOkskkurq6v79+7dlEyOi11FVVfXjjz/u37//wYMHdnZ2AACY8hHRFqysrDw9PcViMZ/PJwji6dOnDQ0NAACBQODs7KzRaJRKJawpFAqdnJwoihKLxTBdopOTk7Ozc0lJiVqt9vHxEYvFz549068mFAodHR0xDGtoaGgpedALiUKhyM7Ovn//flhYmKenZwdjtIk/XrpOOzI1NVU7yb1BysvLaXFGZ2fnWbNmNTY2wlOVlZXDhw8PDAycNWuWk5PT6tWrYcLSmpoanU+Kx+OlpqayWCwXF5e+ffs6ODi8+eabMLlzbm6us7OzdmWJRIJhGFcLneSliOdDZmZmXFxcUFAQk8m8efMmDM2IdsFkMnk8npOTU01NDZfLhUkLzM3N3d3dVSpVQ0ODg4MDAIDH47m5uYnF4pqaGqFQ2LdvXwBAbW0tk8n09PT08PBgs9nV1dX61aytrd3c3CoqKioqKpycnGxtbbv5DT93ZDJZRkZGampqTU1NR+yYEp3rJJIz2dk+Y8cmZmWV/q9sVccZM2bMvn37Wq1mYWFRV1dXV1dXUFBgbW1NJyR85ZVXxowZU15efuvWrYcPH546dWrHjh1G7Hh4eFRUVFRWVpaWll67du3EiRMt1WSxWCotjNREdDo4jicmJg4cOHDBggVxcXHFxcXr1q1zcXHp7n71YkpKSioqKurq6ng8HoZh8HsuLy+vvLwcjnUcHBxIkoSDG4Ig4Po8kiRhIkZbW9vCwkIcxx0dHXWqwWGQUCjk8Xg5OTn0yOllQywWnz179sqVK1Kp1DQLna8rKBKJPv7440mTJgUFBW3ZsoUkSW1VQACAvjDghg0b+vXrFxoaeujQoTt37mzYsAGW66gRGsTKymr9+vUZGRl3796F2ZPXrVsH/z6cnZ0XLVrUxjX5lpaWQqEQbe3tacjl8oSEhKCgoN27d69atSo7O3vBggWWlpbd3a9eD1TspCgKvuRwOBRFwUI4s2Fubg7XiTMYjMrKSrFYTDeErWBE1q8mkUgePXokk8kcHR2Dg4NpMY2XEIqiSkpKRCKRfubottD5uoL19fUHDhy4ffu2QCCYOHFiZGSkWq2GqoAzZsyor69fs2aNtjDggAEDjh07Br9jR48evWnTJqjMRCtO0mqEgYGBBnvF5/MDAwMfP37c2Ng4aNAg7RmM1157bdmyZXK5vKV3VF1d/e6771IUVVhYqFAo9JOC0xAEoS31OH/+/PDw8HZ9eggTqKury8zMPHTo0MCBA7u7Ly8y9fX1Li4uQqFQIpHAYbJUKrWzs5PJZEql0tXVFYZs+MgLynV7eXndu3dPKpXa29trV3NycnJxccnPzy8qKoqIiHiZH9ViGObn5xcSEsLlck1o3iW6gmPGjIH5eubMmZOcnDxx4kSoCggA0BcGLCoqmj59Oo/H4/F4V69evXHjBjSSnJyso0b45ZdfttQxOHGcl5enLaAFAFAoFGq1GsMwgznh2Gy2lZXVW2+9BQAQi8WrV6/evXu3tnigNgwGAyocQlCKvq7jxo0bAwYMgAJdrq6uiYmJ3d2jF5+mpqaGhgahUOji4iKRSLhcbmVlJYfD8fLyYjKZUqkUTlC4urpaWFjk5uaSJBkYGOju7l5SUsLlcrWrkSTJ5/ODg4MxDJNKpVVVVd395roHgUAQGRmpI8vXLtoXnduoHUk/q4EPGcB/VQGBIfHHY8eO0dqm2qmiDSpOGkShUNy4cWPgwIENDQ0//PCD9kKr8+fPe3l5mZubm5ub8/n8srIy+AyksbGRyWQ6OjpaWFjQipAcDufrr79uKTpjGDZjxox2fVyIdoHj+IkTJ7Zu3SqVSn/77Tf6rwLRKTQ0NFy7dg0e0wclJSX0morc3FwOh6N9rxUWFhYXF7PZbJVKBUvKysporUvaiH61hw8fMplMBoPR6asGegW2traRkZEdfy7SJbqCmZmZarWaJEmRSKTz819fGDAuLg5OdMhksrCwMNrBbVQjVCgUCxYsmDBhgoODw+uvv25pabl9+3Z4SiwW//TTTytXroQvw8PDadG/gwcPhoaGas+B1NbWpqSkoF0M3cLTp09XrVrl5uYmEol27Njx4MEDFJq7BXjbapeQJEnfkkbQr0YQxEsYmjkcTkRERFxcXKc8sm5fdG6jdiSHwxk2bFhwcDBBEAsWLNC2oC/+GBMTo1KpAgIChgwZsmzZMnrhqnHFSblczufz+Xx+QECAmZnZ/v37AQBcLvfPP/88ePCgu7t7VFRUQEDAu+++C2dUAAB79uz55ZdfoBTjTz/9BJsUFRVBO4GBgWKx+KuvvoKVa2pqrP8LVHfHcdxai7Fjx7bro0MY5Pr16zNmzICZujIyMhITE41n7UIgejIBAQEDBgzorG2W7d6NwuFw+rm4LAXg+K1bQ9zcHB0dhUKhjY2N9r6PqKio7du3NzQ0wFXDMTEx9OwBAGDLli1NTU11dXW0ltW5c+eqqqr4fD40AofJbDb70qVLxcXFZmZmcK0ljaurK/2sWQd/f/979+5VVVXV19f7+vpq98rV1fXhw4eVlZUkSdKyWPAhtb4R/YmUlq6IMA2FQvH6669nZ2cvXLhwx44dL/OTfQTCIF2lK8jlcnU2dGijLwzYUuV2qRFqW2vJoE6gR3QX5ubmixcvHj9+vGmPsxGIFx4TR+BQV9DV1dXOzk4nNI8ZM+aDDz7ojL4hngdwgXlpaSkAgCCIEydO3L17tysuVF5evnLlytTUVLpk8uTJKDQjEC3R+WmoBAJBUFBQp5tFdAXPnj0bMWLEvn37IiIiysvLP/nkk6tXr3700Ud79+7txKtkZWXFx8eHhIQoFAp/f/9OtIxAvMC8mFmQEG3k5MmTK1euXLNmzdSpU2NjY+Pj49evX19dXT1jxoz58+d30LhcLt+zZ8/OnTtZLNaKFSsOHjyItmI+T4zrbiB6Pig6v9Tcvn179uzZAICEhIS+ffvCZ6SWlpYd3EFQXl4Oc8gNGjRo79690dHRndNdRJshSKrWyovA0A3ec2FSOL/5iZEKyHkvNbGxsampqaNHj/7++++//PLLNWvWODs7V1RUjB8/viNmZ86c6e3tffbs2bCwsM7qKqJdEBTFJpQECyUk6bmwCSVpdCUYis4vNZMnTz579qyHh8f8+fNXrVpla2u7bNkyGxuby5cvt9eUQqGg16pfvXoVZdbuXhxsbUi5RImicw+Gp2m0tzW2zxuJ07zUWFpaJiYmFhQUfP755wCAhQsXVlZWlpWV+fr6ttGCRqP55ZdfBg0a9O9//5suRKG524mMjGRrmtmEsrs7gjAMh1CwNNLBgwcbqYPGzgjAZrPp47YnbYGTy4mJibGxsTt37kR7/HoUFhYWTn34lLi8ludBotnnHgaDwu3k5S7OTsafk6OxM6LdZGVlzZgxA6b0vHbtGtp+3TOJiooy57D5shI22XqiDMRzg00q+dJiCzPuoEGDjNdEX6qIdpCWlrZx48ZHjx69//77O3fuhBJHiB7L+HFjb968CaqKcY6VnGWtZpqjVRzdBZPCOYTCXCNha6SCvs6RkZGtNjHRVZL6uvSTScMmTbG0tdX+XWwCn376qaenp0AgSEhIOHnypMl2Jk+eLJPJLly4oFN+6NChW7du0YnrtElNTe3IRWUyWWJi4qJFi4xX4/P56enpFEUFBATs3Llz4cKFsLxPnz7Z2dlvvPFGTk4OQRAKhQJKfixYsOD7778HAEybNi0xMRFqdC1cuPDYsWOwYVZW1g8//KBWq5csWTJy5EgAwNGjR5ubm3USTnUFxcXFc+bMmTlzpsF82YgeyKBBg+Ry+fXrN5jNTzEMY2CAgSS3nzskRZEUoCjK1tp6yOixbV34Txll3bp1+oUNYvGFIwekmZeSNn9bXJCvUqmMGzHOqlWrdu/erVAoxGKxyUZkMpmZmZnBU4mJiUuWLDF4qoMXraysdHNza7Wao6Njbm7uo0ePrKys+vTpU11dDcv5fH5FRQU8fvTokaOjo3arpKSk9evXw/7HxMQIBAJYXlNT4+npef78+czMTFdX17KyMoqiNBpNeHi4RCLRubRB97WL4uLi5OTkDhpBIBAm0O5558a6urt/pg719WFoVKM9hHcO7K4oKdYRftXWCYQl+gqB33zzjY+PT0xMTEFBAfhvtgcAwLfffuvj4zNx4sSVK1eeOXPGYFt93n77bRzHoU729u3bw8LCwsPD6XSgxcXF0dHR/v7+mzZtIgiC1jl8//33aQ1DnT7rG0lPT//ggw9mzpzp5uYWHx+vUqneeeedqqqqOXPmAENiifo4OTnNmzdv+fLlbfmcN2/ePHPmTABAdXW1dtbp5OTk4ODg2NjYoUOHjh49GmZAZ7FYsbGxR44caYvlNpKenj5t2rTw8PA7d+50olkEAtFWjAdvncFXg7j2wpEDitvX5Olp0pRjkgM/1n635vfF84oe59Ij6Pz8/JCQEKlU+vTpU29vb7lcnp+fHxQUVFBQoFKphg8f/vDhw9u3b/v7++fl5d27d8/BwWH37t0ikWjy5MmPHz8eOHBgfX39rVu3bGxsDhw4oN/WYD+bm5udnJwoihKLxaNGjWpoaFCr1X5+fgUFBYmJiZaWlvfu3Xv27FlUVNSlS5fS0tJYLNbevXuPHz8+efJk/T4/ffpUxwhFUSKRiMfj3b17t6amJiQkJC0tjR4719XV9e/fv6CgAPb/jz/+0O4bPXb28vKSy+Wenp6XLl2ijI6dSZK0t7fHcRy+fPLkCT12Xr58+WeffQaPv/zyy5UrV8Ljffv2wfei4762/yWsXbuWoiiZTLZ161Zvb++goKCDBw9CBTkEAvH8ad/Y+WryH4P7uVPSJrKxnqirJWqryGaJH5dx7fejEokE1jl16hTUCRQIBFevXmUwGLRCIIfDgQqBIpEoPj7ex8cnJCREO439yZMn58yZY2dnN3DgwNjYWKClLki3Nd5DBweHpKQkkUj01VdfVVVVVVRUAADGjRsXEhLi4uIya9as06dPAwCgziG9e0Knz46OjvpGAAAjRowICwvj8/lRUVHFxcX0RZOTk6FYYlZWFhRLbKl75ubmP/7446JFi3R+behQWlpqb29vcNUw/B6Cx1CUEx77+vpCtVyTkUgkH330kaura2Zm5r59++7fvz937lyUQw6B6C7aF51HvPbGpVu31fVioq6WqKlUN0lqpLIsgt132EhaV7CoqMjW1hYeW1tbs1issrIyOrc6VC2rrKykS7QTPefm5tIREwoD67c13sOcnJyQkJDy8vIhQ4bQsoS0BQ6HA9WqaJ1Dg32GQ2kdIwAAWl2YyWRSWlswabFEtVo9atQoOMHSEhMmTAgJCYHP/VqipqaGxTL8wDY8PJwWdqutraXTAXK5XCiTajI7duyQSqWXLl36/fffUWYMBKLbaV90trSxDZr02oW799W11ZrmplqZPBNnCcZN0tYV1NEJVCgU+gqBU6ZMEYlEOI4rlcq0tDTafnBwsEgkIkmyqanp3LlzoM3qgjSpqamTJ09etWpVVFRUfn4+LLxy5YpKpcJxXCQSGbSg0+dTp07pGzEITBukL5ZovJNbt26FobClCl5eXsXFxTiO65+KjIw8f/48QRASiSQ5OZleaFxYWGgwcWvbf0ZpNJqff/5Z+9sIgUB0I+3WFezr6hY+5x+Xisurm6XXcJZw3CQdXUEdnUBLS0t9hcCYmBiJROLn5xcWFubn50fbX7hwobOzc1hYWExMjIuLC4fDMa4uqM8bb7xx9uzZuLi4GTNmjBo1avPmzQAAe3v7qKgof39/OHmt30qnzzNnztQ3oo+Tk5O1tfW8efP0xRKNd9LZ2XnNmjXaKuY62Nvb+/r60mLJ2oSGhg4ePBiqI44fP56Ozk+ePEFptRGIFwmMMpok6Ysvvli7dq1OoVqtflZcdOP4b32GDDeoKwgA0NYJhOgoBFIUVVhYKBAI6KkMAEBZWZlcLvfy8mKxWOPHj9+4cWNoaKhO20ePHun0x9vbW3vNNUEQFRUVrq6uAIC6ujq4Y0KtVtfW1tJyggbR7rNBI/pQFCWTyeA6ZR2xxA6yY8cOuVy+YsUKg2erq6vZbDac/IHExsYePXqUz+drVzPoPgQC0SswUVdQ4OEZs2CxEV1BfVk/nbCFYZiXl5dOHSaTGRcXN2/evLS0NI1GExgYqN/21q1bOq3c3d21ozOTyYRRFQBAR1UOh2M8NOv02aARfTAMg6EZGBJL7Ajvvffeq6++unTpUoP7PugHg5BLly6NHTtWJzQjEIhejYl7BaGuYOd2BQAgEAjS09MvX768YsWKkSNHGtyF+Pbbb3f6dXsgbDZ73759KpWqLbvy3Nzchg4d+hx6hUAgnhs9btO9s7Mz3IWBEAqFbazZv3//Lu0JAoF4/qAcdQgEAtETQdEZgUAgeiKtrNlISUl5bl1BdAWTJk3q7i4gEAhTaH3eWXvZFqJ3UV9f391dQCAQJoJmNhAIBKIngqIzAoFA9ETaHZ3t7OyGDh2qk0XIIK6urkOHDmUw0BcAAoFAtJsuDJ0YEsjpbPLy8vLz840/yEUgEC8Gpu9GsbKy8vT0FIvFfD6fIIinT582NDQAAAQCgbOzs0ajUSqVsKZQKKRT48Psl05OTs7OziUlJWq12sfHRywWP3v2TL+aUCh0dHTEMKyhocFgSqCXDYVCkZ2dff/+/bCwME9PT/T9h0C8wJg+dmYymTwez8nJqaamhsvlurm5AQDMzc3d3d1VKlVDQwNMT8Hj8dzc3MRicU1NjVAohJmMamtrmUymp6enh4cHm82urq7Wr2Ztbe3m5lZRUVFRUeHk5ETnX0bIZLKMjIzU1NSampru7gsCgegqOjqzUVJSUlFRUVdXx+PxMAyzs7MDAOTl5ZWXlzc2NgIAHBwcSJKEWfMJgoDr80iSfPLkibm5ua2tbWFhIY7jjo6OOtXgwFAoFPJ4vJycHGgNQSMWi8+ePXvlyhUjeaIRCETvpaPRGaafp2dCORwORVGwEM5smJubUxSFYRiDwaisrBSLxXRD2ApGZP1qEonk0aNHMpnM0dExODiY1jdB0FAUVVJSIhKJmpqaursvCASik+nkp4L19fUYhsGMz3CYLJVKmUymTCarq6uzsLCAERnDMG9vb6VSCbM5M5lM/WpOTk4eHh5Pnz7966+/SJKkVaMQNBiG+fv7v/baa52YuRSBQPQQOjlHXVNTU0NDg1AodHFxkUgkXC63srKSw+HQIRhOULi6ulpYWOTm5pIkGRgY6O7uXlJSwuVytauRJMnn84ODgzEMk0qlVVVVndvV3o5AIIiMjLSxsenujiAQiC6h9TwbJuzk5nA4OgqtDAaDzWarVCrjDfWrMZlMBoOh0Wja24cXknv37mVnZ9va2kZGRrq4uLRav76+HuXZQCB6KV2S31mtVuuUkCTZamg2WI0gCDiLjQAAcDiciIiIgIAAtMcHgXjh6XHZ9xFGCAgI6O4uIBCI5wQagiEQCERPBEVnBAKB6Img6IxAIBA9ERSdEQgEoifS+lNBpK+BQCAQz59WojNBUrVWXgSGlnb0PpgUzm9+0t29QCAQJtLKzAZBUWxC+Xy6guhc2ISSRJmgEYheSyvR2cHWhqeRPJ+uIDoXnqbR3hbt80YgeiutROfIyEi2phkNn3sdHELB0kgHDx7c3R1BIBAm0kp0trCwcOrDt1eUMyj8+XQI0XEYFG4nL3dxdjIzM+vuviAQCBNpfUVdVFSUOYfNl5WwydYTZSC6HTap5EuLLcy4gwYN6u6+IBAI02klRx3NzZs3K6qqcY6VnGWtZpqjVRw9DSaFcwiFuUbC1kgFfZ0jIyO7u0cIBKJDtDU6AwDkcvn16zckzc0YhjEwwECSoz0GkqJIClAUZWttPWRIFJrQQCBeANoRnREIBALx3EA7uREIBKIngqIzAoFA9ERQdEYgEIieCIrOCAQC0RNB0RmBQCB6Iig6IxAIRE8ERWcEAoHoiaDojEAgED2R/wN9l1q7IEMwVAAAAABJRU5ErkJggg==;" vertex="1" parent="1">
          <mxGeometry x="80" y="90" width="225.23" height="71" as="geometry" />
        </mxCell>
        <mxCell id="hAuHUI22cmVRYy7zVz07-10" value="" style="shape=image;verticalLabelPosition=bottom;labelBackgroundColor=default;verticalAlign=top;aspect=fixed;imageAspect=0;image=data:image/png,iVBORw0KGgoAAAANSUhEUgAAAd8AAAC+CAIAAAD7vZJEAAAABmJLR0QA/wD/AP+gvaeTAAAgAElEQVR4nO2deVwT19rHzyQQlkBYI0gQXABRBAREUHEFl1JRq1Vwu61Kfav33rq01VZ73W2tV32r1bYutSpae1urqIAouAIqrmBVVGSn7AECZM/MvH/MvfPmJiGBEEiQ5/uHn8mZc555kvg8nJw58/wwkiQRAAAAYGIwjO0AAAAAoAHIzgAAAKYIZGcAAABTBLIzAACAKQLZGQAAwBSB7AwAAGCKQHYGAAAwRSA7AwAAmCKQnQEAAEwRs7Z3FYlE2dnZDU3NDAxjYIiBYZ3nFtA1ECRJkIgkkYMdJzw8zNLS0tgeAYYHItfo6BdoWBuf5L53715FVbWCZSsy48iYVjjWjrQOmDJMUsHCxVZygbm8hdfbNTQ01NgeAYYEItdE0CPQ2pSdL19JE0vl9WwPOcPCEH4Cpog5IXEUlVlbsCZNjDK2L4BhgMg1QdoeaLrXne/cvSuWKWpt+sEX/GYjZ1jWsvuJpLJ79+4Z2xfAAEDkmiZtDzQd2VkkEtXU1NZbuRPwg6gHQGBmDdYelVXVEonE2L4AHQIi15RpY6DpWNm4efNmjZist+QpN/64Qa7z8o6urIjpxRxHroWVdRs9BkwEJ3E515oxduxYYzsC6A9ErumjM9B0/F3lNwpE7D4qjT5D7RkMhFF3fqncjiFE/vtfgiRJEtnYM5/dz/QLjeDyPDv2FoCuRmhux2wsN7YXQIeAyDV9dAaajuzMxDA500qlcc6HvaYNNkMIESTCCepfEieQgkQKHCkIUqZA11+KTu4pkQwJ7uAb0EJ5wYtt8dOmL1n11oJl7R0r4Nd+Nnv0mGlz567c2Bm+dWvkTCsMNl11czo1cjsvfC6fPuTSp//QiE6/L91lF9KCzkDTlZ0ZGI6prk1jJNksUpTWiOQ4yWQy7NjmlQ0SuYJ0srOqrBdL5aQXj4PLFR31vZMhSYIkCWN70UWIGqobSl5qPOXgOdDawUW5hcDMzBiQnbs3nR25nRQ+54/8b9CYSV2QNDvpQoYNtLbcMVAdT5AkTiKJnJDKcDMzpiXLTCwlpArSRk4IpYRMKm8Wi+UyWWvmnty+dvHYvqb62gFDQuat2mxj51CW//yXfVuGR8U8zb5VV1E2ae4HZmbml079wLKw/MuaL2VS6b++3TrqrXef3btVXvhyeOTUt9/7G4PB1G4TIZSR9K+biadELc39/YZOiov38PZ7fj8j8fAemVQ8Ztpc5eGUA38WvrR3domavThi6pw2fCzdCSuOU2HpS5lQoNLOYtv19h+p0ghSZm8KBo5cjeGjHnrFL/7QGLDq8Vhe8OLUng3jZsx/fOuyT1B46cunJEnkP3lw8ad9MYs+UumPIUxLlnDr56PRmaqSgoRd64dHxeQ9yKosfj109KQZH3x8fMda5QsZMPwNG2j6PMlN4DhOILmCkCpImVwhw0mpnJTKFFIFKZURMrlMIlXgCs33H/4sfPX9F8slwpZBIaP+uHN9/2cfIITEopaCp4/OfLdDJhFXlRae2v2P099ssmLbFL948q9vt4mFzUXPc37Zt0Uiammqr00+ceDWhV902qwuKzq1+x8YgxE0euKTrGvHvlwjl0m//8dfy17n2Tu7nP/xf+nhwmbB7pULSl4+DRgZKRY2n9z9RU5muh4fiymDMc3cAkapt7sFjGIw4Z5+T6EjkasxfDSHs6aAVY9HhJBEJCx6nvPL3i1P7lxnMpm93PsihKys2Y4uvdX7a88SrTkjEYsKnj76df92YZNAIhZePn3o9R8PlC9k2PA3bKDpk51xnKCWq3ACKYh/r1gpcCTHkYJuUeAax96+dIYkicXrd81duSls0vTiF08qil5Rp6JmL1q158SYaXEKuSx+4zeffvsLl+dZVVpInR351qwVu459ceQCQuj+1Ys6bRIEPufvXyzb9t3oqbG2Do61FaWvnzyQSyXzVm9eufv423/5Kz08O+28RNQy+6/rFq/ftWb/rwihm4kn9fhYTBwHz0HWjq7KLTbOPAfPQcbyB+h6OhK5GsNHSzirBKx6PNKWe7l7bj5xeez0+dELl2MYw91r0Kjo2a3115IltDgTNGbyx3tPLdv2PULo6d2byhcyePgbMND0mTcRCgVOmOMkwgmEYaScJBX//nbpA0QoNK9e8avKEUJf//X/fzvUVZZbsm0QQtRyhLWtHULIkdsbIWRpzZYIW6hu/QYFIoS4bh4OvXoL+DU6bQ4MHlHy4o8LP34jk4pZFlYkSeY9vI0Q8g4IRQgFjoo6e/CfVOfaP0sQQv39ghBCTq48jiO35s8SPT4WEwfDsD4hE16ln6b2UGIYxgsaC3f/ehQdiVyN4aMx9MwtLJFawDq68FTikR4SMDKS6+ahcrnW+mvJEhqd4ThyEUIe3oMRQmxbO4SQXPpfW4wNHv4GDDS9sjOukONIjiM5jpMkUiiQDEcKnJApCAVOKHBSjpN4K98xm+OAEFq154STqzvVwnF0Kn7xR2vXot9VyaunI6bMlErEAn6Nh7efTptp//oxO+38u8s/Hx0Tt+/TRSUvnzq6uCGE6qv/dPXoL6ivpYfb2DkihGrKi/t4DRILm5sb+J4D/8v+GwPb2c3O3bux7BVCyL6PD9vZzdgeAV1KRyJXY/hoDL2Cp4+RWsCm/6oaj7RlS00bq7X0V4fKEhqdqSh6jRDC1G6Q0nRG+Bsq0PRZ2VDIcTmBxDKFTCqVSGViiUQmlcpkUrFYIpNLFXKFHCfxVn4fDQwKQwhlJv9aV1l27KtPd/51jkKue4c8QujBteTsK4nHvvyUwHHf4BE6bUrFYoSQ58Ah+bn3Cp89RiQZOHICQijx8J47l8/9/v0OevjQiCgMw1ISDjy4nnJy1xckSQRGTNTjY+kW8IaOxRhMjMF0CxxjbF+ArqYjkasxfLSEs0rAqsejxqtgDIxfVV5VWtjG/sq0K7fQF+qk8DdIoOkzd1YocIUCt2DiJJNAGFLIZWYMHDFJhVxmxiAwcwZOIBLX/B0Pj5pWXVZ8+9KZ+1eTLKys53+81dqGo+1i/5k79/UNOL13s0QkHDAkeGJcvE6bI9+alZ12fveK+S7ufQcGhb94dAfHFRNmvXft9+PHd6yNeHs2/deY13/gnL998fv3O45sWYkQChn3VuS77+nxsXQLLGzseg0Mpg6M7QvQ1XQkch169VYPHy3hrBKwzQ18lXisqyxTv0r4pHfuX036/fsds5Z9ptJfZT3zv8Aw7c5oudBfvzrUGeFvkEDT8SR3UlLSnzYDVRqZUosJwS5CsUwikSsIEicZcgIpFLiCxHASwwmEMcyfPS26euF/wye/08dLw3I4SRI1f5Y6ufLMzMx1upj38PbeT97/y5ovh0+c3tJYb+/sorGbuk2SJBpqKh1d/uth1uZGPkmSHAdnleFymbT2zxI7p15sjr1Ol7o1CpkEIWTG0lZhltfycurUqV3lEWB4OilyNYaPSui1FrAa41EdXKFQyGUWVtZt7K9C23MLfSHUOeHf8UDTZ+5cVy9OuV2GUzeASZIkEEmSBEkdYyQiEUJikVSLBQxjuLj3be91zczMW0vNGm1iGEP9q7W1d9I43JxlQW2ZfOPR/t8FMEEqKipWrFhx586doKCgixcv6h7QCh2PXI3h01o4qwSsxnhUh2lmxjQza3v/Njqj5UKoc8K/44Gm18oGUZZ1PbNW151NLs9T43p/e3Hu7R69cLm7pr/kANATsLW1/fLLL8+dO5eZmdkRO10TuRCwhkKf7Mxx5PqFRuisoWFpZU1tZ+kgXDePaYtXdtwOAHRTbG1tbW1tO779sWsiFwLWUOiTnS2srKF+FQB0OyByuxegyQ0AAGCKQHYGAAAwRSA7AwAAmCK61515LZrLlQIAYMpA5HZ3dGTnhw8fbtwI6iE9js2bN8PTKKbDH3/8MXny5JaWFplM5ubmtmXLlvj4eO1DIHK7BdoDDWr7AoCp4+/vX1FRYWwvgK4G1p0BAABMET2zs7D4U2Hhh7hCpL1MBwAAJgVEbjdCn+wsfDWOhd82Z/4hfeLdyC9QtFIQto18/vnnhw8fTklJmT59envHcrncFy9eIITy8vIwDPvhhx/oU7169Ro2bBiHw2Gz2QwGg8PhcDicTz75hDr77rvvikQi6pjP58+ePZseeOfOnXnz5r377rs3b95ECJ0+ffrQoUMdeYMAYCJA5HYv2r3uLKk6ZMn1JcT5GOZlaV7HL1hBeic4ODh08DHTCRMmhIWFdcSCra3txo0bZ86c2atXL6rl4sWLvXv3zsvLGzNmTG3t/5fbT0xMDAwMtLa2RgglJCQcP36c+o+CEKqtrV2wYMHBgwetra3j4uKysrJmz54dFhYWFxfH4WitdAoApg1Ebrej3XNnjGFFEo1MJmIKs5FCIRY2CQQCgvgv7fTt27f37dt36NChCQkJVMvOnTv79u0bERFB/zX76quvfHx8IiMj8/PzEUIPHz7cvn07QmjHjh0+Pj7R0dFr1669dOmSxrEacXFxWbRoEf03Vgu7d++Oi4ujjqurqwMDA+lTiYmJAQEBUVFRI0eOHD9+/O3bt83MzKKiok6dOtX2jwgATBCI3G5Hu7OzRa+FwuoSQiokW5qbJc1/8N9T+dubn5//22+/PXv2LDk5eevWrWKxOD8//+TJk+np6deuXTt58uSzZ88ePnyYkJCQlJS0Z8+eGzduIIQEAkFBQcHLly9///337OzsLVu2HDx4sKamRn2sFt82btyYlZVFGWwNkiSfP3/ev39/6uUnn3yyfPly+uyrV68GDx5MHXt7ez9+/Bgh5Ovrm5qa2t4PCgBMCojcbodedwVt3seYFuKW+qfVYa5ug+zs7BiM/7dz4cKF2bNns9lsHo9369YtBoORmJgYGxvr5eXFYrFmz579yy+/JCcnx8bG+vj4BAYGTpz4/zox58+fX7hwoYODw7Bhw6KiohBC6mO1+GVlZXXgwIFly5bJZLLW+pSUlDg6OjKZTI1nm5ubXVz+XZHWwcFBKBQihAYOHFhQUNCeDwgADMymTZuwNrNp0ybNViByuxX6ZGcWi4UwhCMzAWuZp6enSm3DwsJCe/t/6wtwOBwzM7PS0lJ6RUmhUBAEUVlZSbcorwrl5eVZWVlRx46Ojggh9bHafZsyZUpgYOCuXbta61BTU2Nm1upqe3BwcGnpv7XZa2tr/f39EUIWFhZsNlv7dQGgU3n+/HnbO2/evFljO0Ru90Kf7Ex9owxS7GBvY2trq/KRxcTEpKam4jguFAqDgoLEYnFMTExycjKO4xKJJCUlJTo6evr06cnJyQqFQiKRpKen02MDAgKSk5MJgmhqarpy5QplTWWsTve++eab/fv3t7S0aDzr5eVVVFTU2t3q0NDQtLQ0HMcFAkFiYmJISAhCqKCggPqyAaDrIQhixYoVaWlpbR/S2lOCELndC/2fRiExBqlpy0dkZKRUKh08ePCIESNWr15tY2Mzfvx4gUAwaNAgX19fNpsdHh4eGRkpEAh8fX2DgoJ8fX3psR9++KGrq2tQUFBkZKSbmxuLxVIfq9MxV1fXDRs2iMVijWcdHR0HDhxYXFys8ezQoUPDwsL8/f19fX0nT55MfcevX7/u1t8x0K3h8/n5+fl//PEH2WZaXdlACEHkdiN0fs0a25ufeZdkjn306FFzc7PGDpWVlQqFQrmlsLCwoqKCfkkQRH5+vkgkUu5TUlKSl5cnl8tJkpw0adLjx481ju0g33777ddff62lQ1VVFZ/Pp19GRkbW1NQY6urdgta+d6C7AJFLdofI1R5oetbZwHn3FZZ8VysrFoulsYOrq6tKS79+/ZRfYhjm5eWl0ofJZMbExCxatCg9PV0ul/v5+Wkc20H+53/+5+233165cmVrztO3FxBC169fnzhxIpdrAAkuAGg71dXVyv8PDQVEbjdCz+xsZ2dnZ2dnWFcQQjweLyMj48aNG2vWrBk7dqy5uQ7Nc/0wNzc/evSoVCpt7TtWxsPDY+TIkZ3hBgC0xunTp1esWPH06VP6xpqhgMjtRphcjTpXV1d6w3nn4e7u3saeAwYM6FRPAEAZHMdXr1598eLFa9euGTw1dyoQuQbH5LIzAPRYBAJBbGysVCq9f/++k5OTsd0BjAxUEAUAk6CoqCgiIoLH412+fBlSM4AgOwOAKXD9+vWwsLD4+Pgff/yxLYuqQE8AVjYAwMh89913GzZsOHXq1OTJk43tC2BCQHYGAGNCkmROTk5aWlpQUJCxfQFMC8jOAGBMMAzr7kXigU4C1p0BwAjU1dXhOG5sLwCTxgjZuampqTPM1tXVVVVVdYblpqYmqVSq3k49M9oZVwTebHJyckJDQ69fv25sR95Auj4PtAX9coWe2bm+qemnS5dqGxrkcrnOzsrKY9OmTXvnnXfoU2vWrHn//ffpl48ePeJwOFQZlLq6OhaL9cUXX1CnJBIJhmFOTk5OTk7Ozs6+vr4//vgjdaqoqCg8PHzEiBGTJ08eO3ZsSkoKQqiwsFDlmShbW1u6hIqKce32Fy9eTE1zTp06NXHixLlz52ZlZSGErly5cvjw4bZ/aACAEEpISHjrrbcOHTpE1UHuYtoVue0iISHho48+0mOgliSAujYPaDGOlPIA0iVpqN6iZ67Qo0hHXWPjyVu3MuXyXcnJ+cXFUqlUuxGxWFxXV0eSpFAotLS0VD6Vm5trb29PW/j888/fe+896njfvn2jRo3q27cvQRCUEYQQXXvl0qVLGIbV19crFApfX989e/ZQ7ffu3XNzcxMKhQUFBRwOR/laNjY2RUVFGo1rsX/u3LktW7aQJJmfn+/h4XHlypWLFy96enqWl5fL5fLg4GCBQKD97XdHoApSZ4Dj+Nq1awcNGpSfn9/Z1zJI5LaLEydO/P3vf9djoJYkQHZtHmjNOEmSdB6g3mlkZCSPx6Ne1tTU9O/fPy0tLSsrq0+fPqWlpeotreUK7YHW7rkzXyC4/OTJwIgIGZPZd9Kkn/74o7iiQlnRICMj429/+1tcXJyHhwf14BOtPPbee+8pFIpZs2bRnQMCAvr06UMXij1z5szChQup4+PHj+/evZvBYFATVRXGjRtnZWUlEAhSU1MZDMbKlSup9tDQ0B9++EFZKVIj2o0r26elzH777beFCxdOnDhx6tSp4eHh165dewOEy4AuQygUzpkz58GDB1lZWepVhLoAPSIXqWkDZmRkxMfHz5kzZ8CAAdu3b//00089PDyio6Obm5vRfx6oGTRo0M6dO6lp5t27dz/66KMFCxZs3rz5559/9vPz8/X13blzp7JjWpIAMmoeoI2jdkoaGkrksH17NvgCQeqTJwMjIkQItSDUxGRyJk/+3ytXViLUz82N2kXf3Nx87NixjIwMd3f3iRMnZmZmSqVSSj/mp59+ysjI+P3335VtLliw4LfffouOjn7y5IlQKBw/fjxC6NmzZ01NTWFhYbGxsadOnYqIiKA6nz17lsViSaXSpKSkqKiovn37njlzZujQocoSDzExMQihwsJCkUikrOVO/1Zqzbi6fU9PT1rKzNXV9d69e1S3169fU1oVvr6+iYmJy5Yta9fHCPQ0SkpKpk+fPnbs2F9++UWLwEfnoV/kenh4UNqAHh4eUVFRo0aNam5uPnr06N27d52cnHx8fNatW/fq1SuqbD9C6MaNG5mZmVwud9asWcOHDx83bpxQKPz+++9/+OGHiRMnTpgwgaruv2DBAm9vb+UVTo1JABkpD6gbJ9UkDQsKCv71r39RL9UlDXEcV2mJjY3VI1e07z/KuczMQZMnNyPUjBAfoRqSbEaI5e//r+zsZePG0cX6xowZQ23eDA8PLyoqcnNz02Jz3rx5gYGBcrn8zJkz8+bNo4TOjh8/HhgYeOXKFS6Xe/Dgwb1791Kds7KyzMzMZDJZbm7u6NGjEUIWFhaUhpg6LBZLeSGMVpdQN04/naViX1nKbNasWXv27Jk3b55QKBQIBDY2Nqj7C5cBXUB2dvacOXPWr1+/dOlSY/mgX+Q+evSI0gZECFHagCNGjAgJCRk+fDhCyNHRMT4+3tLS0t/fv6ysjMvlTpo0iZpUzp8//+LFi+PGjUMIDRs2bMmSJUePHu3Xr19mZiZCyNvb+9q1a8rZWWMSQF2eB1ozrlPSkM7FDg4O1dXVcrlcpQXplSval53fGTUq4erVPpGRTUxmDUk2KRTC6mp07VqEh4eyooG1tTV1wGQySV13Kt3d3QMDA9PT08+cOXP69GmEEI7j1P233377DSHEZrNTU1MnTZqEENq9ezclX/bixQt/f/+9e/cOHDhw/fr1crmcLlo4ffr0FStW9O3b18zMLDIykr4Q9eFqND5t2jSqj4r9hQsX0jMdDofz5MmTW7dusVgs6jca6v7CZUAX8OjRowMHDkydOtWIPugXuaWlpQEBAVQLrQ3o6elJtWAYpnLDjS6qx2Kx6Gmss7MzQqisrMzCwoJaSBk3bpyPj4/yQPUkgIyRB1ozrlPS8NWrV9QxLWmo3qJHrmjfurOdjU3MoEGPL1+uUSiacVxYXY2np0/icp2cnGxtbdtlSpkFCxZs2bKFyWRSf3jT0tJ4PN6xY8cOHz58+PDh5cuXnzx5UmWIr68vi8VqbGwcN26cp6fn999/T7VfuXLl1atX9C8jddpinLbv7OxMS5ldvHhxyZIlY8eOHTJkSFpaGqXE092Fy4AuYNmyZcZNzUjfyG2vNuDNmzelUqlCoUhOTlbpPHPmzKampvj4+KVLl5aUlFDTSWVUkgAygTxAG2+vpKGhRA7bl53NzMz6uLr+xc+v+MqV5spK8urVKb16ubu79+nTR1mgt73MmjUrJydnwYIF1Mvjx4/Pnz+fPjt79uykpCT1XdKOjo7Z2dksFuv06dNHjhzp379/QEDA3//+92PHjikvP6nQRuOU/ZcvX9JSZlFRUfn5+bNmzQoICFi3bh0lIdHthcuAzkEkEnXSrlv90C9y26sN6OjoGB4ePmjQIKlUSq0J0Pj7+w8bNiw4OHjIkCG5ubn0r1UalSSATCMPUMbbK2loMJFD7ZtdNG74kEqlL4qKtp05c/Xq1dzcXD6fryJEZhRKSkpKSkoMblZFyqy8vFwsFtMvTV+4TD9gR11HKC8vDwkJ2bBhgxF9MGDktksbUCqVlpeXt3ZWIBAUFha20ZR+dE0eUEdF0lC9RWOuMLyuIIvF6ufmtpTNlkgkNjY2HA6ntfXyrsTDw6MzzKpImfF4PPrUGyBcBhicGzduxMbGrlu3bsWKFcb2RRX9Irdd2oAsFks5RlTgcDgd+ZHdFromD6ijLgLZcZFDPTf3sFisHpKVtEiZvQHCZYBh+emnn9auXXvixIkpU6YY2xfN9JzINSztkjRUR79cATXqdNOalNkbIFwGGAplPcAhQ4YY2x3A8LRd0lAd/XIFZGcA6CgCgSAuLk4ikYAeIGBAoIIoAHQI6vHl3r17gx4gYFggOwNAh6irq4uLiwM9QMDgwMoGAHSI0NDQ0NBQY3sBvIHA3BkA9AHqqwCdDcydAaB9SKXSDz74oLa29tKlS8b2BXiTgbkzALSD0tLSsLAwe3v7ixcvGtsX4A0HsrNm3iR1MsBQ3Lt3b/To0cuXL9+3b59RyjQDHUEgELx69aobie12ha5guwB1MsOrkwGG4OTJk9OnTz9y5IgRyzR3nM6L3M6DKuGvs1tZWRkdd66urvPnz29sbKROVVZWjh492s/Pb/78+S4uLuvXrycIoqamRqVMEpvNLi4uzsnJMTMzc3Nz6927t5OT09y5c4VCYV5eHlX4jEYgEGAYZqGEsuqTYdBe+wPUybqFOpnBgSpIytB6gK9evTK2L22l6yO386isrPTw8NDZrbS01Nramjpuamr68MMPR48eTb0MDAzcsGEDFZ6VlZVDhgzZu3cvVcVU2YK1tXVRUdHjx4+9vLyolubmZg8Pj+PHjz9//tzFxUW5c2Njo5mZWQffmvF1BRGokxlVnQzoCCKRKDY29sGDB5mZmd7e3sZ2R390Rm5ycvKqVaumTp3q7++/Z88egiCU4w4hpBJ6OI4vX7586NCh8+fPz8nJuXbt2qpVqyhTa9asuXr1qkabGrtpt/z+++9XVVVR4aySSVrD1tZ2y5YtmZmZjx49okozb9q0iZopu7q6Llu2LCkpqS0fmo2Njbu7u6WlZbs/bkPQFbqCoE5mXHUyoCPIZLKBAwf+4x//sLCwMLYv+tOWyK2vrz927NiDBw94PF50dHRoaKhMJqPibs6cOfX19Rs2bFAOPQzDBAJBTk5Odnb2zp07Y2Njy8rKqMuVl5dTtZLVbTY3N6t002n52LFjYWFhCQkJ+fn5KpmEkijSCJfL9fPze/HiRWNj4/Dhw5WDesaMGatXr1YWhVGhurp6yZIlJEkWFBSIxeJp06YVFRWpd6P+itAv4+Pjg4OD2/fFaKV9c+dzmZl9R4xoRqgRoTpldbL796m5IQWlTsblcil1ssTEREqdjMViUepkCCFKnWzAgAEq6mQIIUqdzM3NjVIno2xS6mTp6emUOtmdO3codTJl9+bNm3fhwgXt6mS//vorPV/IysrKyMjIzMzMzc2lyv3pVCejoR8Ma7txnepkdMlBBwcHoVCo3oJAybDLsbe337ZtW7dOzajNkTthwoQBAwZYWlouXLgwMTER/SfubG1tExMTVUJv8ODBly9fXrt2rUKh0PJ7Tt2mCm23rDGTaIFaOK6urlZJxGKxWCaTafxOqbi2tbWdN2/e/Pnzly9f3tTU1No8ncFgjFPC4MX/ukJXENTJjKtOBuhBTk7O0KFDje2FwWhj5Do4OFAHUqm0oaEB/SfukKbQ8/HxefTo0W+//bZ27VonJ6fFixfTdqixrdlU6abT8sGDB6n+GjNJa4jF4uzs7GHDhjU0NHz77bc4jtMTo7S0NC8vL1dXVy6XW1paSpWEbmxsZDKZvXv3rqmpsVhPueAAAB4qSURBVLa2poOdxWJ9+eWXEydOVL8EhmFz5szR4kMH6QpdQVAnM646GdAuSJLcvHnz1KlT+Xy+sX0xGG2M3KysLJlMRhBEcnKyyo909dA7dOhQVlbWxx9/nJ6efufOHTs7u9LSUhzHGxoaHj582JpNJycnlW46Lcvlcur+U9sziVgsXrp06ZQpU5ycnN555x0bG5t9+/ZRp+rq6r777ru1a9cihIKDg+mAPX78uMqqJkKotrY2KSlJ+f5QV9IVuoKgTmZkdTKgzTQ1Nb399tvXr1/Pycl5kwrOtTFyWSzWqFGjAgICcBxX2TioHnqTJk365z//OWXKlClTpqxYsSIsLIza8jRjxgz6fom6zZCQEJVuOi27u7tzOJxFixbpzCQikYjL5XK53MGDB1taWv70008IIQsLi8uXLx8/ftzT0zM8PHzw4MFLlixZsmQJQujw4cM///wzFWLfffcd1R8hVFhYSNnx8/Orq6vbtm0bQqimpobzH6hf7QqFgqOExvl1h9Bjwweok+lNJ6mTGZyeuaOuqKjI39///fffl0gkxvalo+gRuSdOnFi6dKlEIqmsrGzNrHroFRcXK39cVVVVymdbs6nSTadlgiCam5up43ZlEmUqKyufPXumnqwqKiq0ZJtOxVR0BUGdDBlJnQxoCzdv3pwzZ45p6gEairZEroWFhcpjF8qohx59A4lC/T+wRpvq3bRbxjDMxsaGOm5XJlHG1dVV41vr3bu3fgY7G9AV7FKMok4G6OTYsWNr1qw5fvz4W2+9ZWxfOhctkTthwgSD3wjtDJs9B6gV0NV0vToZoAWSJDdv3nzkyJGUlJRhw4YZ2x1jwuPxtPxgNR2bPQfIzkCPBsMwc3Nz6pF9Y/sCAP8FZGegp7N+/XpjuwAAGoDsDPREXrx44enpST0u9EYSEhLSxlISgBGhtsm2BmRnoMdx8eLFpUuXnj17dsSIEcb2pRNxdHQ0tguADurr67WchewM9CAIgli3bt358+dv3brVrQvOAT0ByM5AT0EkEr3//vt8Pj8rKwvmlYDpA8pVQI+grKxs1KhRvXr1unz5cs9MzQ4ODiNHjqSrGmmhT58+I0eOpEs8AsYCvoB2AGKD3ZT79+9HREQsW7Zs//79oAeoEy2FZQDtvHz5khLQMYg1U9EVvHr1KlXnnjpISUlRLnVP8fnnn2tR1VPR6KPQIjaoIgaIQGzwDeXChQvTpk3bu3dvt9YDNCC2traBgYE8Hm/o0KH+/v50hU8ejxcSEhIQEEBLgbi7u4eEhAQHB9OFDVxcXAIDA+3s7KysrCgjGru5u7sPHTo0KCiob9++Xf32jIpYLL5z587vv/9eUFDQ8RytT3bmCwSXcnN9Jk48cedOyX+L3xiKCRMmHD16tO39ExISYmNj79y5o9K+YMGC8+fP0x6eOXNm5syZ1D6q06dPDx8+/NSpUyofYnl5OZ/Pr6ur++abbz744IOGhgYcx6Ojo2NjY/Pz83Nzc3ft2vXBBx+IRCLtLmm0r24cIZSYmBgYGEgVxVZ5I7W1tQsWLFi8ePHq1asXLlxYVlam3jJ79uyDBw+qF8YDKBQKRWpq6owZM4ztiKnAZDLZbLaLi0tNTY2FhQWVUq2srDw9PakSzFRxPjab7eHhUVdXV1NT4+7uThWjqK2tZTKZ/fv379evn7m5eXV1tXo3Dofj4eFRUVFRUVHh4uJib29v5Dfc5QiFwszMzJSUlJqamo7YMbyuIEJo3759QUFBwcHBVOU9dW0xpKYkpsLDhw+3b99OHX/11Vc+Pj6RkZH5+flUi7q2mIpGH40WsUHtYoAIxAbfFGbOnGms+rymTHFxcUVFBZ/PZ7PZGIZRM+iXL1+WlZVRUtZOTk4EQVDRiuM4tVhPEMTr16+trKzs7e0LCgoUCoWzs7NKN2phxN3dnc1mP3v2jBbG7mnU1dWlpqbevHmzpaVFPwuG1xXk8/nnzp27fv06m80OCAiIi4tT1xbz8/NTURJTKU8lEAgofaaHDx8mJCQkJSWJxeLIyMjJkydr1BZT0ehTRqPYYGtigAjEBt8IKisrm5ubVaRzAGWolTT6hx2LxSJJkmqUSCQIISsrK5IkMQzDMKyyspK+L4LjONVOZWT1bgKBgFKwdnZ2dnV1ff36dQenkN0XkiSLi4urqqreeustPcpqGl5X0MnJ6dy5c8nJydu2bauqqqqoqEBq2mLqSmKtXTE5OTk2NtbHxycwMJAqbt1ebTGNYoOtiQEiEBvs/jx69Gj48OGXL182tiPdifr6egzD3N3d7ezsqGlyS0sLk8kUCoV8Pt/a2prK4xiGeXt7SyQSkUjk5eXFZDLVu7m4uPTr16+8vPzx48cEQdA6dj0QDMMGDRo0Y8YM/SoeG15X8NmzZ9HR0cuWLRsxYsSNGzeoRhVtMXUlMfqemAqVlZW0khj1DtulLYY0iQ1qFAOkZVZAbLBbc/z48U8//fTYsWM6BdIAZZqamhoaGtzd3d3c3AQCgYWFRWVlJYvFolMwtUDRp08fa2vrvLw8giD8/Pw8PT2Li4stLCyUuxEEweVyAwICMAxraWnppG1Opg+PxwsNDVXZONAu2pedKXWyny5ftp00qRkhSp1sSq9eyupkKSkp06ZN++yzzxobG+k8QmmLmZmZJScnU9serl69Gh8fz2Aw1q9fb2dn19o2zOnTp+/fv/+DDz5QKBTp6enDhg2LiYn57rvvFi9eLJfLU1JSNm3apNNtFbFBWgyQOrtjx46TJ0+qi2Cpiw1+9NFHSElsUKOIemv2qeysbpwWG9SYo0NDQw8cOIDjeEtLS2Ji4o8//shgMFRaEIgNIoQQIghi1apV58+fT09Pp/9+AzQNDQ23b9+mjumD4uJiepdRXl4ei8VSnvEUFBQUFRWZm5vTyxqlpaWlpaUqRtS7PX36lMlkMhgMQ+3p6l7Y29uHhoZ2vOqh4XUFZ86cmZqaGhMTM2fOnHHjxu3evRupaYvplAekiYyMFAgEvr6+QUFBvr6+qP0qhUhNbLCNYoAIxAa7D01NTTExMTk5OQ8ePIDUrDeUPKtyC0EQbdmJr94Nx/EemJpZLFZISEhMTIxBCtJi2jflbd68eePGjSqNMpmsqKLizMOHIxwcnJ2dqbUq5ZVTHMcrKir69OmDEOLz+SkpKZmZmfv27WtoaFBWjmlqauLz+Tp1aEiSLCgo4PF4yhXFioqKLC0tu1hyhpo1GFzUav/+/SKRaM2aNa11qK6uNjc3V37CTaUlKirq9OnTBlSr0fi9mywlJSXTpk0LCgo6ePCghYWFsd0xCZKSknrmI5Hdi/r6+qlTp7Z2tlN0BZlMJpWaEUK0sLG6tlgb5QExDPPy8lJp1FtbrCOA2KAJkpOTExMTs2jRos2bN8NDbsCbRFfoCoK2mHZAbLAjWFtb79q1KzY21tiOAICB6YqaA6AtphMQG9QbHx8f2NcMvJFAFSSg+yGTyVp7whMA3higXhfQzaitrZ01a9aAAQNGjRplbF9MGu26G4DpA9kZ6E48ePBg1qxZ69evh4Jz2sEJstbWC8cgwE0XJqngNr/W0gFWNoBuw88//xwTE3Po0CFIzTrBSdIclxjbC0Ab5riE0LqhGf60At0AkiQ///zzxMTEmzdvwj3AtuBkb0eIBBIzG2M7ArQKW97oaK/tOW+YOwOmjkgkio2NvXfvXlZWFqTmNhIaGmoub4bps8nCwsVm8pawsDAtfSA7AyYNn8+fPHkyi8VKSUmhn2wCdGJtbe3Si+soLmOQCmP7AqjCIBUOojI3VxdahkZzty5z6A0AdAW7HjabvXjx4oSEBO3/jwF1wsPDrVjmXGGxOaHnfy2gMzAnJNyWImtLi+HDh2vvqWd2rm5q2pGSUtXYaCK6glQJ0JkzZ54/f165jAvoCnZ3LC0tFy1aBI9o68fkSRPdejk5thQ5Sf60UjQzYR5tPJikwkrR7Cgud2wp5rlyJ02M0jlEn7uClQLB2dzc+MmTf0hPn+3r2693b/0eQdbChAkTtK/IKFNcXPzee+9t2rQpKCho0aJFlpaWkydPpk4tWLBg7NixMpmM8lCjruDWrVuVg7+8vJzqkJqaGh0dPXPmTA6HEx0dvXTp0lWrViGE7t+/P2PGDFpGqzU02lc37uDgoKIrePz48RcvXlD9KRXBgwcPWltbx8XFZWVlWVpaqrTMnj07LCwsLi5OvwrfJghJkufOnXvnnXcgKXec4cOHi0Siu3ezmc3lGIYxMMSAT7XLIUiSIBFJkvYczojxE9v6Q5DUyqZNm1RaKhobD9y8KSJJkiSbFIrPUlKeFxdLpVLlPnv37qUUebdu3UqSZFJS0sqVK99+++0hQ4bs3r2bUr45derU4MGDBw4c+PXXX5MkmZ6ePnXqVPogMzNz1apVlLUvv/zS29t7woQJs2bNOnToEEmSX3/9taen56hRow4ePEiS5M8///zhhx9SnTds2LBixQplZ/z9/ZOTk6ljb2/v9PR06jgkJOTu3bv9+/fPyMigWqg5tUgkol9aW1sXFRUlJSUNHjyYIAja5oULF4qLiwsKCjgcjvK1bGxsioqKNNpvzThJkhEREZTKOkmS//znP1evXs3j8aiXhw4dmjFjBnX8l7/85ZdfflFvIUlyzZo13333nfrXpzfq33uXIRaL582bFxERIRAIjOUDAJgC7Zs7VwgE53JzF48ZQ5XytGUyP500aXNa2v8g5PWfGXTX6wrOnTt37ty51KizZ8/u3btX2RToCnYjqFqg48aNO3HiRGtqXgDQQ2hfdj6Wmbl0yhQrpRZHJvPdoKCfs7NXWFtTVetoXcFXr16p6AoihChdwfz8fEpXECFE6Qq2JmhP6woihFR0BRFClK7g1q1bEUIXLlz4+OOPlyxZQuVfmnnz5gUGBmrRFTx48ODevXvpxZmsrCwzMzOZTJabmzt69GjUBl1B+mVaWhp1oG6/NeM6dQXpXOzg4FBdXS2Xy1Va0JuiK5idnT1nzhx4DhAAKNqXnZeMGnXk2rW/Tphg+59s8ozPT8zIeNvR0bi6gl999dWVK1cuXLgwaNAgFQugK9gtOHHixNq1axMSEqKidN8tAYCeQPv2bDjZ2MwcOPCrtLR6HEcIPePzj1y7NsHKSqOuYHh4uIquIEEQycnJwcHBM2fObGpqio+PX7p0aUlJCTUB1Mj06dOTk5MVCoVEIklPT0cIxcTEJCcn4zgukUhSUlKio6MvX76cmJh49epV9dRM0Zqu4OHDhw8fPrx8+fKTJ0+qj1LXFaTaaV3B1nxui311XUGNpkJDQ9PS0nAcFwgEiYmJISEh6i2om+sKEgTx2Wef7dixIyMjA1IzANC0W1ewr6vrwkGDNqelZVRXH71+Pcra2ui6gteuXXv27JmLiwuXy+VyucpLDRSgK2iyEASxcOHC27dv37x5U10BBwB6NNpvGmq8dy+VSp8VF39x4cLVq1dzc3P5fL5CoVDuoFAoSktLqeO6uroTJ04sXbpUIpFUVlYqdxMIBIWFhTpvXBIEkZ+fT+92oCgsLKyoqNA51rCUlJSUlJQY3Oy3335LbVxpjaqqKuqRk9ZaIiMja2pqDOhSV+7ZOH/+vMqeHwAAyPbu2aBgsVhevXt/ZG0NuoIGoYfrCmr55QQAPRnQFTQ+3VRX8OHDh6mpqQsWLPD09MRxPDExsV+/fsHBwW0Ze/bs2TFjxjg7O3e2kwDQfemKOhs8Hq+brop2Ge7u7vRt1fYyYMAACwsLw/qjkz///HPMmDFHjx4NCQkpKyv79NNPb926tWLFiiNHjmgfSJLkP/7xj5UrV2q5FQwAAIIqSIB+nD9/fu3atQUFBWPHjo2KirKxsdm7d++ZM2cSEhK0jBIIBNHR0ZmZmY8fP/bz8+sybwGgOwLZGdCHBw8eUA9AHjx4sLCwkNqubmNjo6WGX1FRUURERO/evS9fvgy1QAFAJ6CNAuhDVFRUSkrK+PHjd+3atXXr1g0bNri6ulZUVND1p1S4ceNGbGzsunXrVqxY0cWuAkA3BbIzoA/Tpk1LTU3t169ffHz8Z599Zm9vv3r1ajs7O/rpUGV++umntWvXnjhxYsqUKV3uKQB0VyA7A/pgY2Nz4sQJ+un2Dz/8cO7cudbW1vTD7jQ7d+7cv39/ampqG7dzAABAAevOgP4o52I7Ozv11IwQGjNmTHZ2NqRmAGgvMHcGOpfw8HBjuwAA3RKYOwOGJycn5/bt28b2AgC6N3pmZ0E9P+mnIw21tR3XFaTUAjUKCXbEYMftCIVCui6dYWmjZS6XS0lY5eXlYRj2ww8/0Kd69eo1bNgwDofDZrMZDAb1TPwnn3xCnX333XdFIhF1rF2l8PTp04cOHTLgW0MInTt37q233mpoaDCsWQDoaeiTnRv5/IepSeMHet1MOPpnSTFVprmDTJgw4ejRox23Y0Cam5t37NhhIpZtbW03btxYU1NDt1y8eLGpqenBgwdOTk5NTU1NTU27du1CCKmoFMbGxt65c4caQqkULl68ePXq1QsXLiwrK5s9e/bBgwc11ufTA6oW6Oeff37r1q23337bIDYBoMfS7uzcyOc/upwycqAPQy4d38/94bFDFcVFKgl6+/btffv2HTp0KP3k2M6dO/v27RsREUHP1L766isfH5/IyEhKPvXhw4fbt29HCO3YscPHxyc6Onrt2rWXLl3SOFYjKgYRQj///LOfn5+vr+/OnTsRQsnJyatWrZo6daq/v/+ePXuosv379u0LCgoKDg7etm0bQuju3bsfffTRggULNm/e/P7771dVVS1cuFC9W0ZGRnx8/Jw5cwYMGLB9+/ZPP/3Uw8MjOjq6ublZ/boZGRl/+9vf4uLiPDw8YmNjpVKpsuU2vjsXF5dFixbRs2Mt7N69Oy4ujjqurq6mSlpTJCYmBgQEREVFjRw5cvz48bdv3zYzM4uKijp16pROszppamqKiYm5d+/e7du3vb29O24QAHo62kvYqVSSbKirvXrqmPjBbVFGekvSb4JjB2r/ueHX5YsKX+TRRSBfvXoVGBjY0tJSXl7u7e0tEolevXrl7++fn58vlUpHjx799OnTBw8eDBo06OXLlzk5OU5OTocOHUpOTp42bdqLFy+GDRtWX19///59Ozu7Y8eOqY/V6Ke6QT6fP2DAgPz8fMrm2bNnT5w4YW9v//r1a7FYPH78+Fu3btXV1Y0bN66hoUEmk/n6+ubn56enp5uZmR05cqSpqamystLDw4MkSfVuycnJGIZlZ2e/fv2awWB88cUXYrE4Kirq119/Vb9ucnIym81+9OhRTU0NpdJCW9b+7pydnfPy8kiSfP78uZeXl0gk6t+///Xr10mS5HK5VAHV58+fOzs700MIgnB0dFQu6Pr69WtaQ/aTTz5Zt24ddbx169a1a9eSJHn06NFp06apf+9t/y+0cePGoqKigICA5cuXy+Vy7f+jAABoI+2bO99KPBvW15NsaSIa63F+LV5bRTQLfC0Yt389LRAIqD4XLlyYPXs2m83m8Xi3bt1iMBi0EiCLxaKUAGm1wMDAQEotkOL8+fMLFy50cHAYNmwYJZOhPlajY+oGqZJpmZmZd+7coaQL0X/kDS0tLSl5Q1oCcdu2bbQE4rBhw5YsWaJck0hjt5CQkOHDhw8YMMDR0TE+Pt7S0tLf37+srEzjdceMGRMUFMTlcsPDw4uKimjLbXx3FFZWVgcOHFi2bJmWpSSdKoV06VEHBwdKLLHjmoQlJSVhYWGLFy8+cOCAFhUuAADaRfuy85gZM6/ffyCrr8P5tXhNpaxJUNMivIOb9x41ltYVLCwstLe3p445HI6ZmVlpaWmvXr2oFkoJsLKykm5RLvGcl5dHye4hhBwdHRFC6mM1OqZukJYulMlk48aNmzVrFlKTN3z27FlgYGBZWdmIESNorUL1spYau3l6elIHGIbZ2dnRnTVel1oFRggxmUySJOnObXx3NFOmTAkMDKTWlzWiU6WwtLSUOjagJuHJkyf3798Pj2gDgGFpX3a2sbP3nzrj6qMnstpqeXNTrVCUpTDjTZqqrCsYExOTmpqK47hQKAwKChKLxepKgOpqgRQBAQHJyckEQTQ1NV25cgVpUhHU6Ji6QY3ShSryhholEJWhivvo7KZMGyUTKcttfHfKfPPNN/v3729padF4tr0qhah1TcK2//6Sy+XK20IAADAI7dYV7N3HI3jh4utFZdXNLbcVZu6TpqroCkZGRkql0sGDB48YMWL16tU2NjbqSoDqaoEUH374oaura1BQUGRkpJubG4vFUh+r0TF1gxqlC1XkDTVKINK4uLhwOJxFixZp76ZCWyQTacttfHfKuLq6btiwgf6lokJ7VQpRd9YkBIA3HO3TotZ0BQtf5J3etqk1XUGSJCsrK1UaVZQANaoFlpSU5OXlUXeWJk2a9PjxY/Wxz9SQyWStGVSWLtQob6gigajyLgiCaG5u1tlNHZ2SibRl0tAaie1VKdSoSdiVuoIAAGhET11BXr/+kUuXt6YriBBSkRBEakqAGtUCmUxmTEzMokWL0tPT5XI5XaBdeez9+/dVRnl6epqbm2s0qC5dqCJvqFECUdlJGxsbnd3U0SmZSFtGhtZIbJdKYXfXJASAN5iu0BVsOzweLyMj48aNG2vWrBk7dqzGqjrvvfeefsZ7iLxhu1QKjaVJCACATkxu/5Orqyv9MIVh4fF4PB6vMyybGu7u7m3sOWDAgE71BAAAvYEqSAAAAKYIZGcAAABTBCOVHo5QJykpqctcAUyKqVOnGtsFAOjR6F53pp7ZA3oU9fX1xnYBAHo6sLIBAABgikB2BgAAMEXanZ0dHBxGjhypXipInT59+owcOZLBgD8AAAAA7aYTUyeGYZ1nHGgXL1++fPXqlfY7wAAAmBT6P41ia2vbv3//uro6LpeL43h5eTklJcfj8VxdXeVyuUQioXq6u7u7uLiQJFlXV0dVsHRxcXF1dS0uLpbJZD4+PnV1dX/++ad6N3d3d2dnZwzDGhoaWqvsA7QFsVicm5v75MmToKCg/v37wx9OADB99J87M5lMNpvt4uJSU1NjYWHh4eGBELKysvL09KSqJ1P1KNhstoeHR11dXU1Njbu7e+/evRFCtbW1TCazf//+/fr1Mzc3r66uVu/G4XA8PDwqKioqKipcXFzomtGA3giFwszMzJSUFGV9QgAATJOOrmwUFxdXVFTw+Xw2m41hGFXe/uXLl2VlZY2NjQghJycngiCouvI4jlP78wiCeP36tZWVlb29fUFBgUKhcHZ2VulGze/c3d3ZbPazZ88oa0DHqaurS01NvXnzZmtFogEAMAU6mp2pKvL0giaLxSJJkmqkVjasrKxIksQwjMFgVFZW1tXV0QOpUVRGVu8mEAieP38uFAqdnZ0DAgJoDRGg45AkWVxcnJycbCg1bgAADI6B7wrW19djGObu7m5nZ0dNk1taWphMplAo5PP51tbWVEbGMMzb21sikYhEIi8vLyaTqd7NxcWlX79+5eXljx8/JgiCFn8COg6GYYMGDZoxY4b2MqcAABgRA9eoa2pqamhocHd3d3NzEwgEFhYWlZWVLBaLTsHUAkWfPn2sra3z8vIIgvDz8/P09CwuLrawsFDuRhAEl8sNCAjAMKylpaWqqsqwrvZYeDxeaGioshYiAAAmiO46G3o8yc1isVQ0TBkMhrm5uVQq1T5QvRuTyWQwGHK5vL0+AMrk5OTk5uba29uHhoa6ubnp7F9fXw91NgDAuHRKfWeZTKbSQhCEztSssRuO49QqNtARWCxWSEjI4MGD4eEgAOgumFz1faAzGDx4sLFdAACgfcBMCgAAwBSB7AwAAGCKQHYGAAAwRSA7AwAAmCK67wqCTAYAAEDXoyM74wRZa+uFY7C1owfBJBXc5tfG9gIAejo6VjZwkjTHJV3jCmAimOMSAipBA4Cx0ZGdnezt2HJB17gCmAhseaOjPTznDQBGRkd2Dg0NNZc3w/S558DCxWbylrCwMGM7AgA9HR3Z2dra2qUX11FcxiAVXeMQYEQYpMJBVObm6mJpaWlsXwCgp6N7R114eLgVy5wrLDYndBfKALov5oSE21JkbWkxfPhwY/sCAICuGnU09+7dq6iqVrBsRWYcGdMKdnG8MTBJBQsXW8kF5vIWXm/X0NBQY3sEAABCbc/OCCGRSHT3braguRnDMAaGGKAc2v0hSJIgEUmS9hzOiBHhsKABAKZDO7IzAAAA0GXAk9wAAACmCGRnAAAAUwSyMwAAgCkC2RkAAMAUgewMAABgikB2BgAAMEUgOwMAAJgikJ0BAABMkf8DJPYn8XGkF1MAAAAASUVORK5CYII=;" vertex="1" parent="1">
          <mxGeometry x="100" y="300" width="139" height="55.14" as="geometry" />
        </mxCell>
        <mxCell id="hAuHUI22cmVRYy7zVz07-11" value="gestion empleados" style="text;html=1;align=center;verticalAlign=middle;whiteSpace=wrap;rounded=0;" vertex="1" parent="1">
          <mxGeometry x="150" y="260" width="60" height="30" as="geometry" />
        </mxCell>
        <mxCell id="hAuHUI22cmVRYy7zVz07-12" value="" style="shape=image;verticalLabelPosition=bottom;labelBackgroundColor=default;verticalAlign=top;aspect=fixed;imageAspect=0;image=https://upload.wikimedia.org/wikipedia/commons/thumb/2/29/Postgresql_elephant.svg/1200px-Postgresql_elephant.svg.png;" vertex="1" parent="1">
          <mxGeometry x="414" y="-40" width="154" height="158.76" as="geometry" />
        </mxCell>
        <mxCell id="hAuHUI22cmVRYy7zVz07-13" value="&lt;font style=&quot;font-size: 48px;&quot;&gt;Master&lt;/font&gt;" style="text;html=1;align=center;verticalAlign=middle;whiteSpace=wrap;rounded=0;" vertex="1" parent="1">
          <mxGeometry x="220" y="-40" width="60" height="30" as="geometry" />
        </mxCell>
        <mxCell id="hAuHUI22cmVRYy7zVz07-15" value="" style="shape=image;verticalLabelPosition=bottom;labelBackgroundColor=default;verticalAlign=top;aspect=fixed;imageAspect=0;image=https://upload.wikimedia.org/wikipedia/commons/e/ec/AlmaLinux_Icon_Logo.png;" vertex="1" parent="1">
          <mxGeometry x="625" y="-350" width="202" height="201.59" as="geometry" />
        </mxCell>
        <mxCell id="hAuHUI22cmVRYy7zVz07-16" value="" style="whiteSpace=wrap;html=1;aspect=fixed;" vertex="1" parent="1">
          <mxGeometry x="1000" y="-260" width="970" height="970" as="geometry" />
        </mxCell>
        <mxCell id="hAuHUI22cmVRYy7zVz07-17" value="" style="whiteSpace=wrap;html=1;aspect=fixed;" vertex="1" parent="1">
          <mxGeometry x="1235" y="10" width="520" height="520" as="geometry" />
        </mxCell>
        <mxCell id="hAuHUI22cmVRYy7zVz07-18" value="Jardineria" style="text;html=1;align=center;verticalAlign=middle;whiteSpace=wrap;rounded=0;" vertex="1" parent="1">
          <mxGeometry x="1405" y="50" width="60" height="30" as="geometry" />
        </mxCell>
        <mxCell id="hAuHUI22cmVRYy7zVz07-19" value="" style="shape=image;verticalLabelPosition=bottom;labelBackgroundColor=default;verticalAlign=top;aspect=fixed;imageAspect=0;image=data:image/png,iVBORw0KGgoAAAANSUhEUgAAAd8AAACXCAIAAADbHsa6AAAABmJLR0QA/wD/AP+gvaeTAAAgAElEQVR4nO2deVhTx/rH52QFwg4RJAEE2ZFdFBVXcKkVbeuCrUvrrdeqra31WrW1V62tbbXVq9ZWUeuCWtuqBZWgVVwBca+oiIDsyhqWQPac5ffH9J5fbhICBBDQ+Tw+PidzZt4zyct5M5kz834xiqIAAoFAIHoYjO7uAAKBQCAMgKIzAoFA9ERQdEYgEIieCIrOCAQC0RNB0RmBQCB6Iig6IxAIRE8ERWcEAoHoiaDojEAgED0RFJ0RCASiJ8Lq7g4gEIiuRS6X37hxo6GpmYFhDAwwMKy7e/TSQVIUSQGKAnY21lFRg83MzNrSCmv7Tm7k4x6Lab5HvAzcvHmzoqoa51jJWdZqpjmBoQFZ98CkcA6hMNdI2BqpoK9zZGRkq03aGp2Rj3s4Jvge8cLz57nzCpWmnuemYXC7uy+Iv2GTSnt5uQWXM25srPGabYrOyMe9iLb7HvFik3X9erW4oZbXj0RjqR4Gg8L5smKXPo6DBg0yVq1VQ1nXryvUeK2lBwrNvQINw6yW5yFXqW/evNndfUF0G3K5vKamtt5ciEJzD4TEWA0WbpVV1Uql0ki1Vjz3t4/R12+vAvoeqypWKpVoDvrl5NatW2qOlYb5P97/eY2m1Yb2zpzoKSXW9nyuuUWX9Q4B1Ayuhm1548aNkSNHtlSnlZiLfNxLaYvvES8wdY0SOc9Vp9An1JbBABh8ng9nNDEAqL//JymKooClLTPnVkZgZDRf4P68O/2SIWPbMBufGqnQSnRGPu69tOp7xAsME8M0THOdwhkL+0wOYAEASAoQJPyfIkiAUwAnAE5SahxcypMf3lKqHBCub/PM4Z2n92/v5x+8Ysdv+mcf3c74YcX8OZ9sGPrK1JZ6VVaQ8/WC1+Pmffjq3A869v7An0d3O7l6hkb34ocrGqY5ZnTlWyvRuSt83HEkdbWrpg8fMfnNN5eubVfDF8CjbadV3yNeYJgMjMB0nyphFNUsx8tq5BqCYjIZNjx2ZYNSg1MONuaV9QqVhvISWBMavCWbmanH+C6u0xd/avg0RVEU+d/xmmFsHZ3eeO+T/kER7X9Dupzc+5+wEeN62r0sb6huKM0zeMrO3dfCzkm7hMRYLEZHonMX+LhToCiSosj2tuqZHm07net7xIuOrvdJiiIooNSQKjXBYjHNOCyFilThlKWGlKlItUrTrFBo1GqDtg58s6KuqoJnbXP93EmPgND0lN+uJB+RS5s9A0PHzZzv5h0Iq9U+K9v2yTxxRfnA0RMnv7v0WVH+kS1rRr0266+rf/qERQVGDv8r/TzP2rZ/YHjJ4wd/7NoornrmExI5cspbHgGhAAAdsxyO2aHvVw+Kjcu9nVlZ8iR0+LjX/vkvDMMOfLOCosiC+7dP798eN+/D+9cunj6wvam+tv+AiLc+/sLSxq5LP1YjmFs7FJXlqWUSnXIOz6Zv0FCdwlZXy7VlJ7dBH1NKDSlX4goVodJQChUpU5EqDSlTkXKF2oiPSx4/2Pj+jIyU3xPWfPDv2WNP799GksTTwscb359x4/zJXf9efPGPRABAecGj75bMXPpq2Lq3J2Sk/A7bPrqV/vWC19e9PeHO5VQdg7cvigAA1eXFG9+fkZl6DJZvWTr7s5mjD3yzovjRPQCAtkdbukQPx9zaoaEsrzr3ps6/hrI8M2sHncpILxKhA0kQBAk0OKnCKbUGVxOUSkOp1LgKp1RqUq1RK1U4gRt+quTs1p/JZJpZ8PoI3avLi49s/jfGYIQNH3s/8+KBr1fQ1f78dQ+GMQgcP3Nk119XzynlsuJH937dtv5+1iUmk6lSyosf3WsUV8uaGrf+a+6zojwP/+A7V87+sOqfKqVC36xSIS98ePf3HRtkTRKlQvbn0d1PHtwGAPQR9gMAmFvw7J36PivK3/n5YqVM6h8x7EHWpR2r/vlcPkvDYEyWS/Aw/XKX4GEMZrsXVpiSZ6MjPlbImosf3ft1+3qlXNpUXytK/PHqqV91XChrlmxeOrs072Hw0BiFrPnw5s/vZaRp1Kqd/36//EmuraPTyZ//o2NQUlcDAFArFcWP7jXUVhn0vbZHDV7ChI/iOdO5vke8bBAECSchCRLg5N/zkDgBNATA6RKcMNh2wqz3WByuk6tnzLR3SJKYseTzRV/9NHxSvJWdfW1FGV1t+KT4Dzf9vOLH3zCM8fDGVVjYR+j+ReKfI6fMoqvdvpSqlMumLf70n2u3zf3ka7/wIY3i6pbMho0Y/69tRxZ9tRMA8PD6FQDAxDmLMYwh9PIfNnH6tTPHKYr8x+rv31y6bvC4KSWP71cU53fRB9gW7Nz9LeydtUssHQV27v4mmDLlltb2MYa1z8eQoa9MfevjL2oryv49K/bWhdPC/n4AgD5C9/lrtvJd3C7+kaiUS99cum7klLfqqp6tfnP0leTDXDNzjUo5619fDp8Uf+7XPX8kfGfEPvT92yu/HTLhjVsXUv5KP9corp44Z3HKgR+gRw1eolfMeNi5+9fk3ZXXV9ElJvse8bJB4jhBsgkK3rmUhqLwv+9Z+gCQeOtzkvZOgtLHD079vFWtUnC45to72tx9gwAAto5Otnynopy78Alh8NAYvoubtoW6qmcAAIGnDwAgMmZSZMwkAIBKqTBo1s07AADAs7IBAGhUuguE66qeAgA2vj+DLhFXPnXx8Gn/x9M5YBjmGjEmP+0o7D+GYYKwkaY9ATJp7IzjBAmgjwnSFB97+IcAAPgubnZ9+sJhL9ByYe2zUgCAZ2AYAMDBWWBtz695Vpp75xoAwDs4EgAQMsxwGKX++2tex/cL1m13EvbTrmnwEiZ8FM8f6Hva2R3xPeJlgyRwDQE0BNAQhAYncRyoCYATpBoncYLECUpDUEQbonPa7z/fOH9y0jtL/pNyF95lNDXPSgAAKqWiqb4WjroAAGZ6y2r7uvcHAMiamwAAJY8fXE463NxY15JZTO/RlzY8azsAwMdbEr/65SL85xcxpA0fRhfCc3SxEXrDY1tXH56ji2l2TJvZ6KiPS/MfAgBUSoWkrsbSxh4W0i6EJTVPSwAACllzc0Odla29vZMLAKC++hkAQFJfS5vicM0AAHCau7mhDhYa9L12BwxewoSPolvoLN8jXjZwDaEhgUKNq1UqpUqtUCrVKpVarVIolGqNCtfgGoIijP7qhagUCgCAu++AguybRTl/Aa2xc6bo2JWTRw5/v5rAcb8IA7NwkMBBwzEM+/OXhAdZlw599+mp/dvMLa2NmNUHY2B1VU+ryop8wwYDADJEv4sryw9888mm92fgmtY3ZHQ1gtCRGIOJMZguISNMNmLKzIa2j3EGBn2swTUKBVOtURFt8PHtiyIPv+B7GWkkQfiF637RhUbHphzYnnroR4qi/rr6J0WRIdFjQ4aO+XXbF8l7tkjqxZeTDtGV+wjdAQBZZ0+YW1qe+3UvLKR9j6tVyXs3N9RWR8fFAy2PGryECR9FdyEIHSl5VggA6IjvES8bOE7gOMFlEhSTBBjANWoWgwBMCteoWQwSYzMIElBE69F56CtTb5w/ufmjWU7Cfr5hUY/vZokry+Gpfv4hJ3ZuUqsUXkER4SPHVxQXGLRgbc+PnT7v/O/7Ht/N4pqZz/vsexaLrW9WIq5uqQ9R416/dSHlxM5v3/9md3V5ybUzx29dSOGaW8z615cWltamfT6dCNfSpo9vODww2YhJ0bnDPu7nF3x02xdKuaz/gPCxM+dXljzRPivw9J3xwecndn67d/1SAEDEqFdipr3N4ZqPmfr2xRMHD367MvrV6aV5D2FlK1uH6FenZ6Ye/237V0MmvAEXbBj0Pfhfj+pfwoSPorvoFN8jXjZwjYbNZjg7WiqVXJykCIrRh2uG4wROYVwLjCABxmBTZIsLVbeK7sIDZzfPb49dbaiptHcS0Gcd+7ruupQPAMBxjUzSaOPABwB4BUXAQoibdyD9cuqiVa/MXtQoru7j6gFvT4Nm6fp8gbu2qTmfbHjr4y9wjRoAEDfvw0nvfFDzrMzBWQBN9QScAgZ30EIrOepSUlKeWfrqFDJV3DHhTjKFWqnUQB9rSAB9TFB/+zjnYfGFU/+JGv+6q9f/PLDKvXNt2/J35q74etDYKdLGeltHJ9ACGrWq9lmpjUMfnrUtXdjcWEdRlLWdo05lpVwKAGZmwdMulDdLtH0PIXAc16jh/nKDl+gt4GolAIDFMZZGQyDNmzRp0vPqEaKrqKio+Oijj7KyssLCwk6fPt2WJgbv3IZK0tKCScDH+hRFkYCiKJKCxxh8bKOQq66l/aR/5yK6AuN3qCljZ3G9IvVaeas+Nm6ExWIbCc0AADaHq//g1cpWd1UvxMzCUr/QwsrGwkp3aMlksZgslpFL9BaMx2XEi4SVldXXX3+dlJSUkZHRETs4WZ55KaO2tQfgfIG7/nM8xPPHpJmNDvjYsa9w4pzFQvS1jEC0GSsrKysrq46vzLG25wdGRreaX8HM3MLant/BayE6jinRuSM+5ru4Tf7HUhMuikAgOgjX3AJlJetFmBKdkY8RCASiqzFlvTMCgUAguhoUnREIBKInglLnIBAvJgKp4WSziN5C69EZ+RiB6F4ePHgwfvx4qVSqVqtdXFzWr18/f/58403u3Lmzdm37tCkQz58vvvjC9PXOyMe9GuO+R/QWgoKCKioqursXiOcNmndGIBCIngiKzgjES4Ss5BNZ0UIClxtP4YDoCZgYnZGPEYhehyx/FIe4xmY+UN33bqwrxNuQytkIn3766Z49e1JTU6dMmdLetnw+//HjxwCA3NxcDMN27dpFn+rTp8/AgQOtra15PB6DwbC2tra2tl6+fDk8O23aNLlcDo/r6uqmT59ON8zKynrrrbemTZt25coVAMDRo0d3797dkTfY7ZgSnZGPEYheh7JqtxnfD5ibYZwBZmxLaeFHTU1NHR9djRkzZt++fR2xYGVltXbt2pqaGrrk9OnTTU1Nt2/fdnBwaGpqampq+v777wEAycnJISEhFhYWAIBDhw7Fx8dnZWXBJrW1tbNnz/7HP/6xbNmyOXPmlJeXT58+PSEhoampqSN9617aHZ2RjxGI3gjGMKfIRiYTMGU3AI4rZE0SiYT833yhGzZs6NevX2ho6KFDf6dQ37RpU79+/aKjo+kxyjfffOPj4xMTE1NQUAAAuHPnzoYNGwAA3377rY+Pz8SJE1euXHnmzBmDbQ3i5OQ0b948euRkhM2bN8+cORMeV1dXh4SE0KeSk5ODg4NjY2OHDh06evToa9eusVis2NjYI0eOtP0j6mm0OzojHyMQvRFunzmy6lJSJaOkzc3K5gd1b+ukVSooKDh27FhOTo5IJPryyy8VCkVBQcHhw4fT0tIuXrx4+PDhnJycO3fuHDp0KCUlZcuWLZcvXwYASCSSwsLCvLy8EydO3LhxY/369QkJCTU1NfptjfRt7dq1mZmZ0GBLUBT16NEjT09P+HL58uWLFy+mz+bn5wcEBMBjb2/vv/76CwDg5+d39uxZEz6rHkK7ozPyMQLx/Fm3bh3WZtatW2fYiuU7GJOrkNY/rB7s7OJvY2PDYPx/BDh16tT06dN5PJ5AILh69SqDwUhOTo6Pj/fy8uJwONOnT//1119FIlF8fLyPj09ISMjYsf8vJ3Ty5Mk5c+bY2dkNHDgwNjYWAKDf1si7Mzc3//HHHxctWqRWq1uqU1paam9vz2QyDZ5tbm52cvo7I7GdnZ1MJgMA+Pr6FhYWGrluD8ekp4LIxwhEL4TD4QAMEIAl4Sxyd3fXyUpaVFRka/u3DIW1tTWLxSorK+vTpw8swXGcJMnKykq6xNr6/wWicnNzzc3N4bG9vT0AQL+t8b5NmDAhJCQEzj0apKamhsVqcX9GeHh4WVkZPK6trQ0KCgIAcLlcHo/XUpOejynRGfkYgXgOkCSZmpo6d+5cog1af20B3qcMSmFna2llZaVzI8TFxZ09e5YgCJlMFhYWplAo4uLiRCIRQRBKpTI1NXXixIlTpkwRiUQ4jiuVyrS0NLptcHCwSCQiSbKpqencuXPQmk7bVru3devWHTt2SKVSg2e9vLyKi4tbWoMQGRl5/vx5giAkEklycnJERAQAoLCwEN7CvRRTojPyMQLRpUil0p9++snf3/+zzz4bPXo0RVHr1q2j2kyLMxsAAAAojEEZ2iQcExOjUqkCAgKGDBmybNkyS0vL0aNHSyQSf39/Pz8/Ho8XFRUVExMjkUj8/PzCwsL8/PzotgsXLnR2dg4LC4uJiXFxceFwOPptW33Xzs7Oa9asUSgUBs/a29v7+vqWlJQYPBsaGjp48OCgoCA/P7/x48fDO/fJkye9+85t1c36hYqq/fizEZJ0q8zMzMbGRp2zarV67NixPj4+QUFBu3btgiWjRo3y9vZ2d3efMmUKjuNqtTo6Orp///5+fn4TJ07cvXu3SCSaPHmyXC5/7733goODBw4cOGTIkF9++UW/rfa1HB0dc3Nz4VSyl5cXXb5z504AQEVFBTzl6Oio3So4OLigoIB++eTJE4FAAI9JkvznP//p7+/v7Oy8YsUKWLhhw4atW7ca/6B6Ju26pRE9gZycnAULFtjZ2c2ZM+f27dsm22nJ9c053qUZI+/evdvc3GywQmVlpc5dVlRUBG8lCEmSBQUFcrlcu05paWlubq5Go6Eoaty4cX/99ZfBth3khx9+2Lhxo5EKVVVVdXV19MuYmJiamprOunpXYPwONSU6U8jHvQQUnXsLJEmeOnUqNjaWz+evXbu2srKygwZbcn1jY2NhYWFFRYVKpergJbR5+vSpl5fXhg0bRo8eHR0drVarO9E4DRz5tbHnFy9e/Pbbb7uiG52I8TvUxAyihOAWblbnbG7O4XAMVnB2dtYp8fDw0H6JYZiXl5dOHSaTGRcXN2/evLS0NI1GExgYaLBtB3nvvfdeffXVpUuXttR5+sEgAODSpUtjx47l85HMGqILycjI+Pjjj5csWXLixAntJzGdjo2NjY2NrhRyxxEIBOnp6ZcvX16xYsXIkSPZbHanXwIAwGaz9+3bp1KpWrpztXFzcxs6dGhXdOO5YWJ0Rj5GIDpIfX09fPQNAIiOjs7Pz9de+9TrcHZ2prcRdB1CobCNNfv379+lPXkO9Li/BujjCRMm0Is3ugKhUGhlZdWWmv379+dyuV3XE8RLSG5u7oIFC/r37//kyRNYgmFYrw7NiK4A/UEgEM8JgiCOHTsWHR39yiuvBAYGlpaW6k/uIRA0SLkKgehyZDLZ3r17f/jhBw8Pj5UrV7766qtopIxoFRSdEYguRCqVbtmyJSEhISoqat++fSNGjOjuHiF6DSg6IxBdCJvNVqvVGRkZnbvuCPEygH5eIRCdCVy5TG9p43K5X331FQrNCBNA0RmB6Byam5u3b9/u6+u7bds2iUTS3d1B9HpQdEYgOkpOTs7cuXP79etXWFh45syZCxcuaCcNRzxPxGJxVVVVV1huampSqVSmtYV7j9vbCkVnw7xIPkZ0ERRFnT59Ojo6esKECREREUVFRdu2bevhi+Tqm5r2nzlT29Cg0Wg61/KhQ4c+/PBDExquWLHinXfeoV/evXvX2tqazoUkFos5HM7nn38OXyqVSgzDHBwcHBwcHB0d/fz8fv75Z3iquLg4KipqyJAh48ePHzlyZGpqKgCgqKhIZ9+clZUVPe/UduMAgH/84x90skDjcnf6JefOnduzZ0+7PxrTtoHXSST7UlNr6us7fUN9YmLikiVLTGj4ySefvP322/TLO3fuWFlZ0Xk8amtr2Wz26tWr4Uvoe3t7e3t7ewcHB19f371798JTRUVFgwcP9vLyCg4OHjFihEgkoiiqsLDQ2tpa+3KWlpbFxcXtNU5R1NSpU2UyGTwWi8XTpk2jT127du3NN9+cOnXq5cuXDZb88ssvCQkJbf9MUJ6NroMkyWHDhvn6+u7cuZN2aM/BoOvFjY2Hr17N0Gi+F4kKSko6N9WGyXdudna2ra0t3ZlPP/1U+0bevn37sGHD+vXrR5Ik9d+bi76vz5w5g2FYfX09juN+fn5btmyB5Tdv3nRxcZHJZMbv3DYapygqKSlp/fr19DuNiYmhU6fV1NR4enqeP38+MzPT1dW1rKxMv0Sj0YSHh0skEp333vlZkJCPqR7m45ZA0blLefDgAUEQ3d0Lw+i7XtzYeOTq1VskeZEkj2s0n50+nVdcrH3zXr169f3334+Pj3d1dZ0xY4ZSqaQoauPGje7u7sOGDYPDgqtXr7777rvTp0/39PT86quvli9f7urq+sorrzQ1NSUmJk6aNGnYsGF+fn4bN26ESdCysrKWLFkya9asdevWHTlyJCAgwNfXVz8HWVBQEBwGURTl7e2dlpZGn4qIiLh+/bqnp2d6ejqld3MpFAoLC4vi4uKUlJSAgAB4A0Lgs1njd24bjVMUBbfaw/Lvvvtu2bJl9J27e/fu1157DR7PnTv3119/1S+hKGrFihU//fRTq27Spt0zG3USyZ/37/tGR6uZzH7jxu1/8KCkokJbiyQ9Pf2DDz6YOXOmm5tbfHw8/BWvow2Ynp4+f/78GTNm9O/ff8OGDZ988ombm9vEiRObm5sBAMXFxdHR0f7+/ps2bYI/Ja5fv/7hhx/Onj37iy+++OWXXwIDA/38/DZt2qTdseDgYFdXVzpb9PHjx+fMmUOfPXjw4ObNmxkMRmZmpv6bGjVqlLm5uUQiOXv2LIPBWLp0KSyPjIzctWtXbW2t8c+kjcZBOyUNkchhj+LevXvvvPPO5s2b6ZIBAwb0lk0ldRLJ2fv3faKj5QBIAWhiMq3Hj/9PTk6x1s3b3Nx84MCBlStX3rlzJy8vLyMjQ183rrm5ed++fcuXLz937tyaNWvMzMzy8/M1Gg2Udrt8+fKPP/544cKFpKSk9PR0AIBMJtu5c+fo0aPnzZu3Zs2akydPnjx58tixY0lJSdrdmz179rFjxwAA9+/fl8lko0ePhuU5OTlNTU2DBw+Oj4/X/rP/448/jh07dvjw4XfeeSc2NrZfv365ubmhoaHaMiBxcXHu7u4AALlcPkULes6k7capdsrddZYAXvvWO0Mf++r4+Ny5pQB4uLjApELQx+np6UKhcOzYsRkZGW5ubtDHbm5usbGxw4YNgz6+fv26g4ODj4/PZ599lp+fD9P2AwAuX76ckZHB5/OnTp06aNCgUaNGQR/v2rVr7NixY8aMgdn9Z8+e7e3t/frrr9Pdgz6eOHGicR9HR0fTbuBwOCqVKiUlBbrh+PHj+j4GABQVFUEf0+Ut+diIcX0fFxYW/vbbb/ClvkcJgtApiY+P9/PzS05OXrRoUbschzAZjUZz9OjR7du3S6XSZcuWvfnmm93dI1NIysjwHz++GYBmAOoAqKGoZgA4QUG/3bixaNQoOgXjiBEjwsLCAABRUVHFxcV3796FunEAAKgbN2TIkIiIiEGDBgEA7O3t58+fb2ZmFhQUVF5ezufzx40bBwccs2bNOn369KhRowAAAwcOfPfdd/ft2+fh4ZGRkQEA8Pb2vnjxovad+9Zbb4WEhGg0muPHj7/11lv0d97BgwdDQkLOnTvH5/MTEhK2bdsGyzMzM1ksllqtzs7OHj58OACAy+VCnTl9OByO9oT4+fPn22u8Vbk7+j61s7Orrq7WaDQ6JcAkAbz2RWfkY/plL/IxwjTEYvGOHTsSEhIGDBiwdu3aXr39+vVhww5duOAaE9PEZNZQVBOOy6qrwcWL0W5u2lokFhYW8IDJZFIUVVZWFhwcDEto3Tg4IAUAYBim88CNFpnjcDj0EMfR0REAUF5ezuVy4Th91KhRPj4+2g2FQmFISEhaWtrx48ePHj0KCwmCOHLkyNixY+GwmsfjnT17dty4cQCAzZs3wyxpjx8/DgoK2rZtm6+v7+rVqzUaDZ3YcsqUKR999FG/fv1YLFZMTAx9LXgDtst4q3J3+fn58JiWu9MvMUEAr31/ba8PG3brwoV6goChuQnHpVVV4OLFaAcH4z7W1wbsoI+hZsrUqVO1G2r7ePbs2bAQuoHH4x07duzRo0fQDfDU5s2bt2/fvmvXrqSkpP379ysUCl9f34sXL2o/zp4yZcrFixcBANDHNNo+bqPx9koaIpHD7uLBgwdz58719vaurKw8c+bM+fPn4+Liem9oBgDYWFrG+fv/9eefNTjeTBCy6moiLW0cn+/g4GAkWWN7deOuXLmiUqlwHBeJRDqV33jjjaampvnz5y9YsKC0tBQONbSZPXv2+vXrmUwmPd13/vx5gUBw4MCBPXv27NmzZ/HixYcPH9Zp5efnx+FwGhsbR40a5e7uDkWRAADnzp3Lz8+nfz3r0y7j7ZW76ywBvPb9wSEf69ArfIxoL9u2bevbt292dnZCQkJoaGh3d6cTYLFYrs7OcwMDS86da66spC5cmNCnj1AodHV1NZLsv73agPb29lFRUf7+/iqVCv5epAkKCho4cGB4ePiAAQOys7MnT56s03bq1Kn37t2jB1UAgIMHD86aNYt+OX369JSUlKamJv2L3rhxg8PhHD16dO/evZ6ensHBwUuWLDlw4ID2FKUO7TLeXknDThM5NPLE0OAjRZVKlVdcvDAl5cPS0g/3709JSbl3715dXR2tUyUSiaZOnQqPFy9evHv3bn1tQO06fD6/oaGBoqiPP/548+bNiYmJw4YNCw0N9fLyGj9+PFyxl5aWNmnSJFj/448/DgkJCQwMfPXVV3WEryiKamxsNDMz01asmTlzprYq4JMnT8zNzWFY124uFAqTkpIoinrw4EFQUJCHh0dQUJCPj8/169epllfUtdd4uyQNOy5yiNZstBEcx8vKyrq7F52JQderVKrHxcVfHT9+4cKF7Oxs7dvWCO3SjVOpVE+fPm3prEQiKSoqaqMp0ygtLS0tLe10s+2Vu9MvMSiA1/kr6pCPTaaLfNwSKDq3SmNj45YtWxcGIkMAABk3SURBVDw9PT/44IPu7ktn0pLrVSpVTU1NWVkZXD/6nHvVe2mXpKE+LYkcdr6uIIfD8XBxWcDjKZVKS0tLa2vrlp50adOuRDAcDkcgELR01trauku11wAAbm5uXWG2XZKG+iVI5LATefDgwXfffScSiWbPnn3+/Hl6Lc2LDYfDQX8/JtAuuTt9TBPAMzGDKPKxaXSLjxHaEATxxx9/bNu2rby8fNmyZTt27Ojqb3rEi0HbJQ31MU3kEOV3ft48fx8jaFJSUlavXk0QxNKlS2fPnm1mZtbdPUIgWgRFZ8RLBI/H27Rp07hx44w8zUcgeggoOiNeZG7fvn3x4sUVK1bAl0YWR75gREREpKSkdHcvEK0AF9u1BIrOiBcQgiCSkpK2bdtWWloKF2O8hINle3v77u4CohXq6+uNnEXRGfFCUVFRsX379oMHDw4cOHDt2rVjxozp1Xv8EC8z6A8X8YJw//79uXPnBgYGNjQ0nD179vTp07GxsSg0I3ov6G8X8SKQlJQUGxsrFAofPnyYkJCAhKP0sbOzGzp0KMxXYxxXV9ehQ4eiL7ZuB81sIHorBEHQ26AmTJhQUlJCp99CdISXcI6+s8jLy8MwzNvbu1M+wxczOkskkurq6v79+7dlEyOi11FVVfXjjz/u37//wYMHdnZ2AACY8hHRFqysrDw9PcViMZ/PJwji6dOnDQ0NAACBQODs7KzRaJRKJawpFAqdnJwoihKLxTBdopOTk7Ozc0lJiVqt9vHxEYvFz549068mFAodHR0xDGtoaGgpedALiUKhyM7Ovn//flhYmKenZwdjtIk/XrpOOzI1NVU7yb1BysvLaXFGZ2fnWbNmNTY2wlOVlZXDhw8PDAycNWuWk5PT6tWrYcLSmpoanU+Kx+OlpqayWCwXF5e+ffs6ODi8+eabMLlzbm6us7OzdmWJRIJhGFcLneSliOdDZmZmXFxcUFAQk8m8efMmDM2IdsFkMnk8npOTU01NDZfLhUkLzM3N3d3dVSpVQ0ODg4MDAIDH47m5uYnF4pqaGqFQ2LdvXwBAbW0tk8n09PT08PBgs9nV1dX61aytrd3c3CoqKioqKpycnGxtbbv5DT93ZDJZRkZGampqTU1NR+yYEp3rJJIz2dk+Y8cmZmWV/q9sVccZM2bMvn37Wq1mYWFRV1dXV1dXUFBgbW1NJyR85ZVXxowZU15efuvWrYcPH546dWrHjh1G7Hh4eFRUVFRWVpaWll67du3EiRMt1WSxWCotjNREdDo4jicmJg4cOHDBggVxcXHFxcXr1q1zcXHp7n71YkpKSioqKurq6ng8HoZh8HsuLy+vvLwcjnUcHBxIkoSDG4Ig4Po8kiRhIkZbW9vCwkIcxx0dHXWqwWGQUCjk8Xg5OTn0yOllQywWnz179sqVK1Kp1DQLna8rKBKJPv7440mTJgUFBW3ZsoUkSW1VQACAvjDghg0b+vXrFxoaeujQoTt37mzYsAGW66gRGsTKymr9+vUZGRl3796F2ZPXrVsH/z6cnZ0XLVrUxjX5lpaWQqEQbe3tacjl8oSEhKCgoN27d69atSo7O3vBggWWlpbd3a9eD1TspCgKvuRwOBRFwUI4s2Fubg7XiTMYjMrKSrFYTDeErWBE1q8mkUgePXokk8kcHR2Dg4NpMY2XEIqiSkpKRCKRfubottD5uoL19fUHDhy4ffu2QCCYOHFiZGSkWq2GqoAzZsyor69fs2aNtjDggAEDjh07Br9jR48evWnTJqjMRCtO0mqEgYGBBnvF5/MDAwMfP37c2Ng4aNAg7RmM1157bdmyZXK5vKV3VF1d/e6771IUVVhYqFAo9JOC0xAEoS31OH/+/PDw8HZ9eggTqKury8zMPHTo0MCBA7u7Ly8y9fX1Li4uQqFQIpHAYbJUKrWzs5PJZEql0tXVFYZs+MgLynV7eXndu3dPKpXa29trV3NycnJxccnPzy8qKoqIiHiZH9ViGObn5xcSEsLlck1o3iW6gmPGjIH5eubMmZOcnDxx4kSoCggA0BcGLCoqmj59Oo/H4/F4V69evXHjBjSSnJyso0b45ZdfttQxOHGcl5enLaAFAFAoFGq1GsMwgznh2Gy2lZXVW2+9BQAQi8WrV6/evXu3tnigNgwGAyocQlCKvq7jxo0bAwYMgAJdrq6uiYmJ3d2jF5+mpqaGhgahUOji4iKRSLhcbmVlJYfD8fLyYjKZUqkUTlC4urpaWFjk5uaSJBkYGOju7l5SUsLlcrWrkSTJ5/ODg4MxDJNKpVVVVd395roHgUAQGRmpI8vXLtoXnduoHUk/q4EPGcB/VQGBIfHHY8eO0dqm2qmiDSpOGkShUNy4cWPgwIENDQ0//PCD9kKr8+fPe3l5mZubm5ub8/n8srIy+AyksbGRyWQ6OjpaWFjQipAcDufrr79uKTpjGDZjxox2fVyIdoHj+IkTJ7Zu3SqVSn/77Tf6rwLRKTQ0NFy7dg0e0wclJSX0morc3FwOh6N9rxUWFhYXF7PZbJVKBUvKysporUvaiH61hw8fMplMBoPR6asGegW2traRkZEdfy7SJbqCmZmZarWaJEmRSKTz819fGDAuLg5OdMhksrCwMNrBbVQjVCgUCxYsmDBhgoODw+uvv25pabl9+3Z4SiwW//TTTytXroQvw8PDadG/gwcPhoaGas+B1NbWpqSkoF0M3cLTp09XrVrl5uYmEol27Njx4MEDFJq7BXjbapeQJEnfkkbQr0YQxEsYmjkcTkRERFxcXKc8sm5fdG6jdiSHwxk2bFhwcDBBEAsWLNC2oC/+GBMTo1KpAgIChgwZsmzZMnrhqnHFSblczufz+Xx+QECAmZnZ/v37AQBcLvfPP/88ePCgu7t7VFRUQEDAu+++C2dUAAB79uz55ZdfoBTjTz/9BJsUFRVBO4GBgWKx+KuvvoKVa2pqrP8LVHfHcdxai7Fjx7bro0MY5Pr16zNmzICZujIyMhITE41n7UIgejIBAQEDBgzorG2W7d6NwuFw+rm4LAXg+K1bQ9zcHB0dhUKhjY2N9r6PqKio7du3NzQ0wFXDMTEx9OwBAGDLli1NTU11dXW0ltW5c+eqqqr4fD40AofJbDb70qVLxcXFZmZmcK0ljaurK/2sWQd/f/979+5VVVXV19f7+vpq98rV1fXhw4eVlZUkSdKyWPAhtb4R/YmUlq6IMA2FQvH6669nZ2cvXLhwx44dL/OTfQTCIF2lK8jlcnU2dGijLwzYUuV2qRFqW2vJoE6gR3QX5ubmixcvHj9+vGmPsxGIFx4TR+BQV9DV1dXOzk4nNI8ZM+aDDz7ojL4hngdwgXlpaSkAgCCIEydO3L17tysuVF5evnLlytTUVLpk8uTJKDQjEC3R+WmoBAJBUFBQp5tFdAXPnj0bMWLEvn37IiIiysvLP/nkk6tXr3700Ud79+7txKtkZWXFx8eHhIQoFAp/f/9OtIxAvMC8mFmQEG3k5MmTK1euXLNmzdSpU2NjY+Pj49evX19dXT1jxoz58+d30LhcLt+zZ8/OnTtZLNaKFSsOHjyItmI+T4zrbiB6Pig6v9Tcvn179uzZAICEhIS+ffvCZ6SWlpYd3EFQXl4Oc8gNGjRo79690dHRndNdRJshSKrWyovA0A3ec2FSOL/5iZEKyHkvNbGxsampqaNHj/7++++//PLLNWvWODs7V1RUjB8/viNmZ86c6e3tffbs2bCwsM7qKqJdEBTFJpQECyUk6bmwCSVpdCUYis4vNZMnTz579qyHh8f8+fNXrVpla2u7bNkyGxuby5cvt9eUQqGg16pfvXoVZdbuXhxsbUi5RImicw+Gp2m0tzW2zxuJ07zUWFpaJiYmFhQUfP755wCAhQsXVlZWlpWV+fr6ttGCRqP55ZdfBg0a9O9//5suRKG524mMjGRrmtmEsrs7gjAMh1CwNNLBgwcbqYPGzgjAZrPp47YnbYGTy4mJibGxsTt37kR7/HoUFhYWTn34lLi8ludBotnnHgaDwu3k5S7OTsafk6OxM6LdZGVlzZgxA6b0vHbtGtp+3TOJiooy57D5shI22XqiDMRzg00q+dJiCzPuoEGDjNdEX6qIdpCWlrZx48ZHjx69//77O3fuhBJHiB7L+HFjb968CaqKcY6VnGWtZpqjVRzdBZPCOYTCXCNha6SCvs6RkZGtNjHRVZL6uvSTScMmTbG0tdX+XWwCn376qaenp0AgSEhIOHnypMl2Jk+eLJPJLly4oFN+6NChW7du0YnrtElNTe3IRWUyWWJi4qJFi4xX4/P56enpFEUFBATs3Llz4cKFsLxPnz7Z2dlvvPFGTk4OQRAKhQJKfixYsOD7778HAEybNi0xMRFqdC1cuPDYsWOwYVZW1g8//KBWq5csWTJy5EgAwNGjR5ubm3USTnUFxcXFc+bMmTlzpsF82YgeyKBBg+Ry+fXrN5jNTzEMY2CAgSS3nzskRZEUoCjK1tp6yOixbV34Txll3bp1+oUNYvGFIwekmZeSNn9bXJCvUqmMGzHOqlWrdu/erVAoxGKxyUZkMpmZmZnBU4mJiUuWLDF4qoMXraysdHNza7Wao6Njbm7uo0ePrKys+vTpU11dDcv5fH5FRQU8fvTokaOjo3arpKSk9evXw/7HxMQIBAJYXlNT4+npef78+czMTFdX17KyMoqiNBpNeHi4RCLRubRB97WL4uLi5OTkDhpBIBAm0O5558a6urt/pg719WFoVKM9hHcO7K4oKdYRftXWCYQl+gqB33zzjY+PT0xMTEFBAfhvtgcAwLfffuvj4zNx4sSVK1eeOXPGYFt93n77bRzHoU729u3bw8LCwsPD6XSgxcXF0dHR/v7+mzZtIgiC1jl8//33aQ1DnT7rG0lPT//ggw9mzpzp5uYWHx+vUqneeeedqqqqOXPmAENiifo4OTnNmzdv+fLlbfmcN2/ePHPmTABAdXW1dtbp5OTk4ODg2NjYoUOHjh49GmZAZ7FYsbGxR44caYvlNpKenj5t2rTw8PA7d+50olkEAtFWjAdvncFXg7j2wpEDitvX5Olp0pRjkgM/1n635vfF84oe59Ij6Pz8/JCQEKlU+vTpU29vb7lcnp+fHxQUVFBQoFKphg8f/vDhw9u3b/v7++fl5d27d8/BwWH37t0ikWjy5MmPHz8eOHBgfX39rVu3bGxsDhw4oN/WYD+bm5udnJwoihKLxaNGjWpoaFCr1X5+fgUFBYmJiZaWlvfu3Xv27FlUVNSlS5fS0tJYLNbevXuPHz8+efJk/T4/ffpUxwhFUSKRiMfj3b17t6amJiQkJC0tjR4719XV9e/fv6CgAPb/jz/+0O4bPXb28vKSy+Wenp6XLl2ijI6dSZK0t7fHcRy+fPLkCT12Xr58+WeffQaPv/zyy5UrV8Ljffv2wfei4762/yWsXbuWoiiZTLZ161Zvb++goKCDBw9CBTkEAvH8ad/Y+WryH4P7uVPSJrKxnqirJWqryGaJH5dx7fejEokE1jl16hTUCRQIBFevXmUwGLRCIIfDgQqBIpEoPj7ex8cnJCREO439yZMn58yZY2dnN3DgwNjYWKClLki3Nd5DBweHpKQkkUj01VdfVVVVVVRUAADGjRsXEhLi4uIya9as06dPAwCgziG9e0Knz46OjvpGAAAjRowICwvj8/lRUVHFxcX0RZOTk6FYYlZWFhRLbKl75ubmP/7446JFi3R+behQWlpqb29vcNUw/B6Cx1CUEx77+vpCtVyTkUgkH330kaura2Zm5r59++7fvz937lyUQw6B6C7aF51HvPbGpVu31fVioq6WqKlUN0lqpLIsgt132EhaV7CoqMjW1hYeW1tbs1issrIyOrc6VC2rrKykS7QTPefm5tIREwoD67c13sOcnJyQkJDy8vIhQ4bQsoS0BQ6HA9WqaJ1Dg32GQ2kdIwAAWl2YyWRSWlswabFEtVo9atQoOMHSEhMmTAgJCYHP/VqipqaGxTL8wDY8PJwWdqutraXTAXK5XCiTajI7duyQSqWXLl36/fffUWYMBKLbaV90trSxDZr02oW799W11ZrmplqZPBNnCcZN0tYV1NEJVCgU+gqBU6ZMEYlEOI4rlcq0tDTafnBwsEgkIkmyqanp3LlzoM3qgjSpqamTJ09etWpVVFRUfn4+LLxy5YpKpcJxXCQSGbSg0+dTp07pGzEITBukL5ZovJNbt26FobClCl5eXsXFxTiO65+KjIw8f/48QRASiSQ5OZleaFxYWGgwcWvbf0ZpNJqff/5Z+9sIgUB0I+3WFezr6hY+5x+Xisurm6XXcJZw3CQdXUEdnUBLS0t9hcCYmBiJROLn5xcWFubn50fbX7hwobOzc1hYWExMjIuLC4fDMa4uqM8bb7xx9uzZuLi4GTNmjBo1avPmzQAAe3v7qKgof39/OHmt30qnzzNnztQ3oo+Tk5O1tfW8efP0xRKNd9LZ2XnNmjXaKuY62Nvb+/r60mLJ2oSGhg4ePBiqI44fP56Ozk+ePEFptRGIFwmMMpok6Ysvvli7dq1OoVqtflZcdOP4b32GDDeoKwgA0NYJhOgoBFIUVVhYKBAI6KkMAEBZWZlcLvfy8mKxWOPHj9+4cWNoaKhO20ePHun0x9vbW3vNNUEQFRUVrq6uAIC6ujq4Y0KtVtfW1tJyggbR7rNBI/pQFCWTyeA6ZR2xxA6yY8cOuVy+YsUKg2erq6vZbDac/IHExsYePXqUz+drVzPoPgQC0SswUVdQ4OEZs2CxEV1BfVk/nbCFYZiXl5dOHSaTGRcXN2/evLS0NI1GExgYqN/21q1bOq3c3d21ozOTyYRRFQBAR1UOh2M8NOv02aARfTAMg6EZGBJL7Ajvvffeq6++unTpUoP7PugHg5BLly6NHTtWJzQjEIhejYl7BaGuYOd2BQAgEAjS09MvX768YsWKkSNHGtyF+Pbbb3f6dXsgbDZ73759KpWqLbvy3Nzchg4d+hx6hUAgnhs9btO9s7Mz3IWBEAqFbazZv3//Lu0JAoF4/qAcdQgEAtETQdEZgUAgeiKtrNlISUl5bl1BdAWTJk3q7i4gEAhTaH3eWXvZFqJ3UV9f391dQCAQJoJmNhAIBKIngqIzAoFA9ETaHZ3t7OyGDh2qk0XIIK6urkOHDmUw0BcAAoFAtJsuDJ0YEsjpbPLy8vLz840/yEUgEC8Gpu9GsbKy8vT0FIvFfD6fIIinT582NDQAAAQCgbOzs0ajUSqVsKZQKKRT48Psl05OTs7OziUlJWq12sfHRywWP3v2TL+aUCh0dHTEMKyhocFgSqCXDYVCkZ2dff/+/bCwME9PT/T9h0C8wJg+dmYymTwez8nJqaamhsvlurm5AQDMzc3d3d1VKlVDQwNMT8Hj8dzc3MRicU1NjVAohJmMamtrmUymp6enh4cHm82urq7Wr2Ztbe3m5lZRUVFRUeHk5ETnX0bIZLKMjIzU1NSampru7gsCgegqOjqzUVJSUlFRUVdXx+PxMAyzs7MDAOTl5ZWXlzc2NgIAHBwcSJKEWfMJgoDr80iSfPLkibm5ua2tbWFhIY7jjo6OOtXgwFAoFPJ4vJycHGgNQSMWi8+ePXvlyhUjeaIRCETvpaPRGaafp2dCORwORVGwEM5smJubUxSFYRiDwaisrBSLxXRD2ApGZP1qEonk0aNHMpnM0dExODiY1jdB0FAUVVJSIhKJmpqaursvCASik+nkp4L19fUYhsGMz3CYLJVKmUymTCarq6uzsLCAERnDMG9vb6VSCbM5M5lM/WpOTk4eHh5Pnz7966+/SJKkVaMQNBiG+fv7v/baa52YuRSBQPQQOjlHXVNTU0NDg1AodHFxkUgkXC63srKSw+HQIRhOULi6ulpYWOTm5pIkGRgY6O7uXlJSwuVytauRJMnn84ODgzEMk0qlVVVVndvV3o5AIIiMjLSxsenujiAQiC6h9TwbJuzk5nA4OgqtDAaDzWarVCrjDfWrMZlMBoOh0Wja24cXknv37mVnZ9va2kZGRrq4uLRav76+HuXZQCB6KV2S31mtVuuUkCTZamg2WI0gCDiLjQAAcDiciIiIgIAAtMcHgXjh6XHZ9xFGCAgI6O4uIBCI5wQagiEQCERPBEVnBAKB6Img6IxAIBA9ERSdEQgEoifS+lNBpK+BQCAQz59WojNBUrVWXgSGlnb0PpgUzm9+0t29QCAQJtLKzAZBUWxC+Xy6guhc2ISSRJmgEYheSyvR2cHWhqeRPJ+uIDoXnqbR3hbt80YgeiutROfIyEi2phkNn3sdHELB0kgHDx7c3R1BIBAm0kp0trCwcOrDt1eUMyj8+XQI0XEYFG4nL3dxdjIzM+vuviAQCBNpfUVdVFSUOYfNl5WwydYTZSC6HTap5EuLLcy4gwYN6u6+IBAI02klRx3NzZs3K6qqcY6VnGWtZpqjVRw9DSaFcwiFuUbC1kgFfZ0jIyO7u0cIBKJDtDU6AwDkcvn16zckzc0YhjEwwECSoz0GkqJIClAUZWttPWRIFJrQQCBeANoRnREIBALx3EA7uREIBKIngqIzAoFA9ERQdEYgEIieCIrOCAQC0RNB0RmBQCB6Iig6IxAIRE8ERWcEAoHoiaDojEAgED2R/wN9l1q7IEMwVAAAAABJRU5ErkJggg==;" vertex="1" parent="1">
          <mxGeometry x="1315" y="90" width="225.23" height="71" as="geometry" />
        </mxCell>
        <mxCell id="hAuHUI22cmVRYy7zVz07-20" value="" style="shape=image;verticalLabelPosition=bottom;labelBackgroundColor=default;verticalAlign=top;aspect=fixed;imageAspect=0;image=data:image/png,iVBORw0KGgoAAAANSUhEUgAAAd8AAAC+CAIAAAD7vZJEAAAABmJLR0QA/wD/AP+gvaeTAAAgAElEQVR4nO2deVwT19rHzyQQlkBYI0gQXABRBAREUHEFl1JRq1Vwu61Kfav33rq01VZ73W2tV32r1bYutSpae1urqIAouAIqrmBVVGSn7AECZM/MvH/MvfPmJiGBEEiQ5/uHn8mZc555kvg8nJw58/wwkiQRAAAAYGIwjO0AAAAAoAHIzgAAAKYIZGcAAABTBLIzAACAKQLZGQAAwBSB7AwAAGCKQHYGAAAwRSA7AwAAmCKQnQEAAEwRs7Z3FYlE2dnZDU3NDAxjYIiBYZ3nFtA1ECRJkIgkkYMdJzw8zNLS0tgeAYYHItfo6BdoWBuf5L53715FVbWCZSsy48iYVjjWjrQOmDJMUsHCxVZygbm8hdfbNTQ01NgeAYYEItdE0CPQ2pSdL19JE0vl9WwPOcPCEH4Cpog5IXEUlVlbsCZNjDK2L4BhgMg1QdoeaLrXne/cvSuWKWpt+sEX/GYjZ1jWsvuJpLJ79+4Z2xfAAEDkmiZtDzQd2VkkEtXU1NZbuRPwg6gHQGBmDdYelVXVEonE2L4AHQIi15RpY6DpWNm4efNmjZist+QpN/64Qa7z8o6urIjpxRxHroWVdRs9BkwEJ3E515oxduxYYzsC6A9ErumjM9B0/F3lNwpE7D4qjT5D7RkMhFF3fqncjiFE/vtfgiRJEtnYM5/dz/QLjeDyPDv2FoCuRmhux2wsN7YXQIeAyDV9dAaajuzMxDA500qlcc6HvaYNNkMIESTCCepfEieQgkQKHCkIUqZA11+KTu4pkQwJ7uAb0EJ5wYtt8dOmL1n11oJl7R0r4Nd+Nnv0mGlz567c2Bm+dWvkTCsMNl11czo1cjsvfC6fPuTSp//QiE6/L91lF9KCzkDTlZ0ZGI6prk1jJNksUpTWiOQ4yWQy7NjmlQ0SuYJ0srOqrBdL5aQXj4PLFR31vZMhSYIkCWN70UWIGqobSl5qPOXgOdDawUW5hcDMzBiQnbs3nR25nRQ+54/8b9CYSV2QNDvpQoYNtLbcMVAdT5AkTiKJnJDKcDMzpiXLTCwlpArSRk4IpYRMKm8Wi+UyWWvmnty+dvHYvqb62gFDQuat2mxj51CW//yXfVuGR8U8zb5VV1E2ae4HZmbml079wLKw/MuaL2VS6b++3TrqrXef3btVXvhyeOTUt9/7G4PB1G4TIZSR9K+biadELc39/YZOiov38PZ7fj8j8fAemVQ8Ztpc5eGUA38WvrR3domavThi6pw2fCzdCSuOU2HpS5lQoNLOYtv19h+p0ghSZm8KBo5cjeGjHnrFL/7QGLDq8Vhe8OLUng3jZsx/fOuyT1B46cunJEnkP3lw8ad9MYs+UumPIUxLlnDr56PRmaqSgoRd64dHxeQ9yKosfj109KQZH3x8fMda5QsZMPwNG2j6PMlN4DhOILmCkCpImVwhw0mpnJTKFFIFKZURMrlMIlXgCs33H/4sfPX9F8slwpZBIaP+uHN9/2cfIITEopaCp4/OfLdDJhFXlRae2v2P099ssmLbFL948q9vt4mFzUXPc37Zt0Uiammqr00+ceDWhV902qwuKzq1+x8YgxE0euKTrGvHvlwjl0m//8dfy17n2Tu7nP/xf+nhwmbB7pULSl4+DRgZKRY2n9z9RU5muh4fiymDMc3cAkapt7sFjGIw4Z5+T6EjkasxfDSHs6aAVY9HhJBEJCx6nvPL3i1P7lxnMpm93PsihKys2Y4uvdX7a88SrTkjEYsKnj76df92YZNAIhZePn3o9R8PlC9k2PA3bKDpk51xnKCWq3ACKYh/r1gpcCTHkYJuUeAax96+dIYkicXrd81duSls0vTiF08qil5Rp6JmL1q158SYaXEKuSx+4zeffvsLl+dZVVpInR351qwVu459ceQCQuj+1Ys6bRIEPufvXyzb9t3oqbG2Do61FaWvnzyQSyXzVm9eufv423/5Kz08O+28RNQy+6/rFq/ftWb/rwihm4kn9fhYTBwHz0HWjq7KLTbOPAfPQcbyB+h6OhK5GsNHSzirBKx6PNKWe7l7bj5xeez0+dELl2MYw91r0Kjo2a3115IltDgTNGbyx3tPLdv2PULo6d2byhcyePgbMND0mTcRCgVOmOMkwgmEYaScJBX//nbpA0QoNK9e8avKEUJf//X/fzvUVZZbsm0QQtRyhLWtHULIkdsbIWRpzZYIW6hu/QYFIoS4bh4OvXoL+DU6bQ4MHlHy4o8LP34jk4pZFlYkSeY9vI0Q8g4IRQgFjoo6e/CfVOfaP0sQQv39ghBCTq48jiO35s8SPT4WEwfDsD4hE16ln6b2UGIYxgsaC3f/ehQdiVyN4aMx9MwtLJFawDq68FTikR4SMDKS6+ahcrnW+mvJEhqd4ThyEUIe3oMRQmxbO4SQXPpfW4wNHv4GDDS9sjOukONIjiM5jpMkUiiQDEcKnJApCAVOKHBSjpN4K98xm+OAEFq154STqzvVwnF0Kn7xR2vXot9VyaunI6bMlErEAn6Nh7efTptp//oxO+38u8s/Hx0Tt+/TRSUvnzq6uCGE6qv/dPXoL6ivpYfb2DkihGrKi/t4DRILm5sb+J4D/8v+GwPb2c3O3bux7BVCyL6PD9vZzdgeAV1KRyJXY/hoDL2Cp4+RWsCm/6oaj7RlS00bq7X0V4fKEhqdqSh6jRDC1G6Q0nRG+Bsq0PRZ2VDIcTmBxDKFTCqVSGViiUQmlcpkUrFYIpNLFXKFHCfxVn4fDQwKQwhlJv9aV1l27KtPd/51jkKue4c8QujBteTsK4nHvvyUwHHf4BE6bUrFYoSQ58Ah+bn3Cp89RiQZOHICQijx8J47l8/9/v0OevjQiCgMw1ISDjy4nnJy1xckSQRGTNTjY+kW8IaOxRhMjMF0CxxjbF+ArqYjkasxfLSEs0rAqsejxqtgDIxfVV5VWtjG/sq0K7fQF+qk8DdIoOkzd1YocIUCt2DiJJNAGFLIZWYMHDFJhVxmxiAwcwZOIBLX/B0Pj5pWXVZ8+9KZ+1eTLKys53+81dqGo+1i/5k79/UNOL13s0QkHDAkeGJcvE6bI9+alZ12fveK+S7ufQcGhb94dAfHFRNmvXft9+PHd6yNeHs2/deY13/gnL998fv3O45sWYkQChn3VuS77+nxsXQLLGzseg0Mpg6M7QvQ1XQkch169VYPHy3hrBKwzQ18lXisqyxTv0r4pHfuX036/fsds5Z9ptJfZT3zv8Aw7c5oudBfvzrUGeFvkEDT8SR3UlLSnzYDVRqZUosJwS5CsUwikSsIEicZcgIpFLiCxHASwwmEMcyfPS26euF/wye/08dLw3I4SRI1f5Y6ufLMzMx1upj38PbeT97/y5ovh0+c3tJYb+/sorGbuk2SJBpqKh1d/uth1uZGPkmSHAdnleFymbT2zxI7p15sjr1Ol7o1CpkEIWTG0lZhltfycurUqV3lEWB4OilyNYaPSui1FrAa41EdXKFQyGUWVtZt7K9C23MLfSHUOeHf8UDTZ+5cVy9OuV2GUzeASZIkEEmSBEkdYyQiEUJikVSLBQxjuLj3be91zczMW0vNGm1iGEP9q7W1d9I43JxlQW2ZfOPR/t8FMEEqKipWrFhx586doKCgixcv6h7QCh2PXI3h01o4qwSsxnhUh2lmxjQza3v/Njqj5UKoc8K/44Gm18oGUZZ1PbNW151NLs9T43p/e3Hu7R69cLm7pr/kANATsLW1/fLLL8+dO5eZmdkRO10TuRCwhkKf7Mxx5PqFRuisoWFpZU1tZ+kgXDePaYtXdtwOAHRTbG1tbW1tO779sWsiFwLWUOiTnS2srKF+FQB0OyByuxegyQ0AAGCKQHYGAAAwRSA7AwAAmCK61515LZrLlQIAYMpA5HZ3dGTnhw8fbtwI6iE9js2bN8PTKKbDH3/8MXny5JaWFplM5ubmtmXLlvj4eO1DIHK7BdoDDWr7AoCp4+/vX1FRYWwvgK4G1p0BAABMET2zs7D4U2Hhh7hCpL1MBwAAJgVEbjdCn+wsfDWOhd82Z/4hfeLdyC9QtFIQto18/vnnhw8fTklJmT59envHcrncFy9eIITy8vIwDPvhhx/oU7169Ro2bBiHw2Gz2QwGg8PhcDicTz75hDr77rvvikQi6pjP58+ePZseeOfOnXnz5r377rs3b95ECJ0+ffrQoUMdeYMAYCJA5HYv2r3uLKk6ZMn1JcT5GOZlaV7HL1hBeic4ODh08DHTCRMmhIWFdcSCra3txo0bZ86c2atXL6rl4sWLvXv3zsvLGzNmTG3t/5fbT0xMDAwMtLa2RgglJCQcP36c+o+CEKqtrV2wYMHBgwetra3j4uKysrJmz54dFhYWFxfH4WitdAoApg1Ebrej3XNnjGFFEo1MJmIKs5FCIRY2CQQCgvgv7fTt27f37dt36NChCQkJVMvOnTv79u0bERFB/zX76quvfHx8IiMj8/PzEUIPHz7cvn07QmjHjh0+Pj7R0dFr1669dOmSxrEacXFxWbRoEf03Vgu7d++Oi4ujjqurqwMDA+lTiYmJAQEBUVFRI0eOHD9+/O3bt83MzKKiok6dOtX2jwgATBCI3G5Hu7OzRa+FwuoSQiokW5qbJc1/8N9T+dubn5//22+/PXv2LDk5eevWrWKxOD8//+TJk+np6deuXTt58uSzZ88ePnyYkJCQlJS0Z8+eGzduIIQEAkFBQcHLly9///337OzsLVu2HDx4sKamRn2sFt82btyYlZVFGWwNkiSfP3/ev39/6uUnn3yyfPly+uyrV68GDx5MHXt7ez9+/Bgh5Ovrm5qa2t4PCgBMCojcbodedwVt3seYFuKW+qfVYa5ug+zs7BiM/7dz4cKF2bNns9lsHo9369YtBoORmJgYGxvr5eXFYrFmz579yy+/JCcnx8bG+vj4BAYGTpz4/zox58+fX7hwoYODw7Bhw6KiohBC6mO1+GVlZXXgwIFly5bJZLLW+pSUlDg6OjKZTI1nm5ubXVz+XZHWwcFBKBQihAYOHFhQUNCeDwgADMymTZuwNrNp0ybNViByuxX6ZGcWi4UwhCMzAWuZp6enSm3DwsJCe/t/6wtwOBwzM7PS0lJ6RUmhUBAEUVlZSbcorwrl5eVZWVlRx46Ojggh9bHafZsyZUpgYOCuXbta61BTU2Nm1upqe3BwcGnpv7XZa2tr/f39EUIWFhZsNlv7dQGgU3n+/HnbO2/evFljO0Ru90Kf7Ex9owxS7GBvY2trq/KRxcTEpKam4jguFAqDgoLEYnFMTExycjKO4xKJJCUlJTo6evr06cnJyQqFQiKRpKen02MDAgKSk5MJgmhqarpy5QplTWWsTve++eab/fv3t7S0aDzr5eVVVFTU2t3q0NDQtLQ0HMcFAkFiYmJISAhCqKCggPqyAaDrIQhixYoVaWlpbR/S2lOCELndC/2fRiExBqlpy0dkZKRUKh08ePCIESNWr15tY2Mzfvx4gUAwaNAgX19fNpsdHh4eGRkpEAh8fX2DgoJ8fX3psR9++KGrq2tQUFBkZKSbmxuLxVIfq9MxV1fXDRs2iMVijWcdHR0HDhxYXFys8ezQoUPDwsL8/f19fX0nT55MfcevX7/u1t8x0K3h8/n5+fl//PEH2WZaXdlACEHkdiN0fs0a25ufeZdkjn306FFzc7PGDpWVlQqFQrmlsLCwoqKCfkkQRH5+vkgkUu5TUlKSl5cnl8tJkpw0adLjx481ju0g33777ddff62lQ1VVFZ/Pp19GRkbW1NQY6urdgta+d6C7AJFLdofI1R5oetbZwHn3FZZ8VysrFoulsYOrq6tKS79+/ZRfYhjm5eWl0ofJZMbExCxatCg9PV0ul/v5+Wkc20H+53/+5+233165cmVrztO3FxBC169fnzhxIpdrAAkuAGg71dXVyv8PDQVEbjdCz+xsZ2dnZ2dnWFcQQjweLyMj48aNG2vWrBk7dqy5uQ7Nc/0wNzc/evSoVCpt7TtWxsPDY+TIkZ3hBgC0xunTp1esWPH06VP6xpqhgMjtRphcjTpXV1d6w3nn4e7u3saeAwYM6FRPAEAZHMdXr1598eLFa9euGTw1dyoQuQbH5LIzAPRYBAJBbGysVCq9f/++k5OTsd0BjAxUEAUAk6CoqCgiIoLH412+fBlSM4AgOwOAKXD9+vWwsLD4+Pgff/yxLYuqQE8AVjYAwMh89913GzZsOHXq1OTJk43tC2BCQHYGAGNCkmROTk5aWlpQUJCxfQFMC8jOAGBMMAzr7kXigU4C1p0BwAjU1dXhOG5sLwCTxgjZuampqTPM1tXVVVVVdYblpqYmqVSq3k49M9oZVwTebHJyckJDQ69fv25sR95Auj4PtAX9coWe2bm+qemnS5dqGxrkcrnOzsrKY9OmTXvnnXfoU2vWrHn//ffpl48ePeJwOFQZlLq6OhaL9cUXX1CnJBIJhmFOTk5OTk7Ozs6+vr4//vgjdaqoqCg8PHzEiBGTJ08eO3ZsSkoKQqiwsFDlmShbW1u6hIqKce32Fy9eTE1zTp06NXHixLlz52ZlZSGErly5cvjw4bZ/aACAEEpISHjrrbcOHTpE1UHuYtoVue0iISHho48+0mOgliSAujYPaDGOlPIA0iVpqN6iZ67Qo0hHXWPjyVu3MuXyXcnJ+cXFUqlUuxGxWFxXV0eSpFAotLS0VD6Vm5trb29PW/j888/fe+896njfvn2jRo3q27cvQRCUEYQQXXvl0qVLGIbV19crFApfX989e/ZQ7ffu3XNzcxMKhQUFBRwOR/laNjY2RUVFGo1rsX/u3LktW7aQJJmfn+/h4XHlypWLFy96enqWl5fL5fLg4GCBQKD97XdHoApSZ4Dj+Nq1awcNGpSfn9/Z1zJI5LaLEydO/P3vf9djoJYkQHZtHmjNOEmSdB6g3mlkZCSPx6Ne1tTU9O/fPy0tLSsrq0+fPqWlpeotreUK7YHW7rkzXyC4/OTJwIgIGZPZd9Kkn/74o7iiQlnRICMj429/+1tcXJyHhwf14BOtPPbee+8pFIpZs2bRnQMCAvr06UMXij1z5szChQup4+PHj+/evZvBYFATVRXGjRtnZWUlEAhSU1MZDMbKlSup9tDQ0B9++EFZKVIj2o0r26elzH777beFCxdOnDhx6tSp4eHh165dewOEy4AuQygUzpkz58GDB1lZWepVhLoAPSIXqWkDZmRkxMfHz5kzZ8CAAdu3b//00089PDyio6Obm5vRfx6oGTRo0M6dO6lp5t27dz/66KMFCxZs3rz5559/9vPz8/X13blzp7JjWpIAMmoeoI2jdkoaGkrksH17NvgCQeqTJwMjIkQItSDUxGRyJk/+3ytXViLUz82N2kXf3Nx87NixjIwMd3f3iRMnZmZmSqVSSj/mp59+ysjI+P3335VtLliw4LfffouOjn7y5IlQKBw/fjxC6NmzZ01NTWFhYbGxsadOnYqIiKA6nz17lsViSaXSpKSkqKiovn37njlzZujQocoSDzExMQihwsJCkUikrOVO/1Zqzbi6fU9PT1rKzNXV9d69e1S3169fU1oVvr6+iYmJy5Yta9fHCPQ0SkpKpk+fPnbs2F9++UWLwEfnoV/kenh4UNqAHh4eUVFRo0aNam5uPnr06N27d52cnHx8fNatW/fq1SuqbD9C6MaNG5mZmVwud9asWcOHDx83bpxQKPz+++9/+OGHiRMnTpgwgaruv2DBAm9vb+UVTo1JABkpD6gbJ9UkDQsKCv71r39RL9UlDXEcV2mJjY3VI1e07z/KuczMQZMnNyPUjBAfoRqSbEaI5e//r+zsZePG0cX6xowZQ23eDA8PLyoqcnNz02Jz3rx5gYGBcrn8zJkz8+bNo4TOjh8/HhgYeOXKFS6Xe/Dgwb1791Kds7KyzMzMZDJZbm7u6NGjEUIWFhaUhpg6LBZLeSGMVpdQN04/naViX1nKbNasWXv27Jk3b55QKBQIBDY2Nqj7C5cBXUB2dvacOXPWr1+/dOlSY/mgX+Q+evSI0gZECFHagCNGjAgJCRk+fDhCyNHRMT4+3tLS0t/fv6ysjMvlTpo0iZpUzp8//+LFi+PGjUMIDRs2bMmSJUePHu3Xr19mZiZCyNvb+9q1a8rZWWMSQF2eB1ozrlPSkM7FDg4O1dXVcrlcpQXplSval53fGTUq4erVPpGRTUxmDUk2KRTC6mp07VqEh4eyooG1tTV1wGQySV13Kt3d3QMDA9PT08+cOXP69GmEEI7j1P233377DSHEZrNTU1MnTZqEENq9ezclX/bixQt/f/+9e/cOHDhw/fr1crmcLlo4ffr0FStW9O3b18zMLDIykr4Q9eFqND5t2jSqj4r9hQsX0jMdDofz5MmTW7dusVgs6jca6v7CZUAX8OjRowMHDkydOtWIPugXuaWlpQEBAVQLrQ3o6elJtWAYpnLDjS6qx2Kx6Gmss7MzQqisrMzCwoJaSBk3bpyPj4/yQPUkgIyRB1ozrlPS8NWrV9QxLWmo3qJHrmjfurOdjU3MoEGPL1+uUSiacVxYXY2np0/icp2cnGxtbdtlSpkFCxZs2bKFyWRSf3jT0tJ4PN6xY8cOHz58+PDh5cuXnzx5UmWIr68vi8VqbGwcN26cp6fn999/T7VfuXLl1atX9C8jddpinLbv7OxMS5ldvHhxyZIlY8eOHTJkSFpaGqXE092Fy4AuYNmyZcZNzUjfyG2vNuDNmzelUqlCoUhOTlbpPHPmzKampvj4+KVLl5aUlFDTSWVUkgAygTxAG2+vpKGhRA7bl53NzMz6uLr+xc+v+MqV5spK8urVKb16ubu79+nTR1mgt73MmjUrJydnwYIF1Mvjx4/Pnz+fPjt79uykpCT1XdKOjo7Z2dksFuv06dNHjhzp379/QEDA3//+92PHjikvP6nQRuOU/ZcvX9JSZlFRUfn5+bNmzQoICFi3bh0lIdHthcuAzkEkEnXSrlv90C9y26sN6OjoGB4ePmjQIKlUSq0J0Pj7+w8bNiw4OHjIkCG5ubn0r1UalSSATCMPUMbbK2loMJFD7ZtdNG74kEqlL4qKtp05c/Xq1dzcXD6fryJEZhRKSkpKSkoMblZFyqy8vFwsFtMvTV+4TD9gR11HKC8vDwkJ2bBhgxF9MGDktksbUCqVlpeXt3ZWIBAUFha20ZR+dE0eUEdF0lC9RWOuMLyuIIvF6ufmtpTNlkgkNjY2HA6ntfXyrsTDw6MzzKpImfF4PPrUGyBcBhicGzduxMbGrlu3bsWKFcb2RRX9Irdd2oAsFks5RlTgcDgd+ZHdFromD6ijLgLZcZFDPTf3sFisHpKVtEiZvQHCZYBh+emnn9auXXvixIkpU6YY2xfN9JzINSztkjRUR79cATXqdNOalNkbIFwGGAplPcAhQ4YY2x3A8LRd0lAd/XIFZGcA6CgCgSAuLk4ikYAeIGBAoIIoAHQI6vHl3r17gx4gYFggOwNAh6irq4uLiwM9QMDgwMoGAHSI0NDQ0NBQY3sBvIHA3BkA9AHqqwCdDcydAaB9SKXSDz74oLa29tKlS8b2BXiTgbkzALSD0tLSsLAwe3v7ixcvGtsX4A0HsrNm3iR1MsBQ3Lt3b/To0cuXL9+3b59RyjQDHUEgELx69aobie12ha5guwB1MsOrkwGG4OTJk9OnTz9y5IgRyzR3nM6L3M6DKuGvs1tZWRkdd66urvPnz29sbKROVVZWjh492s/Pb/78+S4uLuvXrycIoqamRqVMEpvNLi4uzsnJMTMzc3Nz6927t5OT09y5c4VCYV5eHlX4jEYgEGAYZqGEsuqTYdBe+wPUybqFOpnBgSpIytB6gK9evTK2L22l6yO386isrPTw8NDZrbS01Nramjpuamr68MMPR48eTb0MDAzcsGEDFZ6VlZVDhgzZu3cvVcVU2YK1tXVRUdHjx4+9vLyolubmZg8Pj+PHjz9//tzFxUW5c2Njo5mZWQffmvF1BRGokxlVnQzoCCKRKDY29sGDB5mZmd7e3sZ2R390Rm5ycvKqVaumTp3q7++/Z88egiCU4w4hpBJ6OI4vX7586NCh8+fPz8nJuXbt2qpVqyhTa9asuXr1qkabGrtpt/z+++9XVVVR4aySSVrD1tZ2y5YtmZmZjx49okozb9q0iZopu7q6Llu2LCkpqS0fmo2Njbu7u6WlZbs/bkPQFbqCoE5mXHUyoCPIZLKBAwf+4x//sLCwMLYv+tOWyK2vrz927NiDBw94PF50dHRoaKhMJqPibs6cOfX19Rs2bFAOPQzDBAJBTk5Odnb2zp07Y2Njy8rKqMuVl5dTtZLVbTY3N6t002n52LFjYWFhCQkJ+fn5KpmEkijSCJfL9fPze/HiRWNj4/Dhw5WDesaMGatXr1YWhVGhurp6yZIlJEkWFBSIxeJp06YVFRWpd6P+itAv4+Pjg4OD2/fFaKV9c+dzmZl9R4xoRqgRoTpldbL796m5IQWlTsblcil1ssTEREqdjMViUepkCCFKnWzAgAEq6mQIIUqdzM3NjVIno2xS6mTp6emUOtmdO3codTJl9+bNm3fhwgXt6mS//vorPV/IysrKyMjIzMzMzc2lyv3pVCejoR8Ma7txnepkdMlBBwcHoVCo3oJAybDLsbe337ZtW7dOzajNkTthwoQBAwZYWlouXLgwMTER/SfubG1tExMTVUJv8ODBly9fXrt2rUKh0PJ7Tt2mCm23rDGTaIFaOK6urlZJxGKxWCaTafxOqbi2tbWdN2/e/Pnzly9f3tTU1No8ncFgjFPC4MX/ukJXENTJjKtOBuhBTk7O0KFDje2FwWhj5Do4OFAHUqm0oaEB/SfukKbQ8/HxefTo0W+//bZ27VonJ6fFixfTdqixrdlU6abT8sGDB6n+GjNJa4jF4uzs7GHDhjU0NHz77bc4jtMTo7S0NC8vL1dXVy6XW1paSpWEbmxsZDKZvXv3rqmpsVhPueAAAB4qSURBVLa2poOdxWJ9+eWXEydOVL8EhmFz5szR4kMH6QpdQVAnM646GdAuSJLcvHnz1KlT+Xy+sX0xGG2M3KysLJlMRhBEcnKyyo909dA7dOhQVlbWxx9/nJ6efufOHTs7u9LSUhzHGxoaHj582JpNJycnlW46Lcvlcur+U9sziVgsXrp06ZQpU5ycnN555x0bG5t9+/ZRp+rq6r777ru1a9cihIKDg+mAPX78uMqqJkKotrY2KSlJ+f5QV9IVuoKgTmZkdTKgzTQ1Nb399tvXr1/Pycl5kwrOtTFyWSzWqFGjAgICcBxX2TioHnqTJk365z//OWXKlClTpqxYsSIsLIza8jRjxgz6fom6zZCQEJVuOi27u7tzOJxFixbpzCQikYjL5XK53MGDB1taWv70008IIQsLi8uXLx8/ftzT0zM8PHzw4MFLlixZsmQJQujw4cM///wzFWLfffcd1R8hVFhYSNnx8/Orq6vbtm0bQqimpobzH6hf7QqFgqOExvl1h9Bjwweok+lNJ6mTGZyeuaOuqKjI39///fffl0gkxvalo+gRuSdOnFi6dKlEIqmsrGzNrHroFRcXK39cVVVVymdbs6nSTadlgiCam5up43ZlEmUqKyufPXumnqwqKiq0ZJtOxVR0BUGdDBlJnQxoCzdv3pwzZ45p6gEairZEroWFhcpjF8qohx59A4lC/T+wRpvq3bRbxjDMxsaGOm5XJlHG1dVV41vr3bu3fgY7G9AV7FKMok4G6OTYsWNr1qw5fvz4W2+9ZWxfOhctkTthwgSD3wjtDJs9B6gV0NV0vToZoAWSJDdv3nzkyJGUlJRhw4YZ2x1jwuPxtPxgNR2bPQfIzkCPBsMwc3Nz6pF9Y/sCAP8FZGegp7N+/XpjuwAAGoDsDPREXrx44enpST0u9EYSEhLSxlISgBGhtsm2BmRnoMdx8eLFpUuXnj17dsSIEcb2pRNxdHQ0tguADurr67WchewM9CAIgli3bt358+dv3brVrQvOAT0ByM5AT0EkEr3//vt8Pj8rKwvmlYDpA8pVQI+grKxs1KhRvXr1unz5cs9MzQ4ODiNHjqSrGmmhT58+I0eOpEs8AsYCvoB2AGKD3ZT79+9HREQsW7Zs//79oAeoEy2FZQDtvHz5khLQMYg1U9EVvHr1KlXnnjpISUlRLnVP8fnnn2tR1VPR6KPQIjaoIgaIQGzwDeXChQvTpk3bu3dvt9YDNCC2traBgYE8Hm/o0KH+/v50hU8ejxcSEhIQEEBLgbi7u4eEhAQHB9OFDVxcXAIDA+3s7KysrCgjGru5u7sPHTo0KCiob9++Xf32jIpYLL5z587vv/9eUFDQ8RytT3bmCwSXcnN9Jk48cedOyX+L3xiKCRMmHD16tO39ExISYmNj79y5o9K+YMGC8+fP0x6eOXNm5syZ1D6q06dPDx8+/NSpUyofYnl5OZ/Pr6ur++abbz744IOGhgYcx6Ojo2NjY/Pz83Nzc3ft2vXBBx+IRCLtLmm0r24cIZSYmBgYGEgVxVZ5I7W1tQsWLFi8ePHq1asXLlxYVlam3jJ79uyDBw+qF8YDKBQKRWpq6owZM4ztiKnAZDLZbLaLi0tNTY2FhQWVUq2srDw9PakSzFRxPjab7eHhUVdXV1NT4+7uThWjqK2tZTKZ/fv379evn7m5eXV1tXo3Dofj4eFRUVFRUVHh4uJib29v5Dfc5QiFwszMzJSUlJqamo7YMbyuIEJo3759QUFBwcHBVOU9dW0xpKYkpsLDhw+3b99OHX/11Vc+Pj6RkZH5+flUi7q2mIpGH40WsUHtYoAIxAbfFGbOnGms+rymTHFxcUVFBZ/PZ7PZGIZRM+iXL1+WlZVRUtZOTk4EQVDRiuM4tVhPEMTr16+trKzs7e0LCgoUCoWzs7NKN2phxN3dnc1mP3v2jBbG7mnU1dWlpqbevHmzpaVFPwuG1xXk8/nnzp27fv06m80OCAiIi4tT1xbz8/NTURJTKU8lEAgofaaHDx8mJCQkJSWJxeLIyMjJkydr1BZT0ehTRqPYYGtigAjEBt8IKisrm5ubVaRzAGWolTT6hx2LxSJJkmqUSCQIISsrK5IkMQzDMKyyspK+L4LjONVOZWT1bgKBgFKwdnZ2dnV1ff36dQenkN0XkiSLi4urqqreeustPcpqGl5X0MnJ6dy5c8nJydu2bauqqqqoqEBq2mLqSmKtXTE5OTk2NtbHxycwMJAqbt1ebTGNYoOtiQEiEBvs/jx69Gj48OGXL182tiPdifr6egzD3N3d7ezsqGlyS0sLk8kUCoV8Pt/a2prK4xiGeXt7SyQSkUjk5eXFZDLVu7m4uPTr16+8vPzx48cEQdA6dj0QDMMGDRo0Y8YM/SoeG15X8NmzZ9HR0cuWLRsxYsSNGzeoRhVtMXUlMfqemAqVlZW0khj1DtulLYY0iQ1qFAOkZVZAbLBbc/z48U8//fTYsWM6BdIAZZqamhoaGtzd3d3c3AQCgYWFRWVlJYvFolMwtUDRp08fa2vrvLw8giD8/Pw8PT2Li4stLCyUuxEEweVyAwICMAxraWnppG1Opg+PxwsNDVXZONAu2pedKXWyny5ftp00qRkhSp1sSq9eyupkKSkp06ZN++yzzxobG+k8QmmLmZmZJScnU9serl69Gh8fz2Aw1q9fb2dn19o2zOnTp+/fv/+DDz5QKBTp6enDhg2LiYn57rvvFi9eLJfLU1JSNm3apNNtFbFBWgyQOrtjx46TJ0+qi2Cpiw1+9NFHSElsUKOIemv2qeysbpwWG9SYo0NDQw8cOIDjeEtLS2Ji4o8//shgMFRaEIgNIoQQIghi1apV58+fT09Pp/9+AzQNDQ23b9+mjumD4uJiepdRXl4ei8VSnvEUFBQUFRWZm5vTyxqlpaWlpaUqRtS7PX36lMlkMhgMQ+3p6l7Y29uHhoZ2vOqh4XUFZ86cmZqaGhMTM2fOnHHjxu3evRupaYvplAekiYyMFAgEvr6+QUFBvr6+qP0qhUhNbLCNYoAIxAa7D01NTTExMTk5OQ8ePIDUrDeUPKtyC0EQbdmJr94Nx/EemJpZLFZISEhMTIxBCtJi2jflbd68eePGjSqNMpmsqKLizMOHIxwcnJ2dqbUq5ZVTHMcrKir69OmDEOLz+SkpKZmZmfv27WtoaFBWjmlqauLz+Tp1aEiSLCgo4PF4yhXFioqKLC0tu1hyhpo1GFzUav/+/SKRaM2aNa11qK6uNjc3V37CTaUlKirq9OnTBlSr0fi9mywlJSXTpk0LCgo6ePCghYWFsd0xCZKSknrmI5Hdi/r6+qlTp7Z2tlN0BZlMJpWaEUK0sLG6tlgb5QExDPPy8lJp1FtbrCOA2KAJkpOTExMTs2jRos2bN8NDbsCbRFfoCoK2mHZAbLAjWFtb79q1KzY21tiOAICB6YqaA6AtphMQG9QbHx8f2NcMvJFAFSSg+yGTyVp7whMA3higXhfQzaitrZ01a9aAAQNGjRplbF9MGu26G4DpA9kZ6E48ePBg1qxZ69evh4Jz2sEJstbWC8cgwE0XJqngNr/W0gFWNoBuw88//xwTE3Po0CFIzTrBSdIclxjbC0Ab5riE0LqhGf60At0AkiQ///zzxMTEmzdvwj3AtuBkb0eIBBIzG2M7ArQKW97oaK/tOW+YOwOmjkgkio2NvXfvXlZWFqTmNhIaGmoub4bps8nCwsVm8pawsDAtfSA7AyYNn8+fPHkyi8VKSUmhn2wCdGJtbe3Si+soLmOQCmP7AqjCIBUOojI3VxdahkZzty5z6A0AdAW7HjabvXjx4oSEBO3/jwF1wsPDrVjmXGGxOaHnfy2gMzAnJNyWImtLi+HDh2vvqWd2rm5q2pGSUtXYaCK6glQJ0JkzZ54/f165jAvoCnZ3LC0tFy1aBI9o68fkSRPdejk5thQ5Sf60UjQzYR5tPJikwkrR7Cgud2wp5rlyJ02M0jlEn7uClQLB2dzc+MmTf0hPn+3r2693b/0eQdbChAkTtK/IKFNcXPzee+9t2rQpKCho0aJFlpaWkydPpk4tWLBg7NixMpmM8lCjruDWrVuVg7+8vJzqkJqaGh0dPXPmTA6HEx0dvXTp0lWrViGE7t+/P2PGDFpGqzU02lc37uDgoKIrePz48RcvXlD9KRXBgwcPWltbx8XFZWVlWVpaqrTMnj07LCwsLi5OvwrfJghJkufOnXvnnXcgKXec4cOHi0Siu3ezmc3lGIYxMMSAT7XLIUiSIBFJkvYczojxE9v6Q5DUyqZNm1RaKhobD9y8KSJJkiSbFIrPUlKeFxdLpVLlPnv37qUUebdu3UqSZFJS0sqVK99+++0hQ4bs3r2bUr45derU4MGDBw4c+PXXX5MkmZ6ePnXqVPogMzNz1apVlLUvv/zS29t7woQJs2bNOnToEEmSX3/9taen56hRow4ePEiS5M8///zhhx9SnTds2LBixQplZ/z9/ZOTk6ljb2/v9PR06jgkJOTu3bv9+/fPyMigWqg5tUgkol9aW1sXFRUlJSUNHjyYIAja5oULF4qLiwsKCjgcjvK1bGxsioqKNNpvzThJkhEREZTKOkmS//znP1evXs3j8aiXhw4dmjFjBnX8l7/85ZdfflFvIUlyzZo13333nfrXpzfq33uXIRaL582bFxERIRAIjOUDAJgC7Zs7VwgE53JzF48ZQ5XytGUyP500aXNa2v8g5PWfGXTX6wrOnTt37ty51KizZ8/u3btX2RToCnYjqFqg48aNO3HiRGtqXgDQQ2hfdj6Wmbl0yhQrpRZHJvPdoKCfs7NXWFtTVetoXcFXr16p6AoihChdwfz8fEpXECFE6Qq2JmhP6woihFR0BRFClK7g1q1bEUIXLlz4+OOPlyxZQuVfmnnz5gUGBmrRFTx48ODevXvpxZmsrCwzMzOZTJabmzt69GjUBl1B+mVaWhp1oG6/NeM6dQXpXOzg4FBdXS2Xy1Va0JuiK5idnT1nzhx4DhAAKNqXnZeMGnXk2rW/Tphg+59s8ozPT8zIeNvR0bi6gl999dWVK1cuXLgwaNAgFQugK9gtOHHixNq1axMSEqKidN8tAYCeQPv2bDjZ2MwcOPCrtLR6HEcIPePzj1y7NsHKSqOuYHh4uIquIEEQycnJwcHBM2fObGpqio+PX7p0aUlJCTUB1Mj06dOTk5MVCoVEIklPT0cIxcTEJCcn4zgukUhSUlKio6MvX76cmJh49epV9dRM0Zqu4OHDhw8fPrx8+fKTJ0+qj1LXFaTaaV3B1nxui311XUGNpkJDQ9PS0nAcFwgEiYmJISEh6i2om+sKEgTx2Wef7dixIyMjA1IzANC0W1ewr6vrwkGDNqelZVRXH71+Pcra2ui6gteuXXv27JmLiwuXy+VyucpLDRSgK2iyEASxcOHC27dv37x5U10BBwB6NNpvGmq8dy+VSp8VF39x4cLVq1dzc3P5fL5CoVDuoFAoSktLqeO6uroTJ04sXbpUIpFUVlYqdxMIBIWFhTpvXBIEkZ+fT+92oCgsLKyoqNA51rCUlJSUlJQY3Oy3335LbVxpjaqqKuqRk9ZaIiMja2pqDOhSV+7ZOH/+vMqeHwAAyPbu2aBgsVhevXt/ZG0NuoIGoYfrCmr55QQAPRnQFTQ+3VRX8OHDh6mpqQsWLPD09MRxPDExsV+/fsHBwW0Ze/bs2TFjxjg7O3e2kwDQfemKOhs8Hq+brop2Ge7u7vRt1fYyYMAACwsLw/qjkz///HPMmDFHjx4NCQkpKyv79NNPb926tWLFiiNHjmgfSJLkP/7xj5UrV2q5FQwAAIIqSIB+nD9/fu3atQUFBWPHjo2KirKxsdm7d++ZM2cSEhK0jBIIBNHR0ZmZmY8fP/bz8+sybwGgOwLZGdCHBw8eUA9AHjx4sLCwkNqubmNjo6WGX1FRUURERO/evS9fvgy1QAFAJ6CNAuhDVFRUSkrK+PHjd+3atXXr1g0bNri6ulZUVND1p1S4ceNGbGzsunXrVqxY0cWuAkA3BbIzoA/Tpk1LTU3t169ffHz8Z599Zm9vv3r1ajs7O/rpUGV++umntWvXnjhxYsqUKV3uKQB0VyA7A/pgY2Nz4sQJ+un2Dz/8cO7cudbW1vTD7jQ7d+7cv39/ampqG7dzAABAAevOgP4o52I7Ozv11IwQGjNmTHZ2NqRmAGgvMHcGOpfw8HBjuwAA3RKYOwOGJycn5/bt28b2AgC6N3pmZ0E9P+mnIw21tR3XFaTUAjUKCXbEYMftCIVCui6dYWmjZS6XS0lY5eXlYRj2ww8/0Kd69eo1bNgwDofDZrMZDAb1TPwnn3xCnX333XdFIhF1rF2l8PTp04cOHTLgW0MInTt37q233mpoaDCsWQDoaeiTnRv5/IepSeMHet1MOPpnSTFVprmDTJgw4ejRox23Y0Cam5t37NhhIpZtbW03btxYU1NDt1y8eLGpqenBgwdOTk5NTU1NTU27du1CCKmoFMbGxt65c4caQqkULl68ePXq1QsXLiwrK5s9e/bBgwc11ufTA6oW6Oeff37r1q23337bIDYBoMfS7uzcyOc/upwycqAPQy4d38/94bFDFcVFKgl6+/btffv2HTp0KP3k2M6dO/v27RsREUHP1L766isfH5/IyEhKPvXhw4fbt29HCO3YscPHxyc6Onrt2rWXLl3SOFYjKgYRQj///LOfn5+vr+/OnTsRQsnJyatWrZo6daq/v/+ePXuosv379u0LCgoKDg7etm0bQuju3bsfffTRggULNm/e/P7771dVVS1cuFC9W0ZGRnx8/Jw5cwYMGLB9+/ZPP/3Uw8MjOjq6ublZ/boZGRl/+9vf4uLiPDw8YmNjpVKpsuU2vjsXF5dFixbRs2Mt7N69Oy4ujjqurq6mSlpTJCYmBgQEREVFjRw5cvz48bdv3zYzM4uKijp16pROszppamqKiYm5d+/e7du3vb29O24QAHo62kvYqVSSbKirvXrqmPjBbVFGekvSb4JjB2r/ueHX5YsKX+TRRSBfvXoVGBjY0tJSXl7u7e0tEolevXrl7++fn58vlUpHjx799OnTBw8eDBo06OXLlzk5OU5OTocOHUpOTp42bdqLFy+GDRtWX19///59Ozu7Y8eOqY/V6Ke6QT6fP2DAgPz8fMrm2bNnT5w4YW9v//r1a7FYPH78+Fu3btXV1Y0bN66hoUEmk/n6+ubn56enp5uZmR05cqSpqamystLDw4MkSfVuycnJGIZlZ2e/fv2awWB88cUXYrE4Kirq119/Vb9ucnIym81+9OhRTU0NpdJCW9b+7pydnfPy8kiSfP78uZeXl0gk6t+///Xr10mS5HK5VAHV58+fOzs700MIgnB0dFQu6Pr69WtaQ/aTTz5Zt24ddbx169a1a9eSJHn06NFp06apf+9t/y+0cePGoqKigICA5cuXy+Vy7f+jAABoI+2bO99KPBvW15NsaSIa63F+LV5bRTQLfC0Yt389LRAIqD4XLlyYPXs2m83m8Xi3bt1iMBi0EiCLxaKUAGm1wMDAQEotkOL8+fMLFy50cHAYNmwYJZOhPlajY+oGqZJpmZmZd+7coaQL0X/kDS0tLSl5Q1oCcdu2bbQE4rBhw5YsWaJck0hjt5CQkOHDhw8YMMDR0TE+Pt7S0tLf37+srEzjdceMGRMUFMTlcsPDw4uKimjLbXx3FFZWVgcOHFi2bJmWpSSdKoV06VEHBwdKLLHjmoQlJSVhYWGLFy8+cOCAFhUuAADaRfuy85gZM6/ffyCrr8P5tXhNpaxJUNMivIOb9x41ltYVLCwstLe3p445HI6ZmVlpaWmvXr2oFkoJsLKykm5RLvGcl5dHye4hhBwdHRFC6mM1OqZukJYulMlk48aNmzVrFlKTN3z27FlgYGBZWdmIESNorUL1spYau3l6elIHGIbZ2dnRnTVel1oFRggxmUySJOnObXx3NFOmTAkMDKTWlzWiU6WwtLSUOjagJuHJkyf3798Pj2gDgGFpX3a2sbP3nzrj6qMnstpqeXNTrVCUpTDjTZqqrCsYExOTmpqK47hQKAwKChKLxepKgOpqgRQBAQHJyckEQTQ1NV25cgVpUhHU6Ji6QY3ShSryhholEJWhivvo7KZMGyUTKcttfHfKfPPNN/v3729padF4tr0qhah1TcK2//6Sy+XK20IAADAI7dYV7N3HI3jh4utFZdXNLbcVZu6TpqroCkZGRkql0sGDB48YMWL16tU2NjbqSoDqaoEUH374oaura1BQUGRkpJubG4vFUh+r0TF1gxqlC1XkDTVKINK4uLhwOJxFixZp76ZCWyQTacttfHfKuLq6btiwgf6lokJ7VQpRd9YkBIA3HO3TotZ0BQtf5J3etqk1XUGSJCsrK1UaVZQANaoFlpSU5OXlUXeWJk2a9PjxY/Wxz9SQyWStGVSWLtQob6gigajyLgiCaG5u1tlNHZ2SibRl0tAaie1VKdSoSdiVuoIAAGhET11BXr/+kUuXt6YriBBSkRBEakqAGtUCmUxmTEzMokWL0tPT5XI5XaBdeez9+/dVRnl6epqbm2s0qC5dqCJvqFECUdlJGxsbnd3U0SmZSFtGhtZIbJdKYXfXJASAN5iu0BVsOzweLyMj48aNG2vWrBk7dqzGqjrvvfeefsZ7iLxhu1QKjaVJCACATkxu/5Orqyv9MIVh4fF4PB6vMyybGu7u7m3sOWDAgE71BAAAvYEqSAAAAKYIZGcAAABTBCOVHo5QJykpqctcAUyKqVOnGtsFAOjR6F53pp7ZA3oU9fX1xnYBAHo6sLIBAABgikB2BgAAMEXanZ0dHBxGjhypXipInT59+owcOZLBgD8AAAAA7aYTUyeGYZ1nHGgXL1++fPXqlfY7wAAAmBT6P41ia2vbv3//uro6LpeL43h5eTklJcfj8VxdXeVyuUQioXq6u7u7uLiQJFlXV0dVsHRxcXF1dS0uLpbJZD4+PnV1dX/++ad6N3d3d2dnZwzDGhoaWqvsA7QFsVicm5v75MmToKCg/v37wx9OADB99J87M5lMNpvt4uJSU1NjYWHh4eGBELKysvL09KSqJ1P1KNhstoeHR11dXU1Njbu7e+/evRFCtbW1TCazf//+/fr1Mzc3r66uVu/G4XA8PDwqKioqKipcXFzomtGA3giFwszMzJSUFGV9QgAATJOOrmwUFxdXVFTw+Xw2m41hGFXe/uXLl2VlZY2NjQghJycngiCouvI4jlP78wiCeP36tZWVlb29fUFBgUKhcHZ2VulGze/c3d3ZbPazZ88oa0DHqaurS01NvXnzZmtFogEAMAU6mp2pKvL0giaLxSJJkmqkVjasrKxIksQwjMFgVFZW1tXV0QOpUVRGVu8mEAieP38uFAqdnZ0DAgJoDRGg45AkWVxcnJycbCg1bgAADI6B7wrW19djGObu7m5nZ0dNk1taWphMplAo5PP51tbWVEbGMMzb21sikYhEIi8vLyaTqd7NxcWlX79+5eXljx8/JgiCFn8COg6GYYMGDZoxY4b2MqcAABgRA9eoa2pqamhocHd3d3NzEwgEFhYWlZWVLBaLTsHUAkWfPn2sra3z8vIIgvDz8/P09CwuLrawsFDuRhAEl8sNCAjAMKylpaWqqsqwrvZYeDxeaGioshYiAAAmiO46G3o8yc1isVQ0TBkMhrm5uVQq1T5QvRuTyWQwGHK5vL0+AMrk5OTk5uba29uHhoa6ubnp7F9fXw91NgDAuHRKfWeZTKbSQhCEztSssRuO49QqNtARWCxWSEjI4MGD4eEgAOgumFz1faAzGDx4sLFdAACgfcBMCgAAwBSB7AwAAGCKQHYGAAAwRSA7AwAAmCK67wqCTAYAAEDXoyM74wRZa+uFY7C1owfBJBXc5tfG9gIAejo6VjZwkjTHJV3jCmAimOMSAipBA4Cx0ZGdnezt2HJB17gCmAhseaOjPTznDQBGRkd2Dg0NNZc3w/S558DCxWbylrCwMGM7AgA9HR3Z2dra2qUX11FcxiAVXeMQYEQYpMJBVObm6mJpaWlsXwCgp6N7R114eLgVy5wrLDYndBfKALov5oSE21JkbWkxfPhwY/sCAICuGnU09+7dq6iqVrBsRWYcGdMKdnG8MTBJBQsXW8kF5vIWXm/X0NBQY3sEAABCbc/OCCGRSHT3braguRnDMAaGGKAc2v0hSJIgEUmS9hzOiBHhsKABAKZDO7IzAAAA0GXAk9wAAACmCGRnAAAAUwSyMwAAgCkC2RkAAMAUgewMAABgikB2BgAAMEUgOwMAAJgikJ0BAABMkf8DJPYn8XGkF1MAAAAASUVORK5CYII=;" vertex="1" parent="1">
          <mxGeometry x="1335" y="300" width="139" height="55.14" as="geometry" />
        </mxCell>
        <mxCell id="hAuHUI22cmVRYy7zVz07-21" value="gestion empleados" style="text;html=1;align=center;verticalAlign=middle;whiteSpace=wrap;rounded=0;" vertex="1" parent="1">
          <mxGeometry x="1385" y="260" width="60" height="30" as="geometry" />
        </mxCell>
        <mxCell id="hAuHUI22cmVRYy7zVz07-22" value="" style="shape=image;verticalLabelPosition=bottom;labelBackgroundColor=default;verticalAlign=top;aspect=fixed;imageAspect=0;image=https://upload.wikimedia.org/wikipedia/commons/thumb/2/29/Postgresql_elephant.svg/1200px-Postgresql_elephant.svg.png;" vertex="1" parent="1">
          <mxGeometry x="1649" y="-40" width="154" height="158.76" as="geometry" />
        </mxCell>
        <mxCell id="hAuHUI22cmVRYy7zVz07-23" value="&lt;font style=&quot;font-size: 48px;&quot;&gt;Slave&lt;/font&gt;" style="text;html=1;align=center;verticalAlign=middle;whiteSpace=wrap;rounded=0;" vertex="1" parent="1">
          <mxGeometry x="1455" y="-40" width="60" height="30" as="geometry" />
        </mxCell>
        <mxCell id="hAuHUI22cmVRYy7zVz07-24" value="" style="shape=image;verticalLabelPosition=bottom;labelBackgroundColor=default;verticalAlign=top;aspect=fixed;imageAspect=0;image=https://upload.wikimedia.org/wikipedia/commons/e/ec/AlmaLinux_Icon_Logo.png;" vertex="1" parent="1">
          <mxGeometry x="1860" y="-350" width="202" height="201.59" as="geometry" />
        </mxCell>
        <mxCell id="hAuHUI22cmVRYy7zVz07-37" value="" style="shape=image;verticalLabelPosition=bottom;labelBackgroundColor=default;verticalAlign=top;aspect=fixed;imageAspect=0;image=data:image/png,iVBORw0KGgoAAAANSUhEUgAAAOEAAADhCAMAAAAJbSJIAAAA7VBMVEX///8AmKkAUHIAlad0ucQAkqQAlqgAj6IARmsAQWgATXAASW0ARGoATnEAmaoANmEAPmbr8fMAVHb2+fp0j6LX5Ol1lqkAXHzj6+8vqbdBdpDf8/XP5emWyNAAOmPx+vtKsr8woLBgip+owMuAn7Cl19603uPN3OKRrLuzxtAxaobL6Oyf0di93eKJytPDzdSbt8R5nK5OrbpftMApXnyYqrdKfZYAKVllj6QqaodigZdErrt9vshttcFxwcqXyNHB5uqksr4+gpk9jaE9na4tb4q01NuIrrsAf5aDvMedvskAd5AAIlYceZAzcIsc62M4AAATTUlEQVR4nO2dC3eiSBbHS4kIFKJAQMQEGjEiaEQDbWu03fTsTO/Mzq7f/+PsLVAjPhKTIGb78D99+hh8hF9u1X1UXRChXLly5cqVK1euXLly5cqVK1euXLly5cqV60ySQWKv93RHNAD1yYNOr9eUTXjq0qf3ETWf7m7n32cNoVAul1aiQOvHpTIlNBrB/BZwzUuf7Jtk9u77i4ZAsICHpgt04bjoGLlcagT9+/8D0ObN3aJhCXSJeonqCGqJKghWMLhpftKRK5tPgwcrYnsz3ZbAoMLD4k78dNYEOuEdhjtuzsb87vNANjvBe4blq5SlRr93aTaQeTcDZ5Ey3oaSsm6bF8WTbxbWmejWglnZudhwlTsPFHVWvEg0jNbLMHYapfOab4uxMMier5cZX6QSdZctnzw48/TbF/WQpc8xg1LGfATRyi52mI0LAMJ0pDNDfMjAgx5EFDIaqJ2LWJCIWmRDeHUhE4KsbALjLGs3+qyMhunlbEg3srFh72LzsJRVarO4ECLVyKz6v0TAzzBYgORLWLHUyLRU7GRRN22LzmwOrmUu6AyTb7o0u8CCRjMQMrIjTT3cZ89HdJMJI1WYrfnMTuaMzb5QPiskVaLnm/HZob9nTgjqDRqpLyXGoqmScPX0/ItmZerqEoQRJFkOThmvRM3mT88RvgmerZAV4YGwJDc7gZUaJVUqWA+D5lYOag4EMk6yIiz1DyZPcu9+YZGtpA8M2ejtQnC3swnVt+IMIyvCckk4zIjIztrdoCFE+2pvAqXJKn6Zaiz6nd0hYt4J6wwqM0LiwfsvpVDm0908mFmF9Q4iHTHQCaLVsXjDVGgEf+2zETUHWxEpQ0Ky8jV4JU2UTbP51B8sgmA2sywB9Lz7W4CfLKsxewgWg37nRjSP1H3NRSLiZkpIdhSuTsykALXZvNkRHDrGtZLcCeik78qYkPi8h/MlGc3bfd+cOSGJWqX5OVJiszM7lCtdgJD81oL1otd5u8z7QDjsiS9DSAwJESyt9gLz/rt1tPa8FGEEST2kYMlmP3gxMbogYQRZFhYHQ9ppanbmjfIred9lCaMzoGhr8fYGp2avA3HvhHWRyxNGZ1ESrAcwZvMUTpO0GD1YhRNz9s9BCOM1aogRZt/n/U5PPtCcF/fy3Q3mQUMovaW4/CyEa9C4YU0QZl+ugtt/3K509T2YNQTq7cn55yN8RiU10bbo99ZXn5UwPeWEOWFOmBPmhDlhTpgT/gKENJXRPvCFCGmqkdU+8EUIqfJDdvvcFyCkqCDLffzz7voeUEn4fpMhH0K9QMiw14SmhNd2SM4gs/PltWWxtPDKs0tdbiF3roTyeTtqaKrUuOwlM/Jq//4cmGTHtHGWLZG3Qqa6f/+MVxJmi5v90XmBfhoiudcJhPSu7iKfdOSitZ51kX6aWM3O7axQ/lhjTbSXD1Pv6bBraS7KpUv102zO4W4QNCiyxvuea2RLhcbV8QsOzUEhu36aF723Kfb6i4As1K9WfF+AjZ4m68ZkH2DQe+HKWPku6jfJilDovLpXaDZvbsCgUYdCZJ94ITgWFV+yTtOkXWEWDDo3r+1xdGZZ99M0TvZpZrPXu7//+XMwny++rDWfz29//rx/6p20e7N1GWB29SF486z8ttkXni8DzLifJuXd+4NqDqzL9dPQr/cMfVBybyEkO+YzX8UoFbbaP9OWfPfwCfppSI/reQbr06Jw4CrcC/XT0F8+0J9wUL3BkQL0Yv00lBXcp1XEmTeLmXDsepULribCaP2ewn0s5M688VLOd9n1UqpEzW6fPvCxT7cB9UrqfvEVYZKezQZPb5+VzfvbximFycUJY0pasBb9V1PNlSCr60MNTZ12+4JPQRifSYkSrGAx6DRF0zyUpsumSRpqvj9YpKHmFLhPRhgp6k2nhcZDMP9r0Afddcj//b/+uiIdNaV3NNR8MsI1KJ24v9f67ljv0uckTFM5YU6YE+aEvxZhtGgW/VYIe2TRDES/Z6H0cxKuAzWJdIXZ4L7XjNS7H5B7t/0ChPN1bm32OtEateYQKVF61gnOuLF4DkJRiU5eSySXmuP7Xdf3HUVU7NaUwwwR5qTx0AHu+dmu8E6bUHRGeihxGGMp9Maqq4kRXlcPMVtjazUWjldYnmXgaV0P6xgeV7yuhprBeRDp0jxNPrnrwRljSQrDUKowLMtiT/W16wo5GOpjHQ5jXvImrqKJJpJFTfFHXoXnpbaI7s7AR9Gz+zTvbeKHLGuMbYeMT1lWfFetGzWWrTG1+ldnVftpvqvAs4794yvI9sHGShsDo4uadMpmpMpfnlLEQ6ht8FKXDFS32263bd+Bs5fdtmToMNOcH5MxqO065G86rFd5Mg953qiM4NkhxmwLmY0UEelSYZ7yep7K8xMZ+brEgQfB4Ek4KZz4GtgLid2QI8c4DvOVsOXLSB5WuGKkCsaei8QWwyxl00orNlKlWeq3huzyTBcpY56rVIorVQCoCFZ1Q4YrblTBvO7C2Fzi9RGOGWuoi5ml2EwFj6aEIP0bKDsMM0K+hItJ4TGwb/PFR/lHsO2Efz4g+WjIMmN09/Hb9FBU4yxr6nU4PY3fReFCGQ2N4r4wb8PErT2/kBmiIQxzJHzQemVhcJ5+E5stKijcBSzWHOSzld2jkdg2ILJbY9cGYzN+//3OhrTTnAkPpPMjQrlrqRYSvT3s9ZMqQpPnUV3hFKQz49774MgKevK2GGvJ6TBrLAvnt8tSwQ44oCOAgNhG8vL5PXgC45RtvmOYUmQd8shWT3OWTj/NkPeQsmdCzkNieHiMRoK5qEjPnreONMw61tuMR5XK5K4fR85LHlAp9dM8sl2YRXsELqAfBywWq9r2CwwkTln3VELSclIWvty+tE1H7v+RTuYteqyLWruRohKKB5xPwshLJOubtxnR57wa9KM2KHK56aDz8uXu91GKlA6hJtUOTEOIhQp+YZASKw+RsxncBpLH/I8ZTcetNJtemu1+GkGwyJ0/7l+/ZLgXxEV3OoQKYxxwmpDj2Hsjd8fMdfH5L0M+g/9Bmml+DgZBEDSeNQuCxe3t/X3vxHYawrcKOykR1gyk7fkU1tmOBkeM2EX+5q8A85AkAh/X09YdMtIh9NniPmGlrqEpsQ/HHZmMUCgzMFfr8Ru5KdLq4Jw+KrOTuKt9OoQ2W98n5DwTsRVS8Ope5cBoxZw+GamqgkaxoSE9INHig6fSHFjn6KdxeekA4SNSqsWWq4iyqIy43THMjJ2VJ/TjgMF8hUc18SPnIT8Fex0LKflS9oCnwdfIV7X1S9wdQshgoCCxbVtZE2IXQir/gbNo3jYOXNaRkqfhDYTGu4Tt6KnutPrtW0vcSd+4EKqqal1njC6MgPj1Gmox+rvx+ofw0o2HuxGfAUKlVWSYlmu3ljv5G2MjuwJzrsUOofYlRyBpkz1wre/Dmx25/05ahFFO090ndDAcw0N4BdRW11vPk5xcx13Zlnh/FVKg1FAk7L/5d5tNcn3D8UQopfXSR/YrcncybzjlePxVhkrbGCbzVs6BSIJ5plJ0UFxfMD6yeUl7/Xdtq3k3f+0ekykRqjxUgnzSmYCnWc0whsWA67O7hIQ+1FBsVYieY8Z7w+/s3V0JJ1xnlBKhzU5lecodISxGOaq4vZrBrAYnF5pm9DZujGSOOW0aNnv3i0bhlNvvpEeo1Fhx19UkCDn4CyQ8TRu5ZNSSEjIihHTNZyrfSU7dPNhOQxpqmk3S6x7dfefkPbmUCOUi6+8WiAnCoiTK9S1ESNGi4ndNWIEZqDKeRe6HaM0erq4Gg/jL8kDwoD8YXAUPDaHw9oaatHZmdCiBHfY4YQWLyfIKoh+pDDlPjgghZUNF/FsjOvu9dprVlQlvIkubsMs/IpR0NUkbQjq23CaEKUecL/E05F0wBFwWP7yLIRtClw13jERymuHzuGV3noakRiZ5nhQ5VZimkNAsrU9MKNZ4BX1NTEQmsXQjiSjpa2s+SeRI6G9xpEzUKvifH1sOPi8hkkgtm3Cm4B2f0xjiSxOzlMw8GXwNDE8VV1gTtfmzDNL0CFV+jFDCSFDqPW4OQCkl1pKI8PyQJ+txXcyokPjh385hwvQIXQZ8RqK8SBDiLuRkSUKI8ahYiceyAs9yv39uQk0iieX2REyMUqg91J3MvMK4yMYkjtZUhDw8tc4BmGKnAtm5UKQtAmbLl0KA31/9hmiPPKgtWpyCXFz5/SyAKRJ2eQklAgKkoto6FSXl4P7qNxx1sYIkMGEd163PTqhw2Eku4uNNVVwB+AN7UBUGyW2kQbpjs+cJFakSynoU1LYJW0grxrXfbiR5nqpg/C7EfvyHdR7AQjm9fpo2P0Vb3pNMNBe5RUIm7a9xxC8IZSRPydYVLhMTpt/ER1kpNiwobM1JzjYOyJyQx1hH5uH9C/BOpFWjzv1hCaRD/4uQKiMl3KbZsCATbypL2ygcA8fdyXSIbOPw+j5LFnEmDPfbP/87xQwe/0zv68vokpB2w8mQh+QzUSQ+r9Ertrq3JkymqmeTrB1zpHmoJvGYubfSwaNKjX66eCCZ54dI22pMIKtsrr1exXYOAI5JNa+NHh8fW21bEx2Pby/S6IuiCsHrl8e/QxNel7e2m8iCqc+x4XVbRG5bPLBJzGrIfWyt1tdgQoK30j/QjLGxnzU/0/2FHAYSMW3tTfkJDE7MFSu1CXJqLMDvpN5Frk6WSDE7HV+3lpW6gqBGfPygDenSWe+/o2MPrZfvwYGSmo/DtXG0JFNRUH1372KMfIMjzW5sNYxCI8//y/oQ3hna2RJyMDNE8jhaJqybUBEZkq76SNMxAMt7hFBdaI/e1Btfd8k+lKxizgve7UupkhCc/+5QLQwpmOYxRRwqgOq54GbEbgiAZAzu2XAEbxFFMfYJzpLhpu8sgulS4WhHTbpSJKYFJz3GSwBSdSQP1SXDwDD0iDvZJeR/bN4o248Mx+2lboLw8s+R7ShIFgbp9yIe0bDGtlcP24YN9tPrhlFvxXFxlxD80lD98ePH18m0BpmP9OdORiNQf/6ZPFD+c9sPxS01Qf+vfx8/IUVJG3HC8xMSAeU2T4r4jeS2tktYwT6asDyIxPv633u37Rb+xsWykDjAr/LX6A41s6tB5Dav/3N0Q8cxWmkTojGDw7bb9jBIX29ky75X3yMsFkkTThiG+uNkqInkElhyHx5B2FxSWZeKf28IAYv+A5dLBXKDGnI17eYrZ4aTY3vjmkdiVsoCj8hgHv6NVQYYR0PbHqoej8N9G0KSFxb9taeJRb5B5+YeWBdfvvzO/3cqWWt9+RIsfmP/cXPz2rfpbKnF4/QJYWS0GKO2tEl/ejT+olHIHSAMkRxKmvYTcrvhugfDsWHO+vGoU6uKa2z2TH1bQ+0qTCvHAccUJYOuHb1NcaEIg6OibSeHa7fmMecg3JKtLiW2Jk1Vf7pPyOngeyVN/eaEVaM6JaesLeER/y8jOi0RT5EoLVefxBjVqto2IAgxS7tWNQxXrMP/UzmehyKvt6vw5m0gpxZqxpkJ429tIN/loEt7OQ1uQYoQiiozDbvDMQ/pkNwyxsOhx5DmWrAAOGOwY2QWnym2bbUosUAoSdLIHuHQ0+G1pPy6hteIUpEb2d1K7bnlSK7zjlw9O+FaLbxHSDZneE9WGRIs5Racm18j7lf2GEIo6xzMN9+Idk3HDDlzl4kIo6JMj/o2nFprTciSozb7THQNb82YcGeTGE70B+shtUaqYPDrbTRio1nnkgVU5LCRJet1GAEmE0UeWSejVKqTx91ohoow1FeEUvQpeBMdhgY8lTHhOFnnMw5U9/p6HIoVHY2L0cOYrcXUYTzWJTLuVrSRp5ElnTjfbpV4GbG4JizqSUIHS+RlVTUrwq7h7BLCzFyCq1OrUTQjp7hNqEmSR7QkO5MOO9oiXJ5CqDP15XQ65aTpMCNCOKFRgpDzRCTBXFTjgKAZKlL5yPu7hHBodGMnNQXriwQT1DJOJmzVw3q9HnKS9L4upDfLrbqonSjySVJnAJIapx0jGI1u7NvHPFkFr6xim12DTDcskvwy6r06kVDUiBSjpX2oGfB0+eBP3MTCPmQbDgsYKmZVRWsz4D/kpaH6bouFaOEYj6t3akVPBszQFd0Qn04YK0NP45CeoUTXN2+DbwenofKjGsTqkJhM9CBo1ybw2lZ1E9jG5GG3BhF/fP0NCDkvIvwW+VIGMoLrb1r8gEzYHcJv6WfeRySGOgyyLUKSlaqk1AJP46jXw1Vy6ra7msOPULu9yVadkR39D69xRyKSu5Hr8EfkTyK34Qd7JMcPwODtZBu1PEqlrfokjSU50fbNQzgm02odLYjsSVTN2UZG7i9d2Ya7fYUMGVR2jcydVbQg8qseyaol5o0NfJ9DWqVOspWoAQrzpL1WDA3iLNRvGx55AtMQ0unsRlaqapGx54wrNVxvDcklwnrsFezrLXfuqo+tbuoLDxnJYTkwmSxCNU9+VJasd46F90tqxErr4ScroyLr/b/a6rimPL/86juO3Z6ybFX91SxI1OZ5lmVroKL66xkwktJ+9Kb6Y9f5Fe23VnJpLVeuXLly5cqVK1euXLly5cqVK1euXLlyfSb9D4j7EE81GxYEAAAAAElFTkSuQmCC;" vertex="1" parent="1">
          <mxGeometry x="650" y="-1000" width="525" height="525" as="geometry" />
        </mxCell>
        <mxCell id="hAuHUI22cmVRYy7zVz07-40" value="" style="shape=image;verticalLabelPosition=bottom;labelBackgroundColor=default;verticalAlign=top;aspect=fixed;imageAspect=0;image=https://www.ivanandrei.com/wp-content/uploads/2021/06/windows-11-1170x658.png;" vertex="1" parent="1">
          <mxGeometry x="1730" y="-1350" width="640" height="359.93" as="geometry" />
        </mxCell>
        <mxCell id="hAuHUI22cmVRYy7zVz07-45" value="" style="endArrow=classic;startArrow=classic;html=1;rounded=0;entryX=0;entryY=0.5;entryDx=0;entryDy=0;exitX=0.62;exitY=0.002;exitDx=0;exitDy=0;exitPerimeter=0;" edge="1" parent="1" source="hAuHUI22cmVRYy7zVz07-14" target="hAuHUI22cmVRYy7zVz07-37">
          <mxGeometry width="50" height="50" relative="1" as="geometry">
            <mxPoint x="530" y="-550" as="sourcePoint" />
            <mxPoint x="580" y="-600" as="targetPoint" />
          </mxGeometry>
        </mxCell>
        <mxCell id="hAuHUI22cmVRYy7zVz07-46" value="" style="endArrow=classic;startArrow=classic;html=1;rounded=0;exitX=1;exitY=0.5;exitDx=0;exitDy=0;" edge="1" parent="1" source="hAuHUI22cmVRYy7zVz07-37" target="hAuHUI22cmVRYy7zVz07-16">
          <mxGeometry width="50" height="50" relative="1" as="geometry">
            <mxPoint x="1400" y="-640" as="sourcePoint" />
            <mxPoint x="1450" y="-690" as="targetPoint" />
          </mxGeometry>
        </mxCell>
      </root>
    </mxGraphModel>
  </diagram>
</mxfile>
